<svg width="80" height="73" viewBox="0 0 80 73" fill="none" xmlns="http://www.w3.org/2000/svg">
<path d="M77.5 40.7798C77.5 48.8622 73.4208 55.954 67.284 59.9571C63.0149 62.7411 60 67 55.3324 69.52C54.0803 70.196 49 70.5 44.5 69C41.5 68 34.5 72 34.5 72C29.5 73.5 26.206 68.1647 21.5619 67.5143C13.5237 66.3904 2.5 61.8104 2.5 45.5993C2.5 39.8681 4.31485 34.6078 7.55993 30.523C10.305 27.0669 12.579 23.2434 14.5188 19.243C19.0403 9.90606 28.3477 3.5 39.0998 3.5C47.8447 3.5 55.6353 7.73714 60.6712 14.3419C63.0365 17.4442 65.7167 20.2853 68.7671 22.6583C74.0674 26.7866 77.4976 33.3668 77.4976 40.7771L77.5 40.7798Z" fill="#FFF5F6"/>
<g clip-path="url(#clip0_3277_3158)">
<path d="M2.27636 44.5137L6.20795 43.9309C6.23589 43.9268 6.26438 43.9285 6.29158 43.9361C6.31879 43.9437 6.34411 43.9568 6.36591 43.9748L9.43305 46.5026C9.46316 46.5274 9.48542 46.5604 9.49714 46.5977C9.50887 46.6349 9.50955 46.6747 9.4991 46.7123L8.31047 50.9893C8.30002 51.0269 8.27889 51.0607 8.24964 51.0865C8.22039 51.1124 8.18428 51.1292 8.14568 51.1349L4.21409 51.7176C4.18615 51.7218 4.15766 51.72 4.13044 51.7125C4.10323 51.7049 4.07791 51.6917 4.05612 51.6737L0.988988 49.146C0.958878 49.1211 0.936612 49.0881 0.924888 49.0509C0.913165 49.0137 0.912486 48.9738 0.922933 48.9362L2.11156 44.6592C2.12201 44.6216 2.14314 44.5879 2.17239 44.562C2.20164 44.5362 2.23776 44.5194 2.27636 44.5137Z" fill="url(#paint0_linear_3277_3158)"/>
<path d="M4.05603 51.6747L0.988894 49.1469C0.958784 49.1221 0.936518 49.089 0.924795 49.0518C0.913071 49.0146 0.912392 48.9748 0.92284 48.9372L2.11147 44.6601C2.12192 44.6225 2.14305 44.5888 2.1723 44.5629C2.20155 44.5371 2.23766 44.5203 2.27626 44.5146L6.20786 43.9318C6.2358 43.9277 6.26429 43.9295 6.2915 43.937L4.13036 51.7134C4.10315 51.7058 4.07783 51.6926 4.05603 51.6747Z" fill="url(#paint1_linear_3277_3158)"/>
<path d="M5.3731 47.2411L2.1518 44.5862C2.18285 44.5474 2.22725 44.5215 2.27634 44.5137L6.20793 43.9309C6.23587 43.9268 6.26436 43.9286 6.29156 43.9361C6.31877 43.9437 6.34409 43.9569 6.3659 43.9748L9.43303 46.5026C9.47102 46.5347 9.49571 46.5797 9.50227 46.629L5.3731 47.2411Z" fill="url(#paint2_linear_3277_3158)"/>
<path d="M7.19276 46.9723L3.91583 44.2716L4.45366 44.1919L7.73059 46.8926L7.19276 46.9723Z" fill="url(#paint3_linear_3277_3158)"/>
</g>
<path d="M58.6086 35.5093C58.4562 35.0336 58.1805 34.6067 57.8097 34.2721C57.4388 33.9375 56.9859 33.707 56.4971 33.6041L47.2367 31.5989L42.6044 23.6364C42.3394 23.1816 41.9598 22.8042 41.5034 22.5419C41.047 22.2796 40.5298 22.1416 40.0034 22.1416C39.477 22.1416 38.9598 22.2796 38.5034 22.5419C38.047 22.8042 37.6674 23.1816 37.4023 23.6364L32.7669 31.5957L23.5044 33.6041C23.0168 33.7103 22.5655 33.9424 22.1954 34.2773C21.8254 34.6122 21.5495 35.0382 21.3953 35.5128C21.241 35.9874 21.2138 36.4942 21.3163 36.9827C21.4188 37.4711 21.6474 37.9242 21.9794 38.2968L28.2919 45.3624L27.3367 54.7874C27.2837 55.2852 27.3629 55.7882 27.5663 56.2457C27.7697 56.7032 28.0901 57.099 28.4952 57.3932C28.9003 57.6873 29.3758 57.8695 29.8737 57.9214C30.3717 57.9732 30.8745 57.8929 31.3315 57.6885L40.0003 53.8687L48.6701 57.6885C49.1272 57.8902 49.6292 57.9684 50.1261 57.9154C50.6229 57.8624 51.0972 57.68 51.5015 57.3864C51.9058 57.0928 52.226 56.6983 52.4301 56.2422C52.6343 55.7862 52.7152 55.2845 52.6648 54.7874L51.7096 45.3624L58.0221 38.2968C58.3575 37.9254 58.5884 37.4718 58.6915 36.9822C58.7945 36.4925 58.7659 35.9843 58.6086 35.5093Z" fill="url(#paint4_radial_3277_3158)"/>
<path d="M40.0002 63.9167C39.7239 63.9167 39.4589 63.807 39.2636 63.6117C39.0682 63.4163 38.9585 63.1513 38.9585 62.8751V58.7084C38.9585 58.4321 39.0682 58.1672 39.2636 57.9718C39.4589 57.7765 39.7239 57.6667 40.0002 57.6667C40.2764 57.6667 40.5414 57.7765 40.7367 57.9718C40.9321 58.1672 41.0418 58.4321 41.0418 58.7084V62.8751C41.0418 63.1513 40.9321 63.4163 40.7367 63.6117C40.5414 63.807 40.2764 63.9167 40.0002 63.9167Z" fill="url(#paint5_linear_3277_3158)"/>
<path d="M19.1963 48.8008C18.9483 48.8007 18.7084 48.7122 18.5199 48.5511C18.3313 48.39 18.2064 48.167 18.1676 47.922C18.1288 47.6771 18.1787 47.4264 18.3082 47.2149C18.4378 47.0034 18.6385 46.8451 18.8744 46.7685L22.8327 45.481C23.0912 45.4096 23.3673 45.4406 23.6034 45.5676C23.8396 45.6946 24.0177 45.9078 24.1007 46.1628C24.1836 46.4178 24.165 46.695 24.0487 46.9367C23.9325 47.1783 23.7275 47.3658 23.4765 47.4601L19.5181 48.7476C19.4144 48.7824 19.3057 48.8004 19.1963 48.8008Z" fill="url(#paint6_linear_3277_3158)"/>
<path d="M60.8033 48.8015C60.694 48.8018 60.5853 48.7846 60.4814 48.7505L56.5231 47.463C56.3874 47.4255 56.2608 47.3609 56.1508 47.2731C56.0408 47.1854 55.9497 47.0762 55.883 46.9523C55.8164 46.8283 55.7755 46.6921 55.763 46.552C55.7504 46.4118 55.7663 46.2705 55.8099 46.1367C55.8534 46.0029 55.9236 45.8792 56.0162 45.7733C56.1089 45.6673 56.222 45.5813 56.3488 45.5202C56.4756 45.4592 56.6135 45.4245 56.7541 45.4183C56.8947 45.412 57.0351 45.4343 57.1668 45.4838L61.1252 46.7713C61.361 46.848 61.5618 47.0063 61.6913 47.2177C61.8209 47.4292 61.8707 47.6799 61.8319 47.9249C61.7932 48.1698 61.6682 48.3929 61.4797 48.5539C61.2911 48.715 61.0513 48.8035 60.8033 48.8036V48.8015Z" fill="url(#paint7_linear_3277_3158)"/>
<path d="M50.4065 27.7158C50.2144 27.7156 50.0262 27.6624 49.8625 27.5619C49.6988 27.4614 49.5661 27.3177 49.479 27.1465C49.3919 26.9753 49.3538 26.7834 49.369 26.592C49.3841 26.4005 49.4519 26.217 49.5648 26.0616L52.0138 22.6908C52.0943 22.5801 52.1958 22.4864 52.3125 22.415C52.4292 22.3435 52.5589 22.2958 52.6941 22.2745C52.8293 22.2531 52.9673 22.2586 53.1004 22.2907C53.2334 22.3227 53.3588 22.3806 53.4695 22.4611C53.5802 22.5416 53.6739 22.6431 53.7453 22.7598C53.8168 22.8766 53.8645 23.0062 53.8858 23.1414C53.9072 23.2766 53.9017 23.4146 53.8696 23.5477C53.8376 23.6807 53.7797 23.8062 53.6992 23.9168L51.2492 27.2856C51.1527 27.4187 51.026 27.5271 50.8795 27.6019C50.733 27.6767 50.5709 27.7157 50.4065 27.7158Z" fill="url(#paint8_linear_3277_3158)"/>
<path d="M29.5919 27.7159C29.4273 27.716 29.265 27.6771 29.1183 27.6023C28.9716 27.5275 28.8448 27.419 28.7481 27.2857L26.2992 23.917C26.1367 23.6935 26.0697 23.4146 26.1129 23.1417C26.1561 22.8688 26.3059 22.6242 26.5294 22.4618C26.7529 22.2993 27.0318 22.2323 27.3047 22.2755C27.5776 22.3187 27.8221 22.4685 27.9846 22.692L30.4336 26.0628C30.5465 26.2182 30.6143 26.4017 30.6294 26.5932C30.6446 26.7846 30.6065 26.9765 30.5194 27.1477C30.4323 27.3189 30.2996 27.4626 30.1359 27.5631C29.9722 27.6636 29.7839 27.7168 29.5919 27.717V27.7159Z" fill="url(#paint9_linear_3277_3158)"/>
<g clip-path="url(#clip1_3277_3158)">
<path d="M66.7748 50.9684L70.482 47.142C70.5083 47.1149 70.5401 47.0935 70.5752 47.0794C70.6103 47.0652 70.648 47.0586 70.6858 47.0599L76.0102 47.2475C76.0624 47.2494 76.1131 47.2664 76.1559 47.2964C76.1987 47.3265 76.2319 47.3683 76.2515 47.4168L78.4752 52.936C78.4947 52.9845 78.4998 53.0377 78.4897 53.089C78.4797 53.1404 78.455 53.1877 78.4186 53.2253L74.7114 57.0516C74.6851 57.0788 74.6533 57.1002 74.6182 57.1143C74.5831 57.1285 74.5454 57.1351 74.5076 57.1338L69.1832 56.9462C69.131 56.9443 69.0804 56.9273 69.0375 56.8973C68.9947 56.8673 68.9615 56.8254 68.9419 56.7769L66.7183 51.2577C66.6987 51.2092 66.6937 51.156 66.7037 51.1047C66.7137 51.0533 66.7385 51.006 66.7748 50.9684Z" fill="url(#paint10_linear_3277_3158)"/>
<path d="M74.5076 57.1325L69.1833 56.9449C69.131 56.9431 69.0804 56.9261 69.0375 56.8961C68.9947 56.866 68.9615 56.8242 68.9419 56.7757L66.7183 51.2564C66.6987 51.2079 66.6937 51.1548 66.7037 51.1034C66.7137 51.0521 66.7385 51.0048 66.7748 50.9672L70.482 47.1408C70.5083 47.1136 70.5401 47.0923 70.5752 47.0781L74.6183 57.1131C74.5831 57.1272 74.5454 57.1339 74.5076 57.1325Z" fill="url(#paint11_linear_3277_3158)"/>
<path d="M72.2935 51.3446L66.7015 51.1475C66.7029 51.0809 66.729 51.0172 66.7748 50.9688L70.482 47.1424C70.5083 47.1152 70.5401 47.0939 70.5752 47.0798C70.6103 47.0656 70.648 47.059 70.6858 47.0603L76.0102 47.2479C76.0767 47.251 76.1397 47.2788 76.1869 47.3259L72.2935 51.3446Z" fill="url(#paint12_linear_3277_3158)"/>
<path d="M74.0091 49.5749L68.3206 49.3745L68.8277 48.851L74.5163 49.0515L74.0091 49.5749Z" fill="url(#paint13_linear_3277_3158)"/>
</g>
<g clip-path="url(#clip2_3277_3158)">
<path d="M34.8579 5.34674L28.8041 1.90332C28.761 1.87888 28.7134 1.86373 28.6641 1.85885C28.6149 1.85396 28.5652 1.85944 28.5182 1.87494L21.9055 4.06114C21.8406 4.08262 21.7833 4.12246 21.7405 4.17585C21.6978 4.22923 21.6715 4.29386 21.6647 4.36191L20.8964 12.1026C20.8896 12.1706 20.9028 12.2392 20.9342 12.2999C20.9656 12.3607 21.0139 12.411 21.0734 12.4448L27.1273 15.8882C27.1703 15.9127 27.218 15.9279 27.2672 15.9328C27.3164 15.9376 27.3662 15.9321 27.4132 15.9166L34.0258 13.7304C34.0907 13.709 34.148 13.6691 34.1908 13.6157C34.2335 13.5623 34.2599 13.4977 34.2666 13.4297L35.0349 5.68898C35.0417 5.62093 35.0285 5.55238 34.9971 5.49164C34.9657 5.43089 34.9174 5.38056 34.8579 5.34674Z" fill="url(#paint14_linear_3277_3158)"/>
<path d="M27.4131 15.9125L34.0258 13.7264C34.0907 13.7049 34.148 13.665 34.1907 13.6116C34.2335 13.5583 34.2598 13.4936 34.2666 13.4256L35.0349 5.68491C35.0416 5.61686 35.0285 5.54831 34.9971 5.48756C34.9657 5.42682 34.9173 5.37649 34.8579 5.34266L28.804 1.89924C28.761 1.8748 28.7133 1.85964 28.6641 1.85474L27.2671 15.9287C27.3164 15.9335 27.3661 15.928 27.4131 15.9125Z" fill="url(#paint15_linear_3277_3158)"/>
<path d="M28.0706 7.84178L35.0156 5.54573C34.9894 5.46263 34.9333 5.39223 34.8581 5.34829L28.8042 1.90487C28.7612 1.88044 28.7135 1.86529 28.6643 1.8604C28.615 1.85551 28.5653 1.861 28.5183 1.87649L21.9057 4.06269C21.8233 4.09099 21.7544 4.14897 21.7124 4.22532L28.0706 7.84178Z" fill="url(#paint16_linear_3277_3158)"/>
<path d="M25.2684 6.24593L32.3334 3.91022L31.5052 3.43919L24.4403 5.77489L25.2684 6.24593Z" fill="url(#paint17_linear_3277_3158)"/>
</g>
<defs>
<linearGradient id="paint0_linear_3277_3158" x1="-1.77165" y1="49.3795" x2="8.61511" y2="47.0661" gradientUnits="userSpaceOnUse">
<stop offset="0.19" stop-color="#FD9B02"/>
<stop offset="1" stop-color="#FF7302"/>
</linearGradient>
<linearGradient id="paint1_linear_3277_3158" x1="5.60428" y1="48.1455" x2="-1.31069" y2="42.6898" gradientUnits="userSpaceOnUse">
<stop stop-color="#FD9B02"/>
<stop offset="1" stop-color="#FF7302"/>
</linearGradient>
<linearGradient id="paint2_linear_3277_3158" x1="6.33934" y1="43.7643" x2="4.56087" y2="50.1636" gradientUnits="userSpaceOnUse">
<stop stop-color="#FED200"/>
<stop offset="1" stop-color="#F59815"/>
</linearGradient>
<linearGradient id="paint3_linear_3277_3158" x1="6.34522" y1="43.7038" x2="4.12774" y2="51.6829" gradientUnits="userSpaceOnUse">
<stop stop-color="#FD9B02"/>
<stop offset="1" stop-color="#FF7302"/>
</linearGradient>
<radialGradient id="paint4_radial_3277_3158" cx="0" cy="0" r="1" gradientUnits="userSpaceOnUse" gradientTransform="translate(36.5034 36.1635) scale(22.2552)">
<stop stop-color="#FED200"/>
<stop offset="1" stop-color="#F59815"/>
</radialGradient>
<linearGradient id="paint5_linear_3277_3158" x1="40.0002" y1="57.6199" x2="40.0002" y2="63.648" gradientUnits="userSpaceOnUse">
<stop stop-color="#FED200"/>
<stop offset="1" stop-color="#F59815"/>
</linearGradient>
<linearGradient id="paint6_linear_3277_3158" x1="24.116" y1="45.8872" x2="18.5077" y2="48.231" gradientUnits="userSpaceOnUse">
<stop stop-color="#FED200"/>
<stop offset="1" stop-color="#F59815"/>
</linearGradient>
<linearGradient id="paint7_linear_3277_3158" x1="55.7543" y1="45.8713" x2="61.5356" y2="48.2171" gradientUnits="userSpaceOnUse">
<stop stop-color="#FED200"/>
<stop offset="1" stop-color="#F59815"/>
</linearGradient>
<linearGradient id="paint8_linear_3277_3158" x1="49.7409" y1="27.5387" x2="53.3409" y2="22.6835" gradientUnits="userSpaceOnUse">
<stop stop-color="#FED200"/>
<stop offset="1" stop-color="#F59815"/>
</linearGradient>
<linearGradient id="paint9_linear_3277_3158" x1="30.2242" y1="27.4659" x2="26.4575" y2="22.443" gradientUnits="userSpaceOnUse">
<stop stop-color="#FED200"/>
<stop offset="1" stop-color="#F59815"/>
</linearGradient>
<linearGradient id="paint10_linear_3277_3158" x1="66.437" y1="59.4461" x2="75.5996" y2="48.5141" gradientUnits="userSpaceOnUse">
<stop offset="0.19" stop-color="#FD9B02"/>
<stop offset="1" stop-color="#FF7302"/>
</linearGradient>
<linearGradient id="paint11_linear_3277_3158" x1="73.2764" y1="52.1156" x2="61.4708" y2="51.9513" gradientUnits="userSpaceOnUse">
<stop stop-color="#FD9B02"/>
<stop offset="1" stop-color="#FF7302"/>
</linearGradient>
<linearGradient id="paint12_linear_3277_3158" x1="70.4858" y1="46.858" x2="73.813" y2="55.116" gradientUnits="userSpaceOnUse">
<stop stop-color="#FED200"/>
<stop offset="1" stop-color="#F59815"/>
</linearGradient>
<linearGradient id="paint13_linear_3277_3158" x1="70.4419" y1="46.7891" x2="74.5903" y2="57.0857" gradientUnits="userSpaceOnUse">
<stop stop-color="#FD9B02"/>
<stop offset="1" stop-color="#FF7302"/>
</linearGradient>
<linearGradient id="paint14_linear_3277_3158" x1="38.3879" y1="15.8614" x2="22.8847" y2="5.50002" gradientUnits="userSpaceOnUse">
<stop offset="0.19" stop-color="#FD9B02"/>
<stop offset="1" stop-color="#FF7302"/>
</linearGradient>
<linearGradient id="paint15_linear_3277_3158" x1="27.12" y1="9.16582" x2="41.8744" y2="4.63434" gradientUnits="userSpaceOnUse">
<stop stop-color="#FD9B02"/>
<stop offset="1" stop-color="#FF7302"/>
</linearGradient>
<linearGradient id="paint16_linear_3277_3158" x1="28.6951" y1="1.54934" x2="27.5456" y2="13.1312" gradientUnits="userSpaceOnUse">
<stop stop-color="#FED200"/>
<stop offset="1" stop-color="#F59815"/>
</linearGradient>
<linearGradient id="paint17_linear_3277_3158" x1="28.7243" y1="1.44309" x2="27.2909" y2="15.8839" gradientUnits="userSpaceOnUse">
<stop stop-color="#FD9B02"/>
<stop offset="1" stop-color="#FF7302"/>
</linearGradient>
<clipPath id="clip0_3277_3158">
<rect width="9.6853" height="9.6853" fill="white" transform="matrix(-0.963485 -0.267764 -0.267764 0.963485 10.9248 44.5933)"/>
</clipPath>
<clipPath id="clip1_3277_3158">
<rect width="12.9826" height="12.9826" fill="white" transform="matrix(-0.927547 0.373705 0.373705 0.927547 76.042 44)"/>
</clipPath>
<clipPath id="clip2_3277_3158">
<rect width="16.9717" height="16.9717" fill="white" transform="translate(20.6763) rotate(5.66836)"/>
</clipPath>
</defs>
</svg>
