<svg width="64" height="64" viewBox="0 0 64 64" fill="none" xmlns="http://www.w3.org/2000/svg">
<path d="M62 35.023C62 41.489 58.7367 47.1624 53.8272 50.3649C50.4119 52.5921 47.2409 55.1893 44.266 58.0152C43.4406 58.7992 38.3038 58.7992 34.625 58.7992C32.1309 58.7992 27.125 58.7992 27.125 58.7992C23.8482 56.9052 20.9648 56.931 17.2495 56.4107C10.819 55.5115 2.00003 51.8475 2.00003 38.8786C2.00003 34.2937 3.45191 30.0854 6.04798 26.8176C8.24406 24.0527 10.0632 20.9939 11.6151 17.7936C15.2323 10.3241 22.6782 5.19922 31.2799 5.19922C38.2758 5.19922 44.5083 8.58893 48.537 13.8727C50.4292 16.3546 52.5734 18.6274 55.0137 20.5259C59.254 23.8285 61.9981 29.0927 61.9981 35.0209L62 35.023Z" fill="#FFF5F6"/>
<path d="M42.6108 21.3992H26.2935C24.7916 21.3992 23.574 22.6168 23.574 24.1187V49.9544C23.574 51.4563 24.7916 52.6739 26.2935 52.6739H42.6108C44.1128 52.6739 45.3303 51.4563 45.3303 49.9544V24.1187C45.3303 22.6168 44.1128 21.3992 42.6108 21.3992Z" fill="url(#paint0_linear_3115_386764)"/>
<path d="M39.8912 25.4768H29.0131C28.2621 25.4768 27.6533 26.0856 27.6533 26.8366V30.9159C27.6533 31.6669 28.2621 32.2757 29.0131 32.2757H39.8912C40.6422 32.2757 41.251 31.6669 41.251 30.9159V26.8366C41.251 26.0856 40.6422 25.4768 39.8912 25.4768Z" fill="url(#paint1_linear_3115_386764)"/>
<path d="M29.0131 37.7132C29.764 37.7132 30.3728 37.1044 30.3728 36.3534C30.3728 35.6024 29.764 34.9937 29.0131 34.9937C28.2621 34.9937 27.6533 35.6024 27.6533 36.3534C27.6533 37.1044 28.2621 37.7132 29.0131 37.7132Z" fill="url(#paint2_linear_3115_386764)"/>
<path d="M34.4522 37.7132C35.2032 37.7132 35.812 37.1044 35.812 36.3534C35.812 35.6024 35.2032 34.9937 34.4522 34.9937C33.7013 34.9937 33.0925 35.6024 33.0925 36.3534C33.0925 37.1044 33.7013 37.7132 34.4522 37.7132Z" fill="url(#paint3_linear_3115_386764)"/>
<path d="M39.8912 37.7132C40.6422 37.7132 41.251 37.1044 41.251 36.3534C41.251 35.6024 40.6422 34.9937 39.8912 34.9937C39.1402 34.9937 38.5314 35.6024 38.5314 36.3534C38.5314 37.1044 39.1402 37.7132 39.8912 37.7132Z" fill="url(#paint4_linear_3115_386764)"/>
<path d="M29.0131 43.1524C29.764 43.1524 30.3728 42.5436 30.3728 41.7926C30.3728 41.0417 29.764 40.4329 29.0131 40.4329C28.2621 40.4329 27.6533 41.0417 27.6533 41.7926C27.6533 42.5436 28.2621 43.1524 29.0131 43.1524Z" fill="url(#paint5_linear_3115_386764)"/>
<path d="M34.4522 43.1524C35.2032 43.1524 35.812 42.5436 35.812 41.7926C35.812 41.0417 35.2032 40.4329 34.4522 40.4329C33.7013 40.4329 33.0925 41.0417 33.0925 41.7926C33.0925 42.5436 33.7013 43.1524 34.4522 43.1524Z" fill="url(#paint6_linear_3115_386764)"/>
<path d="M39.8912 43.1524C40.6422 43.1524 41.251 42.5436 41.251 41.7926C41.251 41.0417 40.6422 40.4329 39.8912 40.4329C39.1402 40.4329 38.5314 41.0417 38.5314 41.7926C38.5314 42.5436 39.1402 43.1524 39.8912 43.1524Z" fill="url(#paint7_linear_3115_386764)"/>
<path d="M29.0131 48.5916C29.764 48.5916 30.3728 47.9828 30.3728 47.2318C30.3728 46.4809 29.764 45.8721 29.0131 45.8721C28.2621 45.8721 27.6533 46.4809 27.6533 47.2318C27.6533 47.9828 28.2621 48.5916 29.0131 48.5916Z" fill="url(#paint8_linear_3115_386764)"/>
<path d="M34.4522 48.5916C35.2032 48.5916 35.812 47.9828 35.812 47.2318C35.812 46.4809 35.2032 45.8721 34.4522 45.8721C33.7013 45.8721 33.0925 46.4809 33.0925 47.2318C33.0925 47.9828 33.7013 48.5916 34.4522 48.5916Z" fill="url(#paint9_linear_3115_386764)"/>
<path d="M39.8912 48.5916C40.6422 48.5916 41.251 47.9828 41.251 47.2318C41.251 46.4809 40.6422 45.8721 39.8912 45.8721C39.1402 45.8721 38.5314 46.4809 38.5314 47.2318C38.5314 47.9828 39.1402 48.5916 39.8912 48.5916Z" fill="url(#paint10_linear_3115_386764)"/>
<path d="M23.4 30.3992C27.8183 30.3992 31.4 26.8174 31.4 22.3992C31.4 17.9809 27.8183 14.3992 23.4 14.3992C18.9817 14.3992 15.4 17.9809 15.4 22.3992C15.4 26.8174 18.9817 30.3992 23.4 30.3992Z" fill="url(#paint11_linear_3115_386764)"/>
<path d="M24.007 21.7212C23.8981 21.6749 23.7968 21.6312 23.7085 21.5883C23.6202 21.5455 23.4984 21.4906 23.3721 21.4366C22.6511 21.1289 22.2599 20.8846 22.2599 20.4817C22.2886 20.3379 22.3485 20.2044 22.4343 20.0931C22.5202 19.9818 22.6292 19.8962 22.7516 19.844C23.0978 19.6746 23.4799 19.6206 23.8525 19.6885C24.2251 19.7564 24.5725 19.9434 24.8535 20.2272C25.0162 20.362 25.2198 20.4185 25.4196 20.3842C25.6193 20.35 25.7988 20.2278 25.9185 20.0446C26.0382 19.8614 26.0884 19.6321 26.058 19.4072C26.0276 19.1823 25.9191 18.9803 25.7563 18.8455C25.2819 18.4488 24.7372 18.1716 24.1592 18.0329V17.2563C24.1592 17.029 24.079 16.811 23.9362 16.6502C23.7935 16.4895 23.5998 16.3992 23.3979 16.3992C23.196 16.3992 23.0024 16.4895 22.8597 16.6502C22.7169 16.811 22.6367 17.029 22.6367 17.2563V18.0732C22.4375 18.1308 22.2441 18.2115 22.0596 18.314C21.6824 18.5023 21.3589 18.8045 21.1248 19.1871C20.8907 19.5697 20.7553 20.0178 20.7335 20.4817C20.7335 22.1446 22.1479 22.7489 22.8278 23.0395C22.9267 23.0815 23.0166 23.1192 23.0912 23.1569C23.1993 23.2109 23.3241 23.2649 23.4596 23.3232C24.2064 23.6446 24.5398 23.8563 24.5398 24.266C24.511 24.4098 24.4509 24.5432 24.3651 24.6545C24.2793 24.7657 24.1704 24.8514 24.0481 24.9037C23.7019 25.073 23.3198 25.1268 22.9473 25.0589C22.5747 24.991 22.2273 24.8042 21.9462 24.5206C21.8657 24.4538 21.7743 24.4056 21.6772 24.3786C21.5801 24.3517 21.4793 24.3465 21.3804 24.3634C21.2815 24.3803 21.1866 24.419 21.101 24.4772C21.0154 24.5354 20.9409 24.6121 20.8816 24.7027C20.8223 24.7934 20.7795 24.8963 20.7555 25.0056C20.7316 25.115 20.727 25.2285 20.742 25.3398C20.757 25.4511 20.7913 25.558 20.8431 25.6544C20.8948 25.7508 20.9628 25.8347 21.0434 25.9015C21.5167 26.2973 22.0601 26.5738 22.6367 26.7123V27.542C22.6367 27.7694 22.7169 27.9874 22.8597 28.1481C23.0024 28.3089 23.196 28.3992 23.3979 28.3992C23.5998 28.3992 23.7935 28.3089 23.9362 28.1481C24.079 27.9874 24.1592 27.7694 24.1592 27.542V26.6677C24.3581 26.6107 24.5514 26.5314 24.7362 26.4312C25.1134 26.2428 25.4369 25.9406 25.671 25.558C25.905 25.1754 26.0405 24.7274 26.0624 24.2635C26.0624 22.6075 24.7225 22.0315 24.007 21.7212Z" fill="url(#paint12_linear_3115_386764)"/>
<g opacity="0.25">
<path d="M17.6439 48.8914C16.957 48.8914 16.4001 48.3342 16.4001 47.6469C16.4001 46.9595 16.957 46.4023 17.6439 46.4023C18.3309 46.4023 18.8878 46.9595 18.8878 47.6469C18.8878 48.3342 18.3309 48.8914 17.6439 48.8914Z" fill="#F48351"/>
<mask id="mask0_3115_386764" style="mask-type:luminance" maskUnits="userSpaceOnUse" x="16" y="46" width="3" height="3">
<path d="M17.6439 48.8882C16.9569 48.8882 16.4 48.331 16.4 47.6437C16.4 46.9564 16.9569 46.3992 17.6439 46.3992C18.3308 46.3992 18.8877 46.9564 18.8877 47.6437C18.8877 48.331 18.3308 48.8882 17.6439 48.8882Z" fill="white"/>
</mask>
<g mask="url(#mask0_3115_386764)">
<path d="M17.9826 48.5686C17.2956 48.5686 16.7388 48.0114 16.7388 47.3241C16.7388 46.6368 17.2956 46.0796 17.9826 46.0796C18.6696 46.0796 19.2264 46.6368 19.2264 47.3241C19.2264 48.0114 18.6696 48.5686 17.9826 48.5686Z" fill="#FF9F5B"/>
</g>
</g>
<g opacity="0.6">
<path d="M9.87526 43.3526C9.06054 43.3526 8.40008 42.6918 8.40008 41.8766C8.40008 41.0615 9.06054 40.4006 9.87526 40.4006C10.69 40.4006 11.3504 41.0615 11.3504 41.8766C11.3504 42.6918 10.69 43.3526 9.87526 43.3526Z" fill="#F48351"/>
<mask id="mask1_3115_386764" style="mask-type:luminance" maskUnits="userSpaceOnUse" x="8" y="40" width="4" height="4">
<path d="M9.8752 43.3511C9.06048 43.3511 8.40002 42.6903 8.40002 41.8751C8.40002 41.06 9.06048 40.3992 9.8752 40.3992C10.6899 40.3992 11.3504 41.06 11.3504 41.8751C11.3504 42.6903 10.6899 43.3511 9.8752 43.3511Z" fill="white"/>
</mask>
<g mask="url(#mask1_3115_386764)">
<path d="M10.2775 42.969C9.46282 42.969 8.80237 42.3082 8.80237 41.4931C8.80237 40.6779 9.46282 40.0171 10.2775 40.0171C11.0923 40.0171 11.7527 40.6779 11.7527 41.4931C11.7527 42.3082 11.0923 42.969 10.2775 42.969Z" fill="#FF9F5B"/>
</g>
</g>
<path d="M55.6206 35.8428C56.847 35.8428 57.8412 34.8481 57.8412 33.621C57.8412 32.3939 56.847 31.3992 55.6206 31.3992C54.3942 31.3992 53.4 32.3939 53.4 33.621C53.4 34.8481 54.3942 35.8428 55.6206 35.8428Z" fill="#F48351"/>
<mask id="mask2_3115_386764" style="mask-type:luminance" maskUnits="userSpaceOnUse" x="53" y="31" width="5" height="5">
<path d="M55.6207 35.8443C56.8471 35.8443 57.8413 34.8495 57.8413 33.6224C57.8413 32.3954 56.8471 31.4006 55.6207 31.4006C54.3943 31.4006 53.4001 32.3954 53.4001 33.6224C53.4001 34.8495 54.3943 35.8443 55.6207 35.8443Z" fill="white"/>
</mask>
<g mask="url(#mask2_3115_386764)">
<path d="M55.0147 35.2637C56.2411 35.2637 57.2353 34.269 57.2353 33.0419C57.2353 31.8148 56.2411 30.8201 55.0147 30.8201C53.7883 30.8201 52.7941 31.8148 52.7941 33.0419C52.7941 34.269 53.7883 35.2637 55.0147 35.2637Z" fill="#FF9F5B"/>
</g>
<defs>
<linearGradient id="paint0_linear_3115_386764" x1="23.438" y1="32.7492" x2="43.8142" y2="40.6807" gradientUnits="userSpaceOnUse">
<stop stop-color="#EA5D64"/>
<stop offset="1" stop-color="#C82735"/>
</linearGradient>
<linearGradient id="paint1_linear_3115_386764" x1="27.8899" y1="26.1336" x2="40.582" y2="31.438" gradientUnits="userSpaceOnUse">
<stop stop-color="#FF898D"/>
<stop offset="1" stop-color="#FE7276"/>
</linearGradient>
<linearGradient id="paint2_linear_3115_386764" x1="26.6756" y1="34.1016" x2="42.4367" y2="49.2849" gradientUnits="userSpaceOnUse">
<stop stop-color="white"/>
<stop offset="1" stop-color="#EDF2F0"/>
</linearGradient>
<linearGradient id="paint3_linear_3115_386764" x1="29.2946" y1="31.3848" x2="45.0544" y2="46.5667" gradientUnits="userSpaceOnUse">
<stop stop-color="white"/>
<stop offset="1" stop-color="#EDF2F0"/>
</linearGradient>
<linearGradient id="paint4_linear_3115_386764" x1="31.9121" y1="28.6666" x2="47.6732" y2="43.8498" gradientUnits="userSpaceOnUse">
<stop stop-color="white"/>
<stop offset="1" stop-color="#EDF2F0"/>
</linearGradient>
<linearGradient id="paint5_linear_3115_386764" x1="23.9588" y1="36.9233" x2="39.7199" y2="52.1065" gradientUnits="userSpaceOnUse">
<stop stop-color="white"/>
<stop offset="1" stop-color="#EDF2F0"/>
</linearGradient>
<linearGradient id="paint6_linear_3115_386764" x1="26.5764" y1="34.2065" x2="42.3376" y2="49.3883" gradientUnits="userSpaceOnUse">
<stop stop-color="white"/>
<stop offset="1" stop-color="#EDF2F0"/>
</linearGradient>
<linearGradient id="paint7_linear_3115_386764" x1="29.1939" y1="31.4883" x2="44.955" y2="46.6701" gradientUnits="userSpaceOnUse">
<stop stop-color="white"/>
<stop offset="1" stop-color="#EDF2F0"/>
</linearGradient>
<linearGradient id="paint8_linear_3115_386764" x1="21.2406" y1="39.7449" x2="37.0017" y2="54.9268" gradientUnits="userSpaceOnUse">
<stop stop-color="white"/>
<stop offset="1" stop-color="#EDF2F0"/>
</linearGradient>
<linearGradient id="paint9_linear_3115_386764" x1="23.8583" y1="37.0268" x2="39.6194" y2="52.21" gradientUnits="userSpaceOnUse">
<stop stop-color="white"/>
<stop offset="1" stop-color="#EDF2F0"/>
</linearGradient>
<linearGradient id="paint10_linear_3115_386764" x1="26.4771" y1="34.3099" x2="42.2382" y2="49.4918" gradientUnits="userSpaceOnUse">
<stop stop-color="white"/>
<stop offset="1" stop-color="#EDF2F0"/>
</linearGradient>
<linearGradient id="paint11_linear_3115_386764" x1="17.7432" y1="16.7424" x2="29.0568" y2="28.056" gradientUnits="userSpaceOnUse">
<stop stop-color="#FED200"/>
<stop offset="1" stop-color="#F59815"/>
</linearGradient>
<linearGradient id="paint12_linear_3115_386764" x1="20.5759" y1="19.2217" x2="26.8863" y2="24.8263" gradientUnits="userSpaceOnUse">
<stop stop-color="#FD9B02"/>
<stop offset="1" stop-color="#FF7302"/>
</linearGradient>
</defs>
</svg>
