<svg width="64" height="64" viewBox="0 0 64 64" fill="none" xmlns="http://www.w3.org/2000/svg">
<g clip-path="url(#clip0_3115_386694)">
<path d="M61.9999 35.023C61.9999 41.489 58.7365 47.1624 53.8271 50.3649C50.4118 52.5921 47.9999 55.9992 44.2658 58.0152C43.2641 58.556 39.1999 58.7992 35.5999 57.5992C33.1999 56.7992 27.5999 59.9992 27.5999 59.9992C23.5999 61.1992 20.9647 56.931 17.2494 56.4107C10.8188 55.5115 1.99988 51.8475 1.99988 38.8786C1.99988 34.2937 3.45175 30.0854 6.04782 26.8176C8.24391 24.0527 10.0631 20.9939 11.615 17.7936C15.2321 10.3241 22.6781 5.19922 31.2797 5.19922C38.2756 5.19922 44.5081 8.58893 48.5368 13.8727C50.4291 16.3546 52.5733 18.6274 55.0136 20.5259C59.2538 23.8285 61.998 29.0927 61.998 35.0209L61.9999 35.023Z" fill="#FFF5F6"/>
<g clip-path="url(#clip1_3115_386694)">
<path d="M2.02128 37.4116L5.16656 36.9453C5.18891 36.942 5.2117 36.9435 5.23346 36.9495C5.25523 36.9556 5.27548 36.9661 5.29293 36.9805L7.74663 39.0027C7.77072 39.0226 7.78853 39.049 7.79791 39.0788C7.80729 39.1085 7.80783 39.1404 7.79947 39.1705L6.84857 42.5921C6.84021 42.6222 6.82331 42.6492 6.79991 42.6698C6.77651 42.6905 6.74762 42.704 6.71674 42.7085L3.57146 43.1747C3.54912 43.1781 3.52632 43.1766 3.50455 43.1706C3.48278 43.1645 3.46253 43.154 3.44509 43.1396L0.991385 41.1174C0.967297 41.0975 0.949485 41.0711 0.940106 41.0413C0.930727 41.0116 0.930184 40.9797 0.938542 40.9496L1.88945 37.528C1.89781 37.4979 1.91471 37.4709 1.93811 37.4503C1.96151 37.4296 1.9904 37.4161 2.02128 37.4116Z" fill="url(#paint0_linear_3115_386694)"/>
<path d="M3.44514 43.1401L0.991433 41.1178C0.967344 41.098 0.949532 41.0716 0.940153 41.0418C0.930774 41.012 0.930231 40.9801 0.938589 40.9501L1.88949 37.5285C1.89785 37.4984 1.91476 37.4714 1.93816 37.4507C1.96156 37.43 1.99045 37.4166 2.02133 37.412L5.1666 36.9458C5.18896 36.9425 5.21175 36.9439 5.23352 36.95L3.50461 43.171C3.48284 43.165 3.46258 43.1544 3.44514 43.1401Z" fill="url(#paint1_linear_3115_386694)"/>
<path d="M4.4985 39.5922L1.92147 37.4684C1.9463 37.4373 1.98182 37.4166 2.0211 37.4103L5.16637 36.9441C5.18872 36.9408 5.21151 36.9422 5.23328 36.9483C5.25504 36.9543 5.2753 36.9649 5.29274 36.9792L7.74645 39.0015C7.77684 39.0271 7.79659 39.0632 7.80184 39.1026L4.4985 39.5922Z" fill="url(#paint2_linear_3115_386694)"/>
<path d="M5.95433 39.3772L3.33279 37.2167L3.76305 37.1529L6.38459 39.3135L5.95433 39.3772Z" fill="url(#paint3_linear_3115_386694)"/>
</g>
<path d="M39.3884 52.5758L34.8784 48.0658H23.0667C20.7692 48.0658 18.9 46.1966 18.9 43.8991V28.8991C18.9 26.6016 20.7692 24.7324 23.0667 24.7324H44.7334C47.0309 24.7324 48.9 26.6016 48.9 28.8991V43.8991C48.9 46.1966 47.0309 48.0658 44.7334 48.0658H42.2334V51.3974C42.2334 52.0741 41.83 52.6783 41.205 52.9374C40.9975 53.0233 40.78 53.0649 40.565 53.0649C40.1317 53.0649 39.7084 52.8949 39.3884 52.5758Z" fill="url(#paint4_linear_3115_386694)"/>
<path d="M20.5944 50.4087C20.3794 50.4087 20.1619 50.367 19.9544 50.2812C19.3294 50.022 18.9261 49.4178 18.9261 48.7412V45.4095H16.4261C14.1286 45.4095 12.2594 43.5403 12.2594 41.2428V26.2428C12.2594 23.9453 14.1286 22.0762 16.4261 22.0762H38.0927C40.3902 22.0762 42.2594 23.9453 42.2594 26.2428V41.2428C42.2594 43.5403 40.3902 45.4095 38.0927 45.4095H26.2811L21.7711 49.9195C21.4511 50.2387 21.0269 50.4087 20.5944 50.4087Z" fill="url(#paint5_linear_3115_386694)"/>
<path d="M20.7504 30.3992H18.2377C18.0155 30.3992 17.8025 30.4874 17.6454 30.6445C17.4883 30.8015 17.4001 31.0146 17.4001 31.2367V36.2622C17.399 36.3728 17.4199 36.4826 17.4615 36.5852C17.5031 36.6877 17.5646 36.781 17.6425 36.8597C17.7204 36.9383 17.8131 37.0007 17.9152 37.0433C18.0174 37.0859 18.127 37.1079 18.2376 37.1079C18.3483 37.1079 18.4579 37.0859 18.56 37.0433C18.6622 37.0007 18.7549 36.9383 18.8328 36.8597C18.9106 36.781 18.9722 36.6877 19.0138 36.5852C19.0554 36.4826 19.0763 36.3728 19.0752 36.2622V34.587H20.3316C20.4422 34.5881 20.552 34.5672 20.6546 34.5256C20.7571 34.484 20.8504 34.4225 20.9291 34.3446C21.0077 34.2667 21.0701 34.174 21.1127 34.0719C21.1553 33.9697 21.1773 33.8601 21.1773 33.7495C21.1773 33.6388 21.1553 33.5292 21.1127 33.4271C21.0701 33.3249 21.0077 33.2322 20.9291 33.1543C20.8504 33.0765 20.7571 33.0149 20.6546 32.9733C20.552 32.9317 20.4422 32.9108 20.3316 32.9119H19.0752V32.0743H20.7504C20.9711 32.0722 21.1821 31.983 21.3374 31.8261C21.4928 31.6693 21.5799 31.4575 21.5799 31.2367C21.5799 31.016 21.4928 30.8042 21.3374 30.6473C21.1821 30.4905 20.9711 30.4013 20.7504 30.3992Z" fill="url(#paint6_linear_3115_386694)"/>
<path d="M26.8405 32.4931C26.8398 31.9379 26.6189 31.4057 26.2264 31.0132C25.8338 30.6207 25.3016 30.3999 24.7465 30.3992H23.0714C22.8492 30.3992 22.6362 30.4874 22.4791 30.6445C22.322 30.8015 22.2338 31.0146 22.2338 31.2367V36.2622C22.2338 36.4843 22.322 36.6974 22.4791 36.8544C22.6362 37.0115 22.8492 37.0998 23.0714 37.0998C23.2935 37.0998 23.5066 37.0115 23.6636 36.8544C23.8207 36.6974 23.909 36.4843 23.909 36.2622V35.2606L25.2681 36.8137C25.3402 36.8978 25.4282 36.9667 25.527 37.0165C25.6259 37.0663 25.7336 37.0961 25.844 37.104C25.9545 37.1119 26.0653 37.0979 26.1703 37.0626C26.2753 37.0274 26.3722 36.9718 26.4555 36.8989C26.5388 36.826 26.6068 36.7373 26.6556 36.6379C26.7044 36.5385 26.733 36.4305 26.7398 36.32C26.7466 36.2095 26.7314 36.0988 26.6951 35.9942C26.6588 35.8896 26.6022 35.7932 26.5284 35.7107L25.4417 34.4685C25.8504 34.324 26.2043 34.0566 26.4547 33.7028C26.7052 33.3491 26.84 32.9265 26.8405 32.4931ZM24.7465 32.9119H23.909V32.0743H24.7465C24.802 32.0735 24.8571 32.0838 24.9085 32.1045C24.96 32.1252 25.0069 32.1559 25.0464 32.1949C25.0859 32.2339 25.1172 32.2803 25.1386 32.3315C25.16 32.3827 25.1711 32.4376 25.1711 32.4931C25.1711 32.5486 25.16 32.6035 25.1386 32.6547C25.1172 32.7059 25.0859 32.7523 25.0464 32.7913C25.0069 32.8303 24.96 32.861 24.9085 32.8817C24.8571 32.9024 24.802 32.9127 24.7465 32.9119Z" fill="url(#paint7_linear_3115_386694)"/>
<path d="M31.0107 32.0743C31.1213 32.0754 31.2311 32.0545 31.3337 32.0129C31.4362 31.9713 31.5295 31.9098 31.6082 31.8319C31.6868 31.754 31.7492 31.6613 31.7918 31.5592C31.8344 31.457 31.8564 31.3475 31.8564 31.2368C31.8564 31.1261 31.8344 31.0165 31.7918 30.9144C31.7492 30.8122 31.6868 30.7195 31.6082 30.6416C31.5295 30.5638 31.4362 30.5022 31.3337 30.4606C31.2311 30.419 31.1213 30.3981 31.0107 30.3992H28.4979C28.2758 30.3992 28.0628 30.4875 27.9057 30.6445C27.7487 30.8016 27.6604 31.0146 27.6604 31.2367V36.2622C27.6604 36.4843 27.7486 36.6974 27.9057 36.8544C28.0628 37.0115 28.2758 37.0998 28.4979 37.0998H31.0107C31.1213 37.1009 31.2311 37.08 31.3337 37.0384C31.4362 36.9968 31.5295 36.9353 31.6082 36.8574C31.6868 36.7795 31.7492 36.6868 31.7918 36.5846C31.8344 36.4825 31.8564 36.3729 31.8564 36.2622C31.8564 36.1516 31.8344 36.042 31.7918 35.9398C31.7492 35.8377 31.6868 35.745 31.6082 35.6671C31.5295 35.5892 31.4362 35.5277 31.3337 35.4861C31.2311 35.4445 31.1213 35.4236 31.0107 35.4247H29.3355V34.5871H30.5735C30.7943 34.5849 31.0052 34.4957 31.1605 34.3389C31.3159 34.1821 31.403 33.9702 31.403 33.7495C31.403 33.5288 31.3159 33.3169 31.1605 33.1601C31.0052 33.0033 30.7943 32.9141 30.5735 32.9119H29.3355V32.0743H31.0107Z" fill="url(#paint8_linear_3115_386694)"/>
<path d="M35.8268 35.4246H34.1516V34.587H35.3892C35.6099 34.5849 35.8209 34.4957 35.9762 34.3389C36.1315 34.182 36.2187 33.9702 36.2187 33.7495C36.2187 33.5287 36.1315 33.3169 35.9762 33.1601C35.8209 33.0032 35.6099 32.914 35.3892 32.9119H34.1516V32.0743H35.8268C36.0475 32.0722 36.2585 31.983 36.4138 31.8261C36.5691 31.6693 36.6563 31.4575 36.6563 31.2367C36.6563 31.016 36.5691 30.8042 36.4138 30.6473C36.2585 30.4905 36.0475 30.4013 35.8268 30.3992H33.314C33.0919 30.3992 32.8789 30.4874 32.7218 30.6445C32.5647 30.8015 32.4765 31.0146 32.4764 31.2367V36.2622C32.4764 36.4843 32.5647 36.6974 32.7218 36.8544C32.8789 37.0115 33.0919 37.0998 33.314 37.0998H35.8268C36.0475 37.0976 36.2585 37.0084 36.4138 36.8516C36.5691 36.6948 36.6563 36.4829 36.6563 36.2622C36.6563 36.0415 36.5691 35.8296 36.4138 35.6728C36.2585 35.516 36.0475 35.4268 35.8268 35.4246Z" fill="url(#paint9_linear_3115_386694)"/>
<g clip-path="url(#clip2_3115_386694)">
<path d="M50.4663 20.3134L53.432 17.2523C53.453 17.2305 53.4785 17.2134 53.5065 17.2021C53.5346 17.1908 53.5648 17.1855 53.595 17.1866L57.8545 17.3367C57.8963 17.3381 57.9368 17.3517 57.9711 17.3758C58.0054 17.3998 58.0319 17.4332 58.0476 17.472L59.8265 21.8874C59.8421 21.9263 59.8462 21.9688 59.8382 22.0099C59.8301 22.0509 59.8104 22.0888 59.7812 22.1188L56.8155 25.1799C56.7945 25.2017 56.7691 25.2188 56.741 25.2301C56.7129 25.2414 56.6827 25.2467 56.6525 25.2456L52.393 25.0955C52.3512 25.0941 52.3107 25.0805 52.2764 25.0565C52.2421 25.0324 52.2156 24.999 52.1999 24.9602L50.421 20.5448C50.4054 20.5059 50.4013 20.4634 50.4093 20.4224C50.4174 20.3813 50.4371 20.3434 50.4663 20.3134Z" fill="url(#paint10_linear_3115_386694)"/>
<path d="M56.6524 25.2457L52.3929 25.0956C52.3511 25.0941 52.3106 25.0805 52.2763 25.0565C52.2421 25.0325 52.2155 24.999 52.1999 24.9602L50.4209 20.5448C50.4053 20.506 50.4012 20.4635 50.4093 20.4224C50.4173 20.3813 50.4371 20.3435 50.4662 20.3134L53.4319 17.2523C53.453 17.2306 53.4784 17.2135 53.5065 17.2021L56.7409 25.2301C56.7128 25.2414 56.6827 25.2467 56.6524 25.2457Z" fill="url(#paint11_linear_3115_386694)"/>
<path d="M54.8811 20.6141L50.4076 20.4565C50.4087 20.4032 50.4296 20.3522 50.4662 20.3135L53.4319 17.2524C53.453 17.2306 53.4784 17.2135 53.5065 17.2022C53.5346 17.1909 53.5647 17.1856 53.595 17.1867L57.8545 17.3368C57.9077 17.3393 57.9582 17.3615 57.9959 17.3992L54.8811 20.6141Z" fill="url(#paint12_linear_3115_386694)"/>
<path d="M56.2538 19.1971L51.703 19.0368L52.1087 18.618L56.6595 18.7784L56.2538 19.1971Z" fill="url(#paint13_linear_3115_386694)"/>
</g>
<g clip-path="url(#clip3_3115_386694)">
<path d="M26.0863 8.67661L21.2432 5.92187C21.2088 5.90232 21.1707 5.89021 21.1313 5.8863C21.0919 5.88239 21.0521 5.88677 21.0145 5.89917L15.7244 7.64813C15.6725 7.66531 15.6266 7.69719 15.5924 7.7399C15.5582 7.7826 15.5372 7.83431 15.5318 7.88875L14.9171 14.0813C14.9117 14.1357 14.9222 14.1906 14.9473 14.2392C14.9725 14.2878 15.0112 14.328 15.0587 14.3551L19.9018 17.1098C19.9362 17.1294 19.9744 17.1415 20.0138 17.1454C20.0532 17.1493 20.0929 17.1449 20.1305 17.1325L25.4206 15.3836C25.4726 15.3664 25.5184 15.3345 25.5526 15.2918C25.5868 15.2491 25.6079 15.1974 25.6133 15.1429L26.2279 8.95041C26.2333 8.89596 26.2228 8.84112 26.1977 8.79253C26.1726 8.74393 26.1339 8.70367 26.0863 8.67661Z" fill="url(#paint14_linear_3115_386694)"/>
<path d="M20.1305 17.13L25.4206 15.3811C25.4725 15.3639 25.5184 15.332 25.5526 15.2893C25.5868 15.2466 25.6078 15.1949 25.6132 15.1405L26.2279 8.94793C26.2333 8.89348 26.2228 8.83864 26.1977 8.79005C26.1725 8.74145 26.1338 8.70119 26.0863 8.67413L21.2432 5.91939C21.2088 5.89984 21.1706 5.88771 21.1312 5.88379L20.0137 17.1429C20.0531 17.1468 20.0929 17.1424 20.1305 17.13Z" fill="url(#paint15_linear_3115_386694)"/>
<path d="M20.6563 10.6719L26.2124 8.83507C26.1915 8.76859 26.1465 8.71227 26.0864 8.67712L21.2433 5.92238C21.2088 5.90284 21.1707 5.89072 21.1313 5.88681C21.0919 5.8829 21.0521 5.88728 21.0146 5.89968L15.7244 7.64864C15.6585 7.67128 15.6034 7.71766 15.5699 7.77874L20.6563 10.6719Z" fill="url(#paint16_linear_3115_386694)"/>
<path d="M18.4146 9.39791L24.0665 7.52935L23.404 7.15252L17.7521 9.02108L18.4146 9.39791Z" fill="url(#paint17_linear_3115_386694)"/>
</g>
</g>
<defs>
<linearGradient id="paint0_linear_3115_386694" x1="-1.21712" y1="41.3043" x2="7.09228" y2="39.4535" gradientUnits="userSpaceOnUse">
<stop offset="0.19" stop-color="#FD9B02"/>
<stop offset="1" stop-color="#FF7302"/>
</linearGradient>
<linearGradient id="paint1_linear_3115_386694" x1="4.68374" y1="40.3168" x2="-0.848238" y2="35.9521" gradientUnits="userSpaceOnUse">
<stop stop-color="#FD9B02"/>
<stop offset="1" stop-color="#FF7302"/>
</linearGradient>
<linearGradient id="paint2_linear_3115_386694" x1="5.27149" y1="36.8108" x2="3.84872" y2="41.9303" gradientUnits="userSpaceOnUse">
<stop stop-color="#FED200"/>
<stop offset="1" stop-color="#F59815"/>
</linearGradient>
<linearGradient id="paint3_linear_3115_386694" x1="5.2763" y1="36.7624" x2="3.50231" y2="43.1457" gradientUnits="userSpaceOnUse">
<stop stop-color="#FD9B02"/>
<stop offset="1" stop-color="#FF7302"/>
</linearGradient>
<linearGradient id="paint4_linear_3115_386694" x1="28.075" y1="30.5741" x2="45.59" y2="48.0891" gradientUnits="userSpaceOnUse">
<stop stop-color="#E95C63"/>
<stop offset="1" stop-color="#CA2937"/>
</linearGradient>
<linearGradient id="paint5_linear_3115_386694" x1="15.2077" y1="21.6912" x2="38.3694" y2="44.8528" gradientUnits="userSpaceOnUse">
<stop stop-color="#FF898D"/>
<stop offset="1" stop-color="#FE7276"/>
</linearGradient>
<linearGradient id="paint6_linear_3115_386694" x1="35.5301" y1="26.8144" x2="16.1461" y2="34.5882" gradientUnits="userSpaceOnUse">
<stop stop-color="white"/>
<stop offset="1" stop-color="#F2EDED"/>
</linearGradient>
<linearGradient id="paint7_linear_3115_386694" x1="36.3957" y1="28.9727" x2="17.0117" y2="36.7465" gradientUnits="userSpaceOnUse">
<stop stop-color="white"/>
<stop offset="1" stop-color="#F2EDED"/>
</linearGradient>
<linearGradient id="paint8_linear_3115_386694" x1="37.1257" y1="30.7932" x2="17.7418" y2="38.567" gradientUnits="userSpaceOnUse">
<stop stop-color="white"/>
<stop offset="1" stop-color="#F2EDED"/>
</linearGradient>
<linearGradient id="paint9_linear_3115_386694" x1="37.7929" y1="32.4571" x2="18.409" y2="40.2309" gradientUnits="userSpaceOnUse">
<stop stop-color="white"/>
<stop offset="1" stop-color="#F2EDED"/>
</linearGradient>
<linearGradient id="paint10_linear_3115_386694" x1="50.196" y1="27.0955" x2="57.5261" y2="18.3499" gradientUnits="userSpaceOnUse">
<stop offset="0.19" stop-color="#FD9B02"/>
<stop offset="1" stop-color="#FF7302"/>
</linearGradient>
<linearGradient id="paint11_linear_3115_386694" x1="55.6675" y1="21.2321" x2="46.223" y2="21.1007" gradientUnits="userSpaceOnUse">
<stop stop-color="#FD9B02"/>
<stop offset="1" stop-color="#FF7302"/>
</linearGradient>
<linearGradient id="paint12_linear_3115_386694" x1="53.435" y1="17.0248" x2="56.0967" y2="23.6312" gradientUnits="userSpaceOnUse">
<stop stop-color="#FED200"/>
<stop offset="1" stop-color="#F59815"/>
</linearGradient>
<linearGradient id="paint13_linear_3115_386694" x1="53.4" y1="16.9685" x2="56.7188" y2="25.2058" gradientUnits="userSpaceOnUse">
<stop stop-color="#FD9B02"/>
<stop offset="1" stop-color="#FF7302"/>
</linearGradient>
<linearGradient id="paint14_linear_3115_386694" x1="28.9103" y1="17.0883" x2="16.5078" y2="8.79924" gradientUnits="userSpaceOnUse">
<stop offset="0.19" stop-color="#FD9B02"/>
<stop offset="1" stop-color="#FF7302"/>
</linearGradient>
<linearGradient id="paint15_linear_3115_386694" x1="19.896" y1="11.7327" x2="31.6995" y2="8.10747" gradientUnits="userSpaceOnUse">
<stop stop-color="#FD9B02"/>
<stop offset="1" stop-color="#FF7302"/>
</linearGradient>
<linearGradient id="paint16_linear_3115_386694" x1="21.156" y1="5.63796" x2="20.2363" y2="14.9034" gradientUnits="userSpaceOnUse">
<stop stop-color="#FED200"/>
<stop offset="1" stop-color="#F59815"/>
</linearGradient>
<linearGradient id="paint17_linear_3115_386694" x1="21.1792" y1="5.55565" x2="20.0326" y2="17.1083" gradientUnits="userSpaceOnUse">
<stop stop-color="#FD9B02"/>
<stop offset="1" stop-color="#FF7302"/>
</linearGradient>
<clipPath id="clip0_3115_386694">
<rect width="64" height="64" fill="white"/>
</clipPath>
<clipPath id="clip1_3115_386694">
<rect width="7.74824" height="7.74824" fill="white" transform="matrix(-0.963485 -0.267764 -0.267764 0.963485 8.94006 37.4739)"/>
</clipPath>
<clipPath id="clip2_3115_386694">
<rect width="10.3861" height="10.3861" fill="white" transform="matrix(-0.927547 0.373705 0.373705 0.927547 57.88 14.7402)"/>
</clipPath>
<clipPath id="clip3_3115_386694">
<rect width="13.5774" height="13.5774" fill="white" transform="translate(14.7411 4.39917) rotate(5.66836)"/>
</clipPath>
</defs>
</svg>
