<svg width="80" height="80" viewBox="0 0 80 80" fill="none" xmlns="http://www.w3.org/2000/svg">
<path d="M77.5 43.7798C77.5 51.8622 73.4208 58.954 67.284 62.9571C63.0149 65.7411 60 70 55.3324 72.52C54.0803 73.196 49 73.5 44.5 72C41.5 71 34.5 75 34.5 75C29.5 76.5 26.206 71.1647 21.5619 70.5143C13.5237 69.3904 2.5 64.8104 2.5 48.5993C2.5 42.8681 4.31485 37.6078 7.55993 33.523C10.305 30.0669 12.579 26.2434 14.5188 22.243C19.0403 12.9061 28.3477 6.5 39.0998 6.5C47.8447 6.5 55.6353 10.7371 60.6712 17.3419C63.0365 20.4442 65.7167 23.2853 68.7671 25.6583C74.0674 29.7866 77.4976 36.3668 77.4976 43.7771L77.5 43.7798Z" fill="#FFF5F6"/>
<path d="M24.3027 55.5158C27.5104 55.5158 30.1108 52.9154 30.1108 49.7077C30.1108 46.5 27.5104 43.8997 24.3027 43.8997C21.095 43.8997 18.4946 46.5 18.4946 49.7077C18.4946 52.9154 21.095 55.5158 24.3027 55.5158Z" fill="url(#paint0_linear_3277_3994)"/>
<path d="M30.64 70.2988H17.9678C16.2212 70.2988 14.7998 68.8774 14.7998 67.1308V63.9628C14.7998 59.3047 18.5898 55.5146 23.2479 55.5146H25.3599C30.018 55.5146 33.808 59.3047 33.808 63.9628V67.1308C33.808 68.8774 32.3866 70.2988 30.64 70.2988Z" fill="url(#paint1_linear_3277_3994)"/>
<path d="M55.5039 55.5158C58.7116 55.5158 61.3119 52.9154 61.3119 49.7077C61.3119 46.5 58.7116 43.8997 55.5039 43.8997C52.2962 43.8997 49.6958 46.5 49.6958 49.7077C49.6958 52.9154 52.2962 55.5158 55.5039 55.5158Z" fill="url(#paint2_linear_3277_3994)"/>
<path d="M61.8397 70.2988H49.1676C47.4209 70.2988 45.9995 68.8774 45.9995 67.1308V63.9628C45.9995 59.3047 49.7895 55.5146 54.4476 55.5146H56.5596C61.2177 55.5146 65.0077 59.3047 65.0077 63.9628V67.1308C65.0077 68.8774 63.5864 70.2988 61.8397 70.2988Z" fill="url(#paint3_linear_3277_3994)"/>
<path d="M40 56.2512C43.797 56.2512 46.875 53.1732 46.875 49.3762C46.875 45.5793 43.797 42.5012 40 42.5012C36.203 42.5012 33.125 45.5793 33.125 49.3762C33.125 53.1732 36.203 56.2512 40 56.2512Z" fill="url(#paint4_linear_3277_3994)"/>
<path d="M47.5 73.751H32.5C30.4325 73.751 28.75 72.0685 28.75 70.001V66.251C28.75 60.7372 33.2363 56.251 38.75 56.251H41.25C46.7638 56.251 51.25 60.7372 51.25 66.251V70.001C51.25 72.0685 49.5675 73.751 47.5 73.751Z" fill="url(#paint5_linear_3277_3994)"/>
<path d="M58.1242 38.3539L55.108 39.4264C54.2517 39.7301 53.358 39.0814 53.383 38.1726L53.4705 34.9726L51.518 32.4351C50.9642 31.7151 51.3055 30.6639 52.1767 30.4064L55.248 29.5014L57.058 26.8601C57.5717 26.1114 58.6767 26.1114 59.1905 26.8601L61.0005 29.5014L64.0717 30.4064C64.943 30.6626 65.2842 31.7151 64.7305 32.4351L62.778 34.9726L62.8655 38.1726C62.8905 39.0801 61.9955 39.7301 61.1405 39.4264L58.1242 38.3539Z" fill="url(#paint6_linear_3277_3994)"/>
<path d="M21.8762 38.3539L18.8599 39.4264C18.0037 39.7301 17.1099 39.0814 17.1349 38.1726L17.2224 34.9726L15.2699 32.4351C14.7162 31.7151 15.0574 30.6639 15.9287 30.4064L18.9999 29.5014L20.8099 26.8601C21.3237 26.1114 22.4287 26.1114 22.9424 26.8601L24.7524 29.5014L27.8237 30.4064C28.6949 30.6626 29.0362 31.7151 28.4824 32.4351L26.5299 34.9726L26.6174 38.1726C26.6424 39.0801 25.7474 39.7301 24.8924 39.4264L21.8762 38.3539Z" fill="url(#paint7_linear_3277_3994)"/>
<path d="M39.9992 35.5419L36.423 36.8131C35.408 37.1744 34.348 36.4031 34.378 35.3269L34.4817 31.5331L32.1667 28.5244C31.5105 27.6706 31.9155 26.4244 32.948 26.1194L36.5892 25.0456L38.7355 21.9144C39.3442 21.0256 40.6555 21.0256 41.2642 21.9144L43.4105 25.0456L47.0517 26.1194C48.0842 26.4244 48.4892 27.6706 47.833 28.5244L45.518 31.5331L45.6217 35.3269C45.6517 36.4031 44.5905 37.1744 43.5767 36.8131L39.9992 35.5419Z" fill="url(#paint8_linear_3277_3994)"/>
<defs>
<linearGradient id="paint0_linear_3277_3994" x1="20.1959" y1="45.6009" x2="28.4095" y2="53.8146" gradientUnits="userSpaceOnUse">
<stop stop-color="#FFA1AE"/>
<stop offset="0.336" stop-color="#FF9AA8"/>
<stop offset="0.636" stop-color="#FF8195"/>
<stop offset="0.921" stop-color="#FA6278"/>
<stop offset="1" stop-color="#E94153"/>
</linearGradient>
<linearGradient id="paint1_linear_3277_3994" x1="17.9773" y1="58.1283" x2="30.6717" y2="70.8226" gradientUnits="userSpaceOnUse">
<stop stop-color="#FFA1AE"/>
<stop offset="1" stop-color="#E23E50"/>
</linearGradient>
<linearGradient id="paint2_linear_3277_3994" x1="51.397" y1="45.6009" x2="59.6107" y2="53.8146" gradientUnits="userSpaceOnUse">
<stop stop-color="#FFA1AE"/>
<stop offset="0.336" stop-color="#FF9AA8"/>
<stop offset="0.636" stop-color="#FF8195"/>
<stop offset="0.921" stop-color="#FA6278"/>
<stop offset="1" stop-color="#E94153"/>
</linearGradient>
<linearGradient id="paint3_linear_3277_3994" x1="49.1771" y1="58.1283" x2="61.8714" y2="70.8226" gradientUnits="userSpaceOnUse">
<stop stop-color="#FFA1AE"/>
<stop offset="1" stop-color="#E23E50"/>
</linearGradient>
<linearGradient id="paint4_linear_3277_3994" x1="35.1388" y1="44.515" x2="44.8613" y2="54.2375" gradientUnits="userSpaceOnUse">
<stop stop-color="#FFA1AE"/>
<stop offset="0.336" stop-color="#FF9AA8"/>
<stop offset="0.636" stop-color="#FF8195"/>
<stop offset="0.921" stop-color="#FA6278"/>
<stop offset="1" stop-color="#E94153"/>
</linearGradient>
<linearGradient id="paint5_linear_3277_3994" x1="32.5113" y1="59.3447" x2="47.5375" y2="74.371" gradientUnits="userSpaceOnUse">
<stop stop-color="#FFA1AE"/>
<stop offset="1" stop-color="#E23E50"/>
</linearGradient>
<linearGradient id="paint6_linear_3277_3994" x1="53.3117" y1="29.0476" x2="62.9367" y2="38.6739" gradientUnits="userSpaceOnUse">
<stop stop-color="#FED200"/>
<stop offset="1" stop-color="#F59815"/>
</linearGradient>
<linearGradient id="paint7_linear_3277_3994" x1="17.0637" y1="29.0476" x2="26.6887" y2="38.6739" gradientUnits="userSpaceOnUse">
<stop stop-color="#FED200"/>
<stop offset="1" stop-color="#F59815"/>
</linearGradient>
<linearGradient id="paint8_linear_3277_3994" x1="34.293" y1="24.5094" x2="45.7055" y2="35.9206" gradientUnits="userSpaceOnUse">
<stop stop-color="#FED200"/>
<stop offset="1" stop-color="#F59815"/>
</linearGradient>
</defs>
</svg>
