<svg width="80" height="80" viewBox="0 0 80 80" fill="none" xmlns="http://www.w3.org/2000/svg">
<path d="M78 43.2798C78 51.3622 73.8664 58.454 67.6478 62.4571C63.3218 65.2411 59.3051 68.4876 55.5369 72.02C54.4914 73 47.9847 73 43.325 73C40.1657 73 33.825 73 33.825 73C29.6744 70.6324 26.0221 70.6647 21.316 70.0143C13.1707 68.8904 2 64.3104 2 48.0993C2 42.3681 3.83904 37.1078 7.1274 33.023C9.90911 29.5669 12.2134 25.7434 14.1791 21.743C18.7609 12.4061 28.1924 6 39.0878 6C47.9493 6 55.8438 10.2371 60.9468 16.8419C63.3437 19.9442 66.0596 22.7853 69.1507 25.1583C74.5217 29.2866 77.9976 35.8668 77.9976 43.2771L78 43.2798Z" fill="#FFF5F6"/>
<g clip-path="url(#clip0_3287_390666)">
<g filter="url(#filter0_f_3287_390666)">
<path d="M23.9402 28.5862H54.0597C56.9375 28.5862 59.2758 30.9219 59.2758 33.8023V63.9218C59.2758 66.7996 56.9402 69.1379 54.0597 69.1379H23.9402C21.0625 69.1379 18.7241 66.8022 18.7241 63.9218V33.7917C18.7241 30.9139 21.0598 28.5862 23.9402 28.5862Z" fill="url(#paint0_linear_3287_390666)"/>
</g>
<path d="M25.918 31.749C23.2358 25.8492 26.9225 21.3983 30.6255 19.9237V19.933C30.671 19.3613 30.7456 18.8468 30.8238 18.414C30.9743 17.5915 31.6965 17 32.5341 17H43.509C50.3375 17 54.8186 24.9637 52.2823 31.9357L50.5486 36.7038H28.1708L25.9191 31.7502L25.918 31.749Z" fill="url(#paint1_linear_3287_390666)"/>
<path d="M55.3334 73.001H22.6668C20.9308 73.001 19.2963 72.2333 18.1844 70.894C17.0703 69.5535 16.6153 67.8023 16.9349 66.0896L18.5928 57.2568C19.1656 54.1675 21.4184 51.7256 24.4693 50.8868L32.5578 48.683C36.7706 47.5338 41.2284 47.5338 45.4436 48.683L53.5298 50.8868H53.5321C56.5829 51.7256 58.8358 54.1675 59.4098 57.2591L61.0653 66.0885C61.3849 67.8011 60.9311 69.5523 59.8169 70.894C58.7051 72.2333 57.0694 73.001 55.3334 73.001Z" fill="url(#paint2_linear_3287_390666)"/>
<path opacity="0.5" d="M37.8335 54.3346H40.1668V73.0013H37.8335V54.3346Z" fill="url(#paint3_linear_3287_390666)"/>
<path d="M30.8332 63.6679H27.3332C26.688 63.6679 26.1665 63.1453 26.1665 62.5013C26.1665 61.8573 26.688 61.3346 27.3332 61.3346H30.8332C31.4783 61.3346 31.9998 61.8573 31.9998 62.5013C31.9998 63.1453 31.4783 63.6679 30.8332 63.6679Z" fill="url(#paint4_linear_3287_390666)"/>
<path d="M36.6667 47.3346H41.3333C45.8437 47.3346 49.5 50.9909 49.5 55.5013C49.5 56.7904 48.4558 57.8346 47.1667 57.8346H30.8333C29.5442 57.8346 28.5 56.7904 28.5 55.5013C28.5 50.9909 32.1563 47.3346 36.6667 47.3346Z" fill="url(#paint5_linear_3287_390666)"/>
<path d="M33.1665 45.0453V51.9986C33.1665 55.2198 35.7787 57.8319 38.9998 57.8319C42.221 57.8319 44.8332 55.2198 44.8332 51.9986V45.0453H33.1665Z" fill="url(#paint6_linear_3287_390666)"/>
<path d="M49.5012 45.0013H43.6667C43.0215 45.0013 42.5 44.4786 42.5 43.8346C42.5 43.1906 43.0215 42.6679 43.6667 42.6679H49.5012C50.1452 42.6679 50.6678 42.1441 50.6678 41.5013V38.0013C50.6678 37.3573 51.1893 36.8346 51.8345 36.8346C52.4797 36.8346 53.0012 37.3573 53.0012 38.0013V41.5013C53.0012 43.4309 51.4308 45.0013 49.5012 45.0013Z" fill="url(#paint7_linear_3287_390666)"/>
<path d="M50.6665 40.3333H48.3332C47.688 40.3333 47.1665 39.8107 47.1665 39.1667V32.1667C47.1665 31.5227 47.688 31 48.3332 31H50.6665C52.5962 31 54.1665 32.5703 54.1665 34.5V36.8333C54.1665 38.763 52.5962 40.3333 50.6665 40.3333Z" fill="url(#paint8_linear_3287_390666)"/>
<path d="M27.6665 40.3333H29.9998C30.645 40.3333 31.1665 39.8107 31.1665 39.1667V32.1667C31.1665 31.5227 30.645 31 29.9998 31H27.6665C25.7368 31 24.1665 32.5703 24.1665 34.5V36.8333C24.1665 38.763 25.7368 40.3333 27.6665 40.3333Z" fill="url(#paint9_linear_3287_390666)"/>
<path d="M28.5 40.3333V32.1667C28.5 29.5895 30.5895 27.5 33.1667 27.5H44.8333C47.4105 27.5 49.5 29.5895 49.5 32.1667V40.3333C49.5 42.5745 48.6098 44.7235 47.0255 46.3078L44.9757 48.3577C43.3913 49.942 41.2423 50.8322 39.0012 50.8322C36.76 50.8322 34.611 49.942 33.0267 48.3577L30.9768 46.3078C29.3925 44.7235 28.5023 42.5745 28.5023 40.3333H28.5Z" fill="url(#paint10_linear_3287_390666)"/>
<path d="M49.5012 44.9987H43.6667C43.0215 44.9987 42.5 44.4761 42.5 43.8321C42.5 43.1881 43.0215 42.6654 43.6667 42.6654H49.5012V44.9987Z" fill="url(#paint11_linear_3287_390666)"/>
<path d="M42.5002 41.5H40.1668C38.8782 41.5 37.8335 42.5447 37.8335 43.8333C37.8335 45.122 38.8782 46.1667 40.1668 46.1667H42.5002C43.7888 46.1667 44.8335 45.122 44.8335 43.8333C44.8335 42.5447 43.7888 41.5 42.5002 41.5Z" fill="url(#paint12_linear_3287_390666)"/>
<g opacity="0.6">
<path d="M60.844 50.6899C61.8624 50.6899 62.6879 49.8639 62.6879 48.845C62.6879 47.826 61.8624 47 60.844 47C59.8256 47 59 47.826 59 48.845C59 49.8639 59.8256 50.6899 60.844 50.6899Z" fill="#F48351"/>
<mask id="mask0_3287_390666" style="mask-type:luminance" maskUnits="userSpaceOnUse" x="59" y="47" width="4" height="4">
<path d="M60.844 50.6899C61.8624 50.6899 62.6879 49.8639 62.6879 48.845C62.6879 47.826 61.8624 47 60.844 47C59.8256 47 59 47.826 59 48.845C59 49.8639 59.8256 50.6899 60.844 50.6899Z" fill="white"/>
</mask>
<g mask="url(#mask0_3287_390666)">
<path d="M60.341 50.2111C61.3594 50.2111 62.185 49.3851 62.185 48.3661C62.185 47.3472 61.3594 46.5211 60.341 46.5211C59.3226 46.5211 58.4971 47.3472 58.4971 48.3661C58.4971 49.3851 59.3226 50.2111 60.341 50.2111Z" fill="#FF9F5B"/>
</g>
</g>
<g opacity="0.25">
<path d="M15.5548 31.1113C16.4135 31.1113 17.1096 30.4148 17.1096 29.5556C17.1096 28.6965 16.4135 28 15.5548 28C14.6961 28 14 28.6965 14 29.5556C14 30.4148 14.6961 31.1113 15.5548 31.1113Z" fill="#F48351"/>
<mask id="mask1_3287_390666" style="mask-type:luminance" maskUnits="userSpaceOnUse" x="14" y="28" width="4" height="4">
<path d="M15.5548 31.1113C16.4135 31.1113 17.1096 30.4148 17.1096 29.5556C17.1096 28.6965 16.4135 28 15.5548 28C14.6961 28 14 28.6965 14 29.5556C14 30.4148 14.6961 31.1113 15.5548 31.1113Z" fill="white"/>
</mask>
<g mask="url(#mask1_3287_390666)">
<path d="M15.1315 30.7078C15.9902 30.7078 16.6863 30.0113 16.6863 29.1521C16.6863 28.293 15.9902 27.5965 15.1315 27.5965C14.2728 27.5965 13.5767 28.293 13.5767 29.1521C13.5767 30.0113 14.2728 30.7078 15.1315 30.7078Z" fill="#FF9F5B"/>
</g>
</g>
</g>
<path d="M13.3796 43.5522H18.5298H19.8949C23.3669 43.5522 26.2076 46.3858 26.2076 49.849C26.2076 53.3123 23.3669 56.1458 19.8949 56.1458H17.8754H15.4556C15.2451 56.1458 15.0732 56.3173 15.0732 56.5272V58.7362C15.0732 58.9845 14.8012 59.1432 14.5856 59.0152C13.3667 58.3062 12.7637 57.3207 12.4635 56.4888C12.3711 56.2303 12.1581 56.0306 11.8912 55.9667C9.13006 55.296 7.06689 52.8003 7.06689 49.849C7.06689 46.3858 9.90759 43.5522 13.3796 43.5522Z" fill="url(#paint13_linear_3287_390666)"/>
<path d="M21.9221 49.0789C22.3917 49.0789 22.7715 49.4578 22.7715 49.9262C22.7715 50.3946 22.3917 50.7735 21.9221 50.7735C21.4525 50.7735 21.0728 50.3946 21.0728 49.9262C21.0728 49.4578 21.4525 49.0789 21.9221 49.0789Z" fill="white"/>
<path d="M18.5247 49.0789C18.9943 49.0789 19.3741 49.4578 19.3741 49.9262C19.3741 50.3946 18.9943 50.7735 18.5247 50.7735C18.0551 50.7735 17.6753 50.3946 17.6753 49.9262C17.6753 49.4578 18.0551 49.0789 18.5247 49.0789Z" fill="white"/>
<path d="M15.1297 49.0789C15.5993 49.0789 15.979 49.4578 15.979 49.9262C15.979 50.3946 15.5993 50.7735 15.1297 50.7735C14.6601 50.7735 14.2803 50.3946 14.2803 49.9262C14.2803 49.4578 14.6601 49.0789 15.1297 49.0789Z" fill="white"/>
<path d="M11.7346 49.0789C12.2042 49.0789 12.584 49.4578 12.584 49.9262C12.584 50.3946 12.2042 50.7735 11.7346 50.7735C11.265 50.7735 10.8853 50.3946 10.8853 49.9262C10.8853 49.4578 11.265 49.0789 11.7346 49.0789Z" fill="white"/>
<path d="M74.7327 39.0404C76.2861 39.0404 77.5455 37.7784 77.5455 36.2217C77.5455 34.665 76.2861 33.403 74.7327 33.403C73.1792 33.403 71.9199 34.665 71.9199 36.2217C71.9199 37.7784 73.1792 39.0404 74.7327 39.0404Z" fill="#F48351"/>
<mask id="mask2_3287_390666" style="mask-type:luminance" maskUnits="userSpaceOnUse" x="71" y="33" width="7" height="7">
<path d="M74.7327 39.0404C76.2861 39.0404 77.5455 37.7784 77.5455 36.2217C77.5455 34.665 76.2861 33.403 74.7327 33.403C73.1792 33.403 71.9199 34.665 71.9199 36.2217C71.9199 37.7784 73.1792 39.0404 74.7327 39.0404Z" fill="white"/>
</mask>
<g mask="url(#mask2_3287_390666)">
<path d="M73.9651 38.303C75.5186 38.303 76.7779 37.041 76.7779 35.4843C76.7779 33.9276 75.5186 32.6656 73.9651 32.6656C72.4117 32.6656 71.1523 33.9276 71.1523 35.4843C71.1523 37.041 72.4117 38.303 73.9651 38.303Z" fill="#FF9F5B"/>
</g>
<path d="M59.2568 15.1343H54.3655C51.7591 15.1343 49.6265 17.2616 49.6265 19.8615C49.6265 22.4615 51.7591 24.5887 54.3655 24.5887H57.6983C57.8563 24.5887 57.9854 24.7174 57.9854 24.875V26.5334C57.9854 26.7198 58.1896 26.8389 58.3514 26.7428C59.2665 26.2105 59.7192 25.4707 59.9446 24.8462C60.0139 24.6521 60.1738 24.5022 60.3742 24.4542C62.447 23.9507 63.9959 22.0771 63.9959 19.8615C63.9959 17.2616 61.8633 15.1343 59.2568 15.1343Z" fill="url(#paint14_linear_3287_390666)"/>
<path d="M53.4814 19.9189C53.4814 20.2706 53.1963 20.555 52.8437 20.555C52.4912 20.555 52.2061 20.2706 52.2061 19.9189C52.2061 19.5673 52.4912 19.2829 52.8437 19.2829C53.1963 19.2829 53.4814 19.5673 53.4814 19.9189Z" fill="white"/>
<path d="M56.0302 19.9189C56.0302 20.2706 55.7451 20.555 55.3925 20.555C55.04 20.555 54.7549 20.2706 54.7549 19.9189C54.7549 19.5673 55.04 19.2829 55.3925 19.2829C55.7451 19.2829 56.0302 19.5673 56.0302 19.9189Z" fill="white"/>
<path d="M58.581 19.9189C58.581 20.2706 58.2959 20.555 57.9433 20.555C57.5908 20.555 57.3057 20.2706 57.3057 19.9189C57.3057 19.5673 57.5908 19.2829 57.9433 19.2829C58.2959 19.2829 58.581 19.5673 58.581 19.9189Z" fill="white"/>
<path d="M61.1293 19.9189C61.1293 20.2706 60.8442 20.555 60.4917 20.555C60.1391 20.555 59.854 20.2706 59.854 19.9189C59.854 19.5673 60.1391 19.2829 60.4917 19.2829C60.8442 19.2829 61.1293 19.5673 61.1293 19.9189Z" fill="white"/>
<defs>
<filter id="filter0_f_3287_390666" x="10.7241" y="20.5862" width="56.5518" height="56.5517" filterUnits="userSpaceOnUse" color-interpolation-filters="sRGB">
<feFlood flood-opacity="0" result="BackgroundImageFix"/>
<feBlend mode="normal" in="SourceGraphic" in2="BackgroundImageFix" result="shape"/>
<feGaussianBlur stdDeviation="4" result="effect1_foregroundBlur_3287_390666"/>
</filter>
<linearGradient id="paint0_linear_3287_390666" x1="38.9987" y1="73" x2="38.9987" y2="38.2414" gradientUnits="userSpaceOnUse">
<stop stop-color="#F8A07E"/>
<stop offset="1" stop-color="white"/>
</linearGradient>
<linearGradient id="paint1_linear_3287_390666" x1="24.6428" y1="20.5023" x2="49.3878" y2="33.3438" gradientUnits="userSpaceOnUse">
<stop stop-color="#3E4154"/>
<stop offset="1" stop-color="#1B2129"/>
</linearGradient>
<linearGradient id="paint2_linear_3287_390666" x1="39.0001" y1="49.1403" x2="39.0001" y2="73.3218" gradientUnits="userSpaceOnUse">
<stop stop-color="#F77075"/>
<stop offset="1" stop-color="#C31E2D"/>
</linearGradient>
<linearGradient id="paint3_linear_3287_390666" x1="39.0002" y1="57.3889" x2="39.0002" y2="72.6618" gradientUnits="userSpaceOnUse">
<stop stop-color="#FBA9AC"/>
<stop offset="1" stop-color="#FA5D6B"/>
</linearGradient>
<linearGradient id="paint4_linear_3287_390666" x1="26.2167" y1="61.3264" x2="31.7677" y2="63.6014" gradientUnits="userSpaceOnUse">
<stop stop-color="white"/>
<stop offset="1" stop-color="#DADFE0"/>
</linearGradient>
<linearGradient id="paint5_linear_3287_390666" x1="39" y1="48.6949" x2="39" y2="57.4379" gradientUnits="userSpaceOnUse">
<stop stop-color="#FE6C70"/>
<stop offset="1" stop-color="#FF8D91"/>
</linearGradient>
<linearGradient id="paint6_linear_3287_390666" x1="33.9307" y1="47.8744" x2="44.6313" y2="53.0906" gradientUnits="userSpaceOnUse">
<stop stop-color="#F1D2BD"/>
<stop offset="1" stop-color="#FEB592"/>
</linearGradient>
<linearGradient id="paint7_linear_3287_390666" x1="47.75" y1="39.4654" x2="47.75" y2="44.7329" gradientUnits="userSpaceOnUse">
<stop stop-color="#E1DADA"/>
<stop offset="1" stop-color="#BFB8B8"/>
</linearGradient>
<linearGradient id="paint8_linear_3287_390666" x1="50.6665" y1="31.3045" x2="50.6665" y2="40.4127" gradientUnits="userSpaceOnUse">
<stop stop-color="#FF8D91"/>
<stop offset="1" stop-color="#C31E2D"/>
</linearGradient>
<linearGradient id="paint9_linear_3287_390666" x1="27.6665" y1="31.3045" x2="27.6665" y2="40.4127" gradientUnits="userSpaceOnUse">
<stop stop-color="#FF8D91"/>
<stop offset="1" stop-color="#C31E2D"/>
</linearGradient>
<linearGradient id="paint10_linear_3287_390666" x1="39" y1="28.228" x2="39" y2="50.9477" gradientUnits="userSpaceOnUse">
<stop stop-color="#F1D2BD"/>
<stop offset="0.314" stop-color="#F2CFB9"/>
<stop offset="0.608" stop-color="#F5C7AD"/>
<stop offset="0.894" stop-color="#FBBB9B"/>
<stop offset="1" stop-color="#FEB592"/>
</linearGradient>
<linearGradient id="paint11_linear_3287_390666" x1="46" y1="16.9987" x2="46" y2="44.7304" gradientUnits="userSpaceOnUse">
<stop stop-color="#C6CBCC"/>
<stop offset="1" stop-color="#9FA5A6"/>
</linearGradient>
<linearGradient id="paint12_linear_3287_390666" x1="41.3335" y1="41.381" x2="41.3335" y2="45.6638" gradientUnits="userSpaceOnUse">
<stop stop-color="#FF8D91"/>
<stop offset="1" stop-color="#C31E2D"/>
</linearGradient>
<linearGradient id="paint13_linear_3287_390666" x1="23.3079" y1="57.7968" x2="7.91321" y2="39.3623" gradientUnits="userSpaceOnUse">
<stop stop-color="#FD8C02"/>
<stop offset="0.39" stop-color="#FD9102"/>
<stop offset="0.76" stop-color="#FBBF07"/>
<stop offset="1" stop-color="#FCC604"/>
</linearGradient>
<linearGradient id="paint14_linear_3287_390666" x1="63.9323" y1="26.2759" x2="49.0399" y2="12.795" gradientUnits="userSpaceOnUse">
<stop stop-color="#FE8802"/>
<stop offset="0.39" stop-color="#FD9102"/>
<stop offset="0.76" stop-color="#FBBF07"/>
<stop offset="1" stop-color="#FCC604"/>
</linearGradient>
<clipPath id="clip0_3287_390666">
<rect width="56" height="56" fill="white" transform="translate(11 17)"/>
</clipPath>
</defs>
</svg>
