<svg viewBox="0 0 20 21" xmlns="http://www.w3.org/2000/svg" fill="#e5103f">
  <path
    d="M14.1666 3.04199H5.83329C3.33329 3.04199 1.66663 4.29199 1.66663 7.20866V13.042C1.66663 15.9587 3.33329 17.2087 5.83329 17.2087H14.1666C16.6666 17.2087 18.3333 15.9587 18.3333 13.042V7.20866C18.3333 4.29199 16.6666 3.04199 14.1666 3.04199ZM14.5583 8.11699L11.95 10.2003C11.4 10.642 10.7 10.8587 9.99996 10.8587C9.29996 10.8587 8.59163 10.642 8.04996 10.2003L5.44163 8.11699C5.17496 7.90033 5.13329 7.50033 5.34163 7.23366C5.55829 6.96699 5.94996 6.91699 6.21663 7.13366L8.82496 9.21699C9.45829 9.72533 10.5333 9.72533 11.1666 9.21699L13.775 7.13366C14.0416 6.91699 14.4416 6.95866 14.65 7.23366C14.8666 7.50033 14.825 7.90033 14.5583 8.11699Z"
  />
</svg>
