<svg width="80" height="80" viewBox="0 0 80 80" fill="none" xmlns="http://www.w3.org/2000/svg">
<path d="M77.5 43.7798C77.5 51.8622 73.4208 58.954 67.284 62.9571C63.0149 65.7411 60 70 55.3324 72.52C54.0803 73.196 49 73.5 44.5 72C41.5 71 34.5 75 34.5 75C29.5 76.5 26.206 71.1647 21.5619 70.5143C13.5237 69.3904 2.5 64.8104 2.5 48.5993C2.5 42.8681 4.31485 37.6078 7.55993 33.523C10.305 30.0669 12.579 26.2434 14.5188 22.243C19.0403 12.9061 28.3477 6.5 39.0998 6.5C47.8447 6.5 55.6353 10.7371 60.6712 17.3419C63.0365 20.4442 65.7167 23.2853 68.7671 25.6583C74.0674 29.7866 77.4976 36.3668 77.4976 43.7771L77.5 43.7798Z" fill="#FFF5F6"/>
<g opacity="0.6">
<path d="M50.344 21.1899C51.3624 21.1899 52.1879 20.3639 52.1879 19.345C52.1879 18.326 51.3624 17.5 50.344 17.5C49.3256 17.5 48.5 18.326 48.5 19.345C48.5 20.3639 49.3256 21.1899 50.344 21.1899Z" fill="#F48351"/>
<mask id="mask0_3287_390472" style="mask-type:luminance" maskUnits="userSpaceOnUse" x="48" y="17" width="5" height="5">
<path d="M50.344 21.1899C51.3624 21.1899 52.1879 20.3639 52.1879 19.345C52.1879 18.326 51.3624 17.5 50.344 17.5C49.3256 17.5 48.5 18.326 48.5 19.345C48.5 20.3639 49.3256 21.1899 50.344 21.1899Z" fill="white"/>
</mask>
<g mask="url(#mask0_3287_390472)">
<path d="M49.841 20.7111C50.8594 20.7111 51.685 19.8851 51.685 18.8661C51.685 17.8472 50.8594 17.0211 49.841 17.0211C48.8226 17.0211 47.9971 17.8472 47.9971 18.8661C47.9971 19.8851 48.8226 20.7111 49.841 20.7111Z" fill="#FF9F5B"/>
</g>
</g>
<g opacity="0.25">
<path d="M9.0548 45.6113C9.9135 45.6113 10.6096 44.9148 10.6096 44.0556C10.6096 43.1965 9.9135 42.5 9.0548 42.5C8.19611 42.5 7.5 43.1965 7.5 44.0556C7.5 44.9148 8.19611 45.6113 9.0548 45.6113Z" fill="#F48351"/>
<mask id="mask1_3287_390472" style="mask-type:luminance" maskUnits="userSpaceOnUse" x="7" y="42" width="4" height="4">
<path d="M9.0548 45.6113C9.9135 45.6113 10.6096 44.9148 10.6096 44.0556C10.6096 43.1965 9.9135 42.5 9.0548 42.5C8.19611 42.5 7.5 43.1965 7.5 44.0556C7.5 44.9148 8.19611 45.6113 9.0548 45.6113Z" fill="white"/>
</mask>
<g mask="url(#mask1_3287_390472)">
<path d="M8.63146 45.2078C9.49016 45.2078 10.1863 44.5113 10.1863 43.6521C10.1863 42.793 9.49016 42.0965 8.63146 42.0965C7.77277 42.0965 7.07666 42.793 7.07666 43.6521C7.07666 44.5113 7.77277 45.2078 8.63146 45.2078Z" fill="#FF9F5B"/>
</g>
</g>
<path d="M72.2758 34.0545C73.8088 34.0545 75.0515 32.8111 75.0515 31.2773C75.0515 29.7434 73.8088 28.5 72.2758 28.5C70.7427 28.5 69.5 29.7434 69.5 31.2773C69.5 32.8111 70.7427 34.0545 72.2758 34.0545Z" fill="#F48351"/>
<mask id="mask2_3287_390472" style="mask-type:luminance" maskUnits="userSpaceOnUse" x="69" y="28" width="7" height="7">
<path d="M72.2758 34.0545C73.8088 34.0545 75.0515 32.8111 75.0515 31.2773C75.0515 29.7434 73.8088 28.5 72.2758 28.5C70.7427 28.5 69.5 29.7434 69.5 31.2773C69.5 32.8111 70.7427 34.0545 72.2758 34.0545Z" fill="white"/>
</mask>
<g mask="url(#mask2_3287_390472)">
<path d="M71.5184 33.328C73.0514 33.328 74.2942 32.0845 74.2942 30.5507C74.2942 29.0169 73.0514 27.7734 71.5184 27.7734C69.9854 27.7734 68.7427 29.0169 68.7427 30.5507C68.7427 32.0845 69.9854 33.328 71.5184 33.328Z" fill="#FF9F5B"/>
</g>
<g clip-path="url(#clip0_3287_390472)">
<path d="M73.6057 52.6365L68.8191 42.1066C68.4223 41.2365 67.7839 40.4987 66.9799 39.9809C66.1759 39.4631 65.2401 39.1871 64.2837 39.1857H18.1056C17.7752 39.1857 17.4584 39.317 17.2247 39.5506C16.9911 39.7842 16.8599 40.1011 16.8599 40.4315V54.1346H18.7285C18.8931 54.133 19.0564 54.1641 19.2089 54.226C19.3614 54.2879 19.5002 54.3794 19.6172 54.4952C19.7341 54.611 19.827 54.7489 19.8903 54.9008C19.9537 55.0528 19.9863 55.2157 19.9863 55.3804C19.9863 55.545 19.9537 55.708 19.8903 55.8599C19.827 56.0118 19.7341 56.1497 19.6172 56.2655C19.5002 56.3813 19.3614 56.4729 19.2089 56.5347C19.0564 56.5966 18.8931 56.6277 18.7285 56.6261H16.8599V60.3633C16.8609 61.3541 17.255 62.3041 17.9557 63.0047C18.6563 63.7054 19.6062 64.0994 20.5971 64.1005H70.4268C71.4177 64.0994 72.3676 63.7054 73.0682 63.0047C73.7689 62.3041 74.163 61.3541 74.164 60.3633V55.214C74.1654 54.3247 73.9749 53.4455 73.6057 52.6365Z" fill="url(#paint0_linear_3287_390472)"/>
<path d="M71.6725 56.6268H74.164V55.2147C74.1616 54.8526 74.1275 54.4915 74.0623 54.1353H71.6725C71.3421 54.1353 71.0253 54.2666 70.7916 54.5002C70.558 54.7339 70.4268 55.0507 70.4268 55.3811C70.4268 55.5447 70.459 55.7067 70.5216 55.8578C70.5842 56.009 70.676 56.1463 70.7916 56.262C70.9073 56.3777 71.0447 56.4694 71.1958 56.532C71.347 56.5946 71.5089 56.6268 71.6725 56.6268Z" fill="url(#paint1_linear_3287_390472)"/>
<path d="M64.8592 44.1689H59.2155C59.0519 44.1689 58.8899 44.2011 58.7388 44.2637C58.5876 44.3263 58.4503 44.418 58.3346 44.5337C58.2189 44.6494 58.1272 44.7867 58.0646 44.9379C58.0019 45.089 57.9697 45.251 57.9697 45.4146V50.3976C57.9697 50.728 58.101 51.0449 58.3346 51.2785C58.5682 51.5121 58.8851 51.6434 59.2155 51.6434H67.9263C68.1347 51.6434 68.3398 51.5911 68.5228 51.4913C68.7058 51.3914 68.8609 51.2473 68.9737 51.072C69.0866 50.8968 69.1536 50.696 69.1688 50.4881C69.1839 50.2802 69.1467 50.0718 69.0604 49.8821L67.1273 45.6294C66.9294 45.1939 66.6102 44.8246 66.208 44.5656C65.8058 44.3066 65.3376 44.1689 64.8592 44.1689Z" fill="url(#paint2_linear_3287_390472)"/>
<path d="M28.0717 68.4617C31.1677 68.4617 33.6775 65.9519 33.6775 62.8558C33.6775 59.7598 31.1677 57.25 28.0717 57.25C24.9756 57.25 22.4658 59.7598 22.4658 62.8558C22.4658 65.9519 24.9756 68.4617 28.0717 68.4617Z" fill="url(#paint3_linear_3287_390472)"/>
<path d="M28.0715 65.3465C29.4475 65.3465 30.563 64.231 30.563 62.855C30.563 61.479 29.4475 60.3636 28.0715 60.3636C26.6955 60.3636 25.5801 61.479 25.5801 62.855C25.5801 64.231 26.6955 65.3465 28.0715 65.3465Z" fill="url(#paint4_linear_3287_390472)"/>
<path d="M60.4613 68.4617C63.5573 68.4617 66.0671 65.9519 66.0671 62.8558C66.0671 59.7598 63.5573 57.25 60.4613 57.25C57.3653 57.25 54.8555 59.7598 54.8555 62.8558C54.8555 65.9519 57.3653 68.4617 60.4613 68.4617Z" fill="url(#paint5_linear_3287_390472)"/>
<path d="M60.4612 65.3465C61.8372 65.3465 62.9526 64.231 62.9526 62.855C62.9526 61.479 61.8372 60.3636 60.4612 60.3636C59.0852 60.3636 57.9697 61.479 57.9697 62.855C57.9697 64.231 59.0852 65.3465 60.4612 65.3465Z" fill="url(#paint6_linear_3287_390472)"/>
<path fill-rule="evenodd" clip-rule="evenodd" d="M23.0766 44.222C28.9179 44.222 33.6532 39.4867 33.6532 33.6454C33.6532 32.985 33.5927 32.3388 33.4769 31.7119H51.7408C52.7316 31.713 53.6816 32.1071 54.3822 32.8077C55.0828 33.5083 55.4769 34.4583 55.478 35.4491V55.3811C55.4769 56.3719 55.0828 57.3218 54.3822 58.0225C53.6816 58.7231 52.7316 59.1172 51.7408 59.1183H15.6143C15.2839 59.1183 14.967 58.987 14.7334 58.7534C14.4998 58.5198 14.3685 58.2029 14.3685 57.8725C14.3685 57.5421 14.4998 57.2252 14.7334 56.9916C14.967 56.758 15.2839 56.6267 15.6143 56.6267H18.7286C18.8932 56.6283 19.0565 56.5973 19.209 56.5354C19.3615 56.4735 19.5003 56.382 19.6173 56.2661C19.7342 56.1503 19.8271 56.0124 19.8904 55.8605C19.9538 55.7086 19.9864 55.5456 19.9864 55.381C19.9864 55.2164 19.9538 55.0534 19.8904 54.9015C19.8271 54.7495 19.7342 54.6117 19.6173 54.4958C19.5003 54.38 19.3615 54.2885 19.209 54.2266C19.0565 54.1647 18.8932 54.1337 18.7286 54.1353H15.6143C15.4497 54.1369 15.2864 54.1058 15.1339 54.0439C14.9813 53.982 14.8426 53.8905 14.7256 53.7747C14.6086 53.6589 14.5158 53.521 14.4524 53.3691C14.3891 53.2171 14.3564 53.0542 14.3564 52.8895C14.3564 52.7249 14.3891 52.562 14.4524 52.41C14.5158 52.2581 14.6086 52.1202 14.7256 52.0044C14.8426 51.8886 14.9813 51.7971 15.1339 51.7352C15.2864 51.6733 15.4497 51.6422 15.6143 51.6438H16.86V42.2031C18.605 43.4729 20.7533 44.222 23.0766 44.222Z" fill="url(#paint7_linear_3287_390472)"/>
<path d="M39.5 36.5C39.5 43.6797 33.6797 49.5 26.5 49.5C19.3203 49.5 13.5 43.6797 13.5 36.5C13.5 29.3203 19.3203 23.5 26.5 23.5C33.6797 23.5 39.5 29.3203 39.5 36.5Z" fill="url(#paint8_linear_3287_390472)" stroke="#FFF0F1" stroke-width="2"/>
<path d="M24.9443 42.7218C24.74 42.7221 24.5377 42.682 24.3489 42.6037C24.1602 42.5255 23.9887 42.4108 23.8445 42.2661L19.9555 38.3773C19.6641 38.0855 19.5004 37.69 19.5005 37.2776C19.5006 36.8652 19.6645 36.4697 19.9561 36.1781C20.2477 35.8865 20.6432 35.7226 21.0556 35.7225C21.468 35.7224 21.8635 35.8861 22.1553 36.1775L24.9443 38.9663L31.6222 32.2888C31.7662 32.1424 31.9377 32.026 32.127 31.9462C32.3162 31.8665 32.5193 31.825 32.7246 31.8241C32.93 31.8233 33.1334 31.8631 33.3233 31.9413C33.5132 32.0195 33.6857 32.1345 33.8309 32.2797C33.9761 32.4249 34.0911 32.5974 34.1693 32.7872C34.2475 32.9771 34.2873 33.1805 34.2865 33.3859C34.2857 33.5912 34.2442 33.7943 34.1644 33.9836C34.0847 34.1728 33.9683 34.3443 33.8219 34.4884L26.0441 42.2661C25.8998 42.4108 25.7284 42.5255 25.5397 42.6037C25.351 42.682 25.1486 42.7221 24.9443 42.7218Z" fill="url(#paint9_linear_3287_390472)"/>
</g>
<defs>
<linearGradient id="paint0_linear_3287_390472" x1="70.1109" y1="38.647" x2="18.4571" y2="64.9244" gradientUnits="userSpaceOnUse">
<stop stop-color="#E54C51"/>
<stop offset="1" stop-color="#C31F2E"/>
</linearGradient>
<linearGradient id="paint1_linear_3287_390472" x1="74.2224" y1="55.3811" x2="70.2805" y2="55.3811" gradientUnits="userSpaceOnUse">
<stop stop-color="#FED200"/>
<stop offset="1" stop-color="#F59815"/>
</linearGradient>
<linearGradient id="paint2_linear_3287_390472" x1="67.2515" y1="45.2382" x2="58.2422" y2="51.7701" gradientUnits="userSpaceOnUse">
<stop stop-color="white"/>
<stop offset="1" stop-color="#EDF2F0"/>
</linearGradient>
<linearGradient id="paint3_linear_3287_390472" x1="32.0356" y1="58.8919" x2="24.4321" y2="66.4954" gradientUnits="userSpaceOnUse">
<stop stop-color="#3E4154"/>
<stop offset="1" stop-color="#1B2129"/>
</linearGradient>
<linearGradient id="paint4_linear_3287_390472" x1="29.8262" y1="61.1004" x2="26.6719" y2="64.2546" gradientUnits="userSpaceOnUse">
<stop stop-color="white"/>
<stop offset="1" stop-color="#EDF1F2"/>
</linearGradient>
<linearGradient id="paint5_linear_3287_390472" x1="64.6782" y1="58.639" x2="56.8494" y2="66.4676" gradientUnits="userSpaceOnUse">
<stop stop-color="#3E4154"/>
<stop offset="1" stop-color="#1B2129"/>
</linearGradient>
<linearGradient id="paint6_linear_3287_390472" x1="62.238" y1="61.0781" x2="58.5767" y2="64.7394" gradientUnits="userSpaceOnUse">
<stop stop-color="white"/>
<stop offset="1" stop-color="#EDF1F2"/>
</linearGradient>
<linearGradient id="paint7_linear_3287_390472" x1="55.7094" y1="31.4683" x2="16.3684" y2="59.5476" gradientUnits="userSpaceOnUse">
<stop stop-color="#FC6E71"/>
<stop offset="1" stop-color="#E95256"/>
</linearGradient>
<linearGradient id="paint8_linear_3287_390472" x1="16.3022" y1="26.302" x2="36.6029" y2="46.6028" gradientUnits="userSpaceOnUse">
<stop stop-color="#34CA82"/>
<stop offset="1" stop-color="#37A477"/>
</linearGradient>
<linearGradient id="paint9_linear_3287_390472" x1="20.0079" y1="27.5258" x2="34.6329" y2="44.1196" gradientUnits="userSpaceOnUse">
<stop stop-color="white"/>
<stop offset="1" stop-color="#EDF2F0"/>
</linearGradient>
<clipPath id="clip0_3287_390472">
<rect width="61.6642" height="48" fill="white" transform="translate(12.5 20.5)"/>
</clipPath>
</defs>
</svg>
