<svg width="80" height="80" viewBox="0 0 80 80" fill="none" xmlns="http://www.w3.org/2000/svg">
<path d="M38.1237 7.45398L5.16608 16.6518L22.6748 79.587L64.4734 67.9222C65.9635 67.5075 66.8341 65.9621 66.4165 64.4699L53.162 16.8219L38.1237 7.45044V7.45398Z" fill="white"/>
<path fill-rule="evenodd" clip-rule="evenodd" d="M38.1237 7.45398V7.45044L53.162 16.8219L66.4165 64.4699C66.8341 65.9621 65.9635 67.5075 64.4734 67.9222L22.6748 79.587L5.16608 16.6518L38.1237 7.45398ZM7.4321 17.9302L37.8419 9.44343L51.5807 18.0052L64.6441 64.966C64.7879 65.4798 64.4882 66.0077 63.9799 66.1491L63.9787 66.1495L23.9542 77.3191L7.4321 17.9302Z" fill="#E5103F"/>
<mask id="mask0_3029_392534" style="mask-type:luminance" maskUnits="userSpaceOnUse" x="5" y="7" width="62" height="73">
<path d="M38.1236 7.45398L5.16608 16.6518L22.6748 79.587L64.4734 67.9222C65.9635 67.5075 66.8341 65.9621 66.4165 64.4699L53.162 16.8219L38.1236 7.45044V7.45398Z" fill="white"/>
<path d="M23.0224 78.9709L5.78169 16.9991L38.05 7.99366L52.7324 17.1434L65.9348 64.6039L65.935 64.6047C66.2782 65.8311 65.5627 67.1 64.3394 67.4405L64.339 67.4406L23.0224 78.9709Z" fill="white" stroke="white"/>
</mask>
<g mask="url(#mask0_3029_392534)">
<path d="M55.3918 -50.838L25.3895 -42.4661C24.2569 -42.1506 23.5916 -40.9738 23.9065 -39.8361L40.2721 18.9875C40.5871 20.1217 41.7621 20.7881 42.8982 20.4726L80.5913 9.95626C83.2139 9.2261 84.7464 6.50043 84.0173 3.874L71.5556 -40.9136C71.414 -41.4275 71.0813 -41.8706 70.6283 -42.1541L57.0871 -50.5899C56.581 -50.9054 55.9652 -50.994 55.3883 -50.8345L55.3918 -50.838Z" fill="white"/>
<path fill-rule="evenodd" clip-rule="evenodd" d="M55.3918 -50.838L55.3883 -50.8345C55.3897 -50.8349 55.3911 -50.8353 55.3925 -50.8356C55.3929 -50.8358 55.3934 -50.8359 55.3938 -50.836C55.9691 -50.9934 56.5826 -50.9044 57.0871 -50.5899L70.6283 -42.1541C71.0813 -41.8706 71.414 -41.4275 71.5556 -40.9136L84.0173 3.874C84.7464 6.50043 83.2139 9.2261 80.5913 9.95626L42.8982 20.4726C41.7621 20.7881 40.5871 20.1217 40.2721 18.9875L23.9065 -39.8361C23.5916 -40.9738 24.2569 -42.1506 25.3895 -42.4661L55.3918 -50.838ZM25.6801 -40.3278C25.6358 -40.4893 25.7315 -40.6508 25.8833 -40.6931L54.8843 -48.7856L55.8787 -49.0606C55.9617 -49.0835 56.0463 -49.07 56.1136 -49.028L69.6518 -40.5941C69.6521 -40.5939 69.6524 -40.5937 69.6527 -40.5935C69.7196 -40.5513 69.7637 -40.4882 69.7812 -40.4248L82.2439 4.36629C82.7026 6.01885 81.7365 7.72694 80.0977 8.18322L80.0967 8.18348L42.4058 18.6992C42.4056 18.6993 42.406 18.6992 42.4058 18.6992C42.251 18.7418 42.0889 18.6514 42.0454 18.495L25.6801 -40.3278C25.6802 -40.3276 25.6801 -40.328 25.6801 -40.3278Z" fill="#E5103F"/>
<g style="mix-blend-mode:multiply" opacity="0.7">
<path d="M70.8866 20.5718L70.7202 19.9764L67.4039 19.2994L68.3772 14.5179L64.0983 13.646L63.125 18.431C60.8174 23.138 59.161 27.7883 58.0284 32.6194C57.6957 34.0336 57.4091 35.4656 57.1613 36.9153C56.4251 41.2643 56.0606 45.8047 55.9757 50.6996L57.0728 50.9229L54.6414 54.2901C55.9827 55.8249 56.7224 59.263 56.7224 59.263L57.041 59.3268L57.3595 59.3906C57.3595 59.3906 59.3627 56.5231 61.2138 55.6264L60.29 51.5751L61.3907 51.7984C63.2241 47.2615 64.661 42.9408 65.6803 38.645C66.0201 37.213 66.3138 35.7846 66.5616 34.3526C67.2907 30.117 67.6057 25.8495 67.4889 21.3729L69.1028 21.7025C70.5857 27.5048 69.8885 31.6659 68.9329 36.2595L68.0658 36.0823L67.6623 38.0601L70.4902 38.6379L70.6954 37.6596C71.7891 32.4776 72.819 27.5792 70.883 20.5754L70.8866 20.5718Z" fill="white"/>
</g>
</g>
<path d="M4.04764 16.9601C2.55761 17.3748 1.68695 18.9202 2.10458 20.4124L18.1126 77.9493C18.5267 79.4415 20.0699 80.3135 21.5599 79.8952L22.6748 79.5833L5.16604 16.6482L4.05118 16.9601H4.04764Z" fill="#FF9F5B"/>
<path d="M25.924 26.9306C26.1399 27.7069 25.6868 28.515 24.9117 28.7312L16.4777 31.0847C15.7026 31.3009 14.8956 30.8473 14.6797 30.071C14.4638 29.2948 14.9169 28.4867 15.692 28.2704L24.126 25.9169C24.9011 25.7007 25.7081 26.1544 25.924 26.9306Z" fill="#F48351"/>
<path d="M23.1137 48.9489C22.8978 48.1726 23.3509 47.3645 24.126 47.1483L48.0195 40.4812C48.7946 40.265 49.6015 40.7187 49.8174 41.4949C50.0333 42.2711 49.5803 43.0793 48.8052 43.2955L24.9117 49.9626C24.1366 50.1788 23.3296 49.7251 23.1137 48.9489ZM52.256 45.369L25.6903 52.7804C24.9152 52.9966 24.4587 53.8012 24.6781 54.581C24.8975 55.3608 25.6974 55.8145 26.476 55.5947L53.0417 48.1833C53.8168 47.9671 54.2734 47.1625 54.0539 46.3827C53.838 45.6065 53.0346 45.1492 52.256 45.369ZM23.3438 44.334L31.7778 41.9805C32.5529 41.7643 33.0095 40.9597 32.7901 40.1799C32.5706 39.4001 31.7708 38.9465 30.9921 39.1662L22.5581 41.5197C21.783 41.7359 21.3264 42.5405 21.5458 43.3203C21.7617 44.0965 22.5651 44.5538 23.3438 44.334ZM37.3982 40.4139L50.0475 36.8836C50.8226 36.6674 51.2791 35.8628 51.0597 35.083C50.8438 34.3068 50.0404 33.8495 49.2618 34.0693L36.6125 37.5996C35.8374 37.8158 35.3808 38.6204 35.6002 39.4001C35.8161 40.1764 36.6195 40.6336 37.3982 40.4139ZM41.1746 54.5278L27.2582 58.409C26.4831 58.6252 26.0265 59.4298 26.246 60.2096C26.4654 60.9893 27.2653 61.443 28.0439 61.2233L41.9603 57.3421C42.7354 57.1259 43.1919 56.3213 42.9725 55.5415C42.7531 54.7618 41.9532 54.3081 41.1746 54.5278ZM46.7949 52.9612C46.0198 53.1774 45.5632 53.982 45.7827 54.7618C46.0021 55.5415 46.802 55.9952 47.5806 55.7755C48.3557 55.5593 48.8123 54.7547 48.5929 53.9749C48.3734 53.1951 47.5735 52.7414 46.7949 52.9612Z" fill="#FF9F5B"/>
<path d="M61.7483 51.6994L61.9925 56.6439C60.0105 57.204 57.5436 59.6815 57.5436 59.6815L56.9419 59.444C56.9419 59.444 56.811 55.928 55.7563 54.1841L59.3026 50.7354L61.7483 51.6994Z" fill="#F48351"/>
<path d="M61.7482 51.6993L61.9924 56.6438C60.0104 57.2039 57.5436 59.6814 57.5436 59.6814L57.2427 59.5609L60.5272 51.2173L61.7482 51.6993Z" fill="#FF9F5B"/>
<path d="M74.0755 41.5233L71.3892 40.4635L72.1289 38.585L72.9535 38.9111C74.6913 34.5549 76.0999 30.5781 75.6469 24.6057L73.4702 23.7479L74.2099 21.8694L77.5404 23.1844L77.6006 23.8011C78.2907 31.0389 76.4255 35.6785 74.4506 40.5947L74.079 41.5233H74.0755Z" fill="#22A841"/>
<path d="M74.3869 21.9439C73.764 27.1543 72.6208 31.957 70.9468 36.6215C70.699 37.3126 69.2019 38.1775 69.2019 38.1775C69.2019 38.1775 69.6231 40.0277 69.3329 40.694C67.5845 44.7453 65.4185 48.7505 62.8277 52.9011L60.2582 51.8874L57.6852 50.8737C58.616 46.0674 59.7627 41.6581 61.2421 37.504C61.4899 36.8093 63.1109 35.8027 63.1109 35.8027C63.1109 35.8027 62.5552 34.0907 62.8419 33.4244C64.7956 28.8662 67.2341 24.5739 70.3239 20.3383L72.7199 20.2107L74.3869 21.9404V21.9439Z" fill="#3EB743"/>
<path d="M74.3868 21.9437C73.7639 27.154 72.6207 31.9567 70.9467 36.6212C70.6989 37.3124 69.2018 38.1772 69.2018 38.1772C69.2018 38.1772 69.623 40.0274 69.3328 40.6938C67.5844 44.7451 65.4184 48.7503 62.8276 52.9008L60.2581 51.8871L72.7198 20.2104L74.3868 21.9401V21.9437Z" fill="#22A841"/>
<path d="M70.3239 20.3452L72.1112 15.8013L76.1743 17.4034L74.3869 21.9473L70.3239 20.3452Z" fill="#F48351"/>
<path d="M72.3555 21.1463L74.1429 16.6023L76.1744 17.4033L74.3871 21.9473L72.3555 21.1463Z" fill="#FF9F5B"/>
<path d="M70.9467 36.6249C70.4547 37.9931 69.9168 39.3506 69.3363 40.7011L65.291 39.1061L61.2456 37.5111C61.7411 36.1252 62.272 34.7641 62.8453 33.4314L70.9502 36.6285L70.9467 36.6249Z" fill="#F48351"/>
<path d="M70.9469 36.6249C70.4549 37.9931 69.9169 39.3506 69.3365 40.701L65.2911 39.106L66.8944 35.0264L70.9469 36.6249Z" fill="#FF9F5B"/>
<path d="M43.4785 24.3716C50.1987 24.3716 55.6465 18.9158 55.6465 12.1858C55.6465 5.45577 50.1987 0 43.4785 0C36.7583 0 31.3105 5.45577 31.3105 12.1858C31.3105 18.9158 36.7583 24.3716 43.4785 24.3716Z" fill="#22A841"/>
<mask id="mask1_3029_392534" style="mask-type:luminance" maskUnits="userSpaceOnUse" x="31" y="0" width="25" height="25">
<path d="M43.4785 24.3716C50.1987 24.3716 55.6465 18.9158 55.6465 12.1858C55.6465 5.45577 50.1987 0 43.4785 0C36.7583 0 31.3105 5.45577 31.3105 12.1858C31.3105 18.9158 36.7583 24.3716 43.4785 24.3716Z" fill="white"/>
</mask>
<g mask="url(#mask1_3029_392534)">
<path d="M40.1695 21.2029C46.8897 21.2029 52.3375 15.7471 52.3375 9.0171C52.3375 2.28707 46.8897 -3.1687 40.1695 -3.1687C33.4493 -3.1687 28.0015 2.28707 28.0015 9.0171C28.0015 15.7471 33.4493 21.2029 40.1695 21.2029Z" fill="#3EB743"/>
<path fill-rule="evenodd" clip-rule="evenodd" d="M36.5477 11.2808C36.5477 10.6296 37.1352 10.1018 37.8598 10.1018H49.3831C50.1077 10.1018 50.6951 10.6296 50.6951 11.2808C50.6951 11.9319 50.1077 12.4597 49.3831 12.4597H37.8598C37.1352 12.4597 36.5477 11.9319 36.5477 11.2808Z" fill="white"/>
<path fill-rule="evenodd" clip-rule="evenodd" d="M43.6215 4.20703C44.2726 4.20703 44.8004 4.79447 44.8004 5.5191V17.0424C44.8004 17.767 44.2726 18.3544 43.6215 18.3544C42.9703 18.3544 42.4425 17.767 42.4425 17.0424V5.5191C42.4425 4.79447 42.9703 4.20703 43.6215 4.20703Z" fill="white"/>
</g>
</svg>
