<svg width="80" height="80" viewBox="0 0 80 80" fill="none" xmlns="http://www.w3.org/2000/svg">
<g clip-path="url(#clip0_3287_390614)">
<path d="M77.5 43.7798C77.5 51.8622 73.4208 58.954 67.284 62.9571C63.0149 65.7411 59.0511 68.9876 55.3324 72.52C54.3007 73.5 47.8797 73.5 43.2812 73.5C40.1636 73.5 33.9063 73.5 33.9063 73.5C29.8102 71.1324 26.206 71.1647 21.5619 70.5143C13.5237 69.3904 2.5 64.8104 2.5 48.5993C2.5 42.8681 4.31485 37.6078 7.55993 33.523C10.305 30.0669 12.579 26.2434 14.5188 22.243C19.0403 12.9061 28.3477 6.5 39.0998 6.5C47.8447 6.5 55.6353 10.7371 60.6712 17.3419C63.0365 20.4442 65.7167 23.2853 68.7671 25.6583C74.0674 29.7866 77.4976 36.3668 77.4976 43.7771L77.5 43.7798Z" fill="#FFF5F6"/>
<g opacity="0.6">
<path d="M13.344 29.1899C14.3624 29.1899 15.1879 28.3639 15.1879 27.345C15.1879 26.326 14.3624 25.5 13.344 25.5C12.3256 25.5 11.5 26.326 11.5 27.345C11.5 28.3639 12.3256 29.1899 13.344 29.1899Z" fill="#F48351"/>
<mask id="mask0_3287_390614" style="mask-type:luminance" maskUnits="userSpaceOnUse" x="11" y="25" width="5" height="5">
<path d="M13.344 29.1899C14.3624 29.1899 15.1879 28.3639 15.1879 27.345C15.1879 26.326 14.3624 25.5 13.344 25.5C12.3256 25.5 11.5 26.326 11.5 27.345C11.5 28.3639 12.3256 29.1899 13.344 29.1899Z" fill="white"/>
</mask>
<g mask="url(#mask0_3287_390614)">
<path d="M12.841 28.7111C13.8594 28.7111 14.685 27.8851 14.685 26.8661C14.685 25.8472 13.8594 25.0211 12.841 25.0211C11.8226 25.0211 10.9971 25.8472 10.9971 26.8661C10.9971 27.8851 11.8226 28.7111 12.841 28.7111Z" fill="#FF9F5B"/>
</g>
</g>
<g opacity="0.25">
<path d="M29.0548 14.6113C29.9135 14.6113 30.6096 13.9148 30.6096 13.0556C30.6096 12.1965 29.9135 11.5 29.0548 11.5C28.1961 11.5 27.5 12.1965 27.5 13.0556C27.5 13.9148 28.1961 14.6113 29.0548 14.6113Z" fill="#F48351"/>
<mask id="mask1_3287_390614" style="mask-type:luminance" maskUnits="userSpaceOnUse" x="27" y="11" width="4" height="4">
<path d="M29.0548 14.6113C29.9135 14.6113 30.6096 13.9148 30.6096 13.0556C30.6096 12.1965 29.9135 11.5 29.0548 11.5C28.1961 11.5 27.5 12.1965 27.5 13.0556C27.5 13.9148 28.1961 14.6113 29.0548 14.6113Z" fill="white"/>
</mask>
<g mask="url(#mask1_3287_390614)">
<path d="M28.6315 14.2078C29.4902 14.2078 30.1863 13.5113 30.1863 12.6521C30.1863 11.793 29.4902 11.0965 28.6315 11.0965C27.7728 11.0965 27.0767 11.793 27.0767 12.6521C27.0767 13.5113 27.7728 14.2078 28.6315 14.2078Z" fill="#FF9F5B"/>
</g>
</g>
<path d="M65.2758 28.0545C66.8088 28.0545 68.0515 26.8111 68.0515 25.2773C68.0515 23.7434 66.8088 22.5 65.2758 22.5C63.7427 22.5 62.5 23.7434 62.5 25.2773C62.5 26.8111 63.7427 28.0545 65.2758 28.0545Z" fill="#F48351"/>
<mask id="mask2_3287_390614" style="mask-type:luminance" maskUnits="userSpaceOnUse" x="62" y="22" width="7" height="7">
<path d="M65.2758 28.0545C66.8088 28.0545 68.0515 26.8111 68.0515 25.2773C68.0515 23.7434 66.8088 22.5 65.2758 22.5C63.7427 22.5 62.5 23.7434 62.5 25.2773C62.5 26.8111 63.7427 28.0545 65.2758 28.0545Z" fill="white"/>
</mask>
<g mask="url(#mask2_3287_390614)">
<path d="M64.5184 27.328C66.0514 27.328 67.2942 26.0845 67.2942 24.5507C67.2942 23.0169 66.0514 21.7734 64.5184 21.7734C62.9854 21.7734 61.7427 23.0169 61.7427 24.5507C61.7427 26.0845 62.9854 27.328 64.5184 27.328Z" fill="#FF9F5B"/>
</g>
<path d="M54 58.5625H27.9999C27.7845 58.5625 27.5778 58.6481 27.4255 58.8005C27.2731 58.9529 27.1875 59.1595 27.1875 59.375V71.1994C27.1875 71.3577 27.2338 71.5126 27.3206 71.645C27.4074 71.7774 27.531 71.8816 27.6762 71.9447L40.6762 77.589C40.7784 77.6334 40.8886 77.6563 41 77.6563C41.1114 77.6563 41.2215 77.6334 41.3237 77.589L54.3237 71.9447C54.4689 71.8816 54.5925 71.7774 54.6794 71.645C54.7662 71.5126 54.8124 71.3577 54.8125 71.1994V59.375C54.8125 59.1595 54.7269 58.9529 54.5745 58.8005C54.4221 58.6481 54.2155 58.5625 54 58.5625Z" fill="url(#paint0_linear_3287_390614)"/>
<path d="M54 58.5625H41V77.6563C41.1114 77.6563 41.2216 77.6334 41.3237 77.589L54.3238 71.9447C54.469 71.8816 54.5926 71.7774 54.6794 71.645C54.7662 71.5126 54.8125 71.3577 54.8125 71.1994V59.375C54.8125 59.1595 54.7269 58.9529 54.5745 58.8005C54.4222 58.6481 54.2155 58.5625 54 58.5625Z" fill="url(#paint1_linear_3287_390614)"/>
<path d="M41 61.3204L39.7813 61.8121L28 56.5308V54.9059L39.7813 49.6246L41 50.0309L42.2188 49.6246L54 54.9059V56.5308L42.2188 61.8121L41 61.3204Z" fill="url(#paint2_linear_3287_390614)"/>
<path d="M42.2188 61.8121L54 56.5308V54.9059L42.2188 49.6246L41 50.0309V61.3204L42.2188 61.8121Z" fill="url(#paint3_linear_3287_390614)"/>
<path d="M41 61.3206L45.2117 66.4189C45.3239 66.5548 45.4773 66.6505 45.6486 66.6916C45.82 66.7327 46.0001 66.717 46.1617 66.6468L57.6103 61.6757C57.7258 61.6255 57.8281 61.5492 57.9091 61.4528C57.99 61.3563 58.0474 61.2423 58.0768 61.1199C58.1061 60.9974 58.1066 60.8698 58.0782 60.7471C58.0498 60.6244 57.9933 60.51 57.9131 60.4129L53.9999 55.6758L41 61.3206Z" fill="url(#paint4_linear_3287_390614)"/>
<path d="M40.9999 61.3202L36.7882 66.4186C36.676 66.5544 36.5227 66.6501 36.3513 66.6912C36.1799 66.7323 35.9999 66.7166 35.8382 66.6464L24.3896 61.6753C24.2741 61.6252 24.1719 61.5489 24.091 61.4524C24.0101 61.356 23.9527 61.2421 23.9233 61.1197C23.8939 60.9973 23.8934 60.8697 23.9218 60.7471C23.9501 60.6244 24.0066 60.51 24.0867 60.4129L27.9999 55.6758L40.9999 61.3202Z" fill="url(#paint5_linear_3287_390614)"/>
<path d="M27.9998 55.6763L24.0897 50.9842C24.0089 50.8872 23.9518 50.7727 23.9229 50.6498C23.894 50.527 23.8942 50.399 23.9234 50.2762C23.9526 50.1534 24.0099 50.0391 24.091 49.9423C24.172 49.8456 24.2745 49.769 24.3903 49.7187L35.837 44.7485C35.9981 44.6786 36.1776 44.6627 36.3484 44.7033C36.5193 44.7439 36.6724 44.8388 36.7848 44.9738L40.9998 50.0316L27.9998 55.6763Z" fill="url(#paint6_linear_3287_390614)"/>
<path d="M45.2054 44.9849C45.3178 44.85 45.4709 44.7551 45.6418 44.7145C45.8126 44.6739 45.992 44.6898 46.1531 44.7597L57.5999 49.7299C57.7157 49.7802 57.8182 49.8568 57.8992 49.9535C57.9803 50.0503 58.0376 50.1646 58.0668 50.2874C58.096 50.4103 58.0961 50.5382 58.0673 50.6611C58.0384 50.7839 57.9813 50.8984 57.9005 50.9954L54 55.676L41 50.0313L45.2054 44.9849Z" fill="url(#paint7_linear_3287_390614)"/>
<path d="M28.135 54.8405C28.1299 54.8404 28.1259 54.8404 28.1198 54.8406L23.5897 54.9578C23.1566 54.9684 22.7438 55.1435 22.4351 55.4475L15.6603 62.1C15.5631 62.1955 15.486 62.3097 15.4337 62.4356C15.3814 62.5616 15.3549 62.6968 15.3559 62.8331C15.3569 62.9695 15.3853 63.1043 15.4393 63.2295C15.4934 63.3547 15.5721 63.4677 15.6708 63.5619L20.6552 68.3209C20.7515 68.4135 20.8652 68.4861 20.9898 68.5344C21.1143 68.5827 21.2473 68.6058 21.3808 68.6023C21.3865 68.6021 21.392 68.602 21.3977 68.6017C21.5341 68.5968 21.6681 68.5644 21.7916 68.5062C21.9151 68.4481 22.0255 68.3655 22.1162 68.2634L28.448 61.1881C28.7374 60.8657 28.8932 60.4451 28.8837 60.0119L28.7907 55.4665C28.7804 55.2987 28.7071 55.141 28.5856 55.025C28.464 54.9089 28.3031 54.843 28.135 54.8405ZM26.5143 58.6014C26.3816 58.7403 26.2107 58.8369 26.0231 58.8787C25.8356 58.9205 25.6398 58.9058 25.4607 58.8364C25.2815 58.767 25.1269 58.646 25.0165 58.4887C24.9061 58.3315 24.8447 58.145 24.8403 57.9529C24.8359 57.7608 24.8885 57.5717 24.9915 57.4095C25.0945 57.2473 25.2433 57.1193 25.4191 57.0417C25.5949 56.964 25.7898 56.9403 25.979 56.9734C26.1683 57.0065 26.3435 57.095 26.4825 57.2277C26.6689 57.4056 26.7769 57.6503 26.7829 57.9079C26.7888 58.1655 26.6922 58.4149 26.5143 58.6012L26.5143 58.6014Z" fill="url(#paint8_linear_3287_390614)"/>
<path d="M23.3769 60.9485L23.6505 60.6621C23.7092 60.5999 23.7409 60.517 23.7386 60.4315C23.7364 60.346 23.7004 60.2648 23.6385 60.2057C23.5767 60.1467 23.494 60.1145 23.4084 60.1161C23.3229 60.1178 23.2416 60.1533 23.1821 60.2147L22.8971 60.5131C22.7867 60.4451 22.6683 60.3911 22.5447 60.3521C22.0985 60.2173 21.6548 60.3075 21.387 60.5882C20.8733 61.126 21.199 61.8073 21.3738 62.1735C21.3994 62.2272 21.4228 62.276 21.4406 62.3185C21.4649 62.3772 21.4955 62.442 21.5286 62.5115C21.7309 62.9376 21.797 63.1723 21.624 63.3536C21.5287 63.4533 21.327 63.4789 21.1223 63.4168C20.7316 63.2985 20.4447 62.9244 20.3551 62.4158C20.3477 62.3739 20.3321 62.3339 20.3093 62.298C20.2864 62.2621 20.2567 62.2311 20.2219 62.2067C20.187 62.1823 20.1477 62.165 20.1062 62.1558C20.0647 62.1466 20.0217 62.1456 19.9798 62.153C19.9379 62.1604 19.8979 62.176 19.862 62.1988C19.8262 62.2217 19.7951 62.2514 19.7707 62.2862C19.7463 62.3211 19.729 62.3604 19.7198 62.4019C19.7106 62.4434 19.7097 62.4864 19.7171 62.5283C19.772 62.8584 19.904 63.1709 20.1023 63.4404L19.8288 63.7268C19.7695 63.7889 19.7373 63.8721 19.7392 63.9579C19.7412 64.0438 19.7772 64.1254 19.8393 64.1847C19.9015 64.244 19.9846 64.2762 20.0705 64.2743C20.1563 64.2723 20.2379 64.2363 20.2972 64.1742L20.5822 63.8758C20.6926 63.9438 20.811 63.9978 20.9347 64.0368C21.0754 64.08 21.222 64.1007 21.3692 64.098C21.6545 64.0914 21.913 63.9888 22.0924 63.8007C22.6038 63.2652 22.2848 62.5941 22.1136 62.2336C22.0857 62.1747 22.0593 62.12 22.0389 62.0704C22.0175 62.0188 21.9894 61.9595 21.9581 61.8943C21.7899 61.5418 21.6659 61.234 21.8554 61.0354C21.9507 60.9356 22.1522 60.9101 22.3571 60.9722C22.7478 61.0905 23.0347 61.4647 23.1243 61.9732C23.1399 62.0572 23.188 62.1317 23.2582 62.1804C23.3284 62.2291 23.415 62.2481 23.4991 62.2332C23.5832 62.2184 23.6581 62.1709 23.7074 62.1012C23.7567 62.0314 23.7764 61.945 23.7623 61.8607C23.7074 61.5306 23.5754 61.218 23.3769 60.9485Z" fill="url(#paint9_linear_3287_390614)"/>
<g clip-path="url(#clip1_3287_390614)">
<path d="M15.9135 45.7446C15.9125 45.7427 15.9116 45.7412 15.9102 45.7389L14.8922 44.046C14.795 43.8841 14.6399 43.7651 14.4583 43.7134L10.4793 42.5738C10.4222 42.5574 10.3623 42.5527 10.3033 42.56C10.2443 42.5672 10.1873 42.5862 10.1358 42.6159C10.0843 42.6456 10.0393 42.6853 10.0034 42.7327C9.96759 42.7801 9.94163 42.8343 9.92711 42.8919L9.19351 45.8051C9.17907 45.8615 9.17599 45.9202 9.18444 45.9779C9.19289 46.0355 9.21271 46.0908 9.24274 46.1407C9.24401 46.1429 9.24525 46.1449 9.24659 46.147C9.27774 46.1977 9.31886 46.2416 9.36745 46.2759C9.41605 46.3102 9.4711 46.3344 9.52929 46.3468L13.5734 47.2276C13.7579 47.268 13.9509 47.2367 14.1132 47.14L15.817 46.1278C15.8784 46.0879 15.9225 46.0262 15.9404 45.9552C15.9583 45.8841 15.9487 45.8089 15.9135 45.7446ZM14.1389 45.9383C14.0577 45.9178 13.9843 45.8737 13.9281 45.8116C13.872 45.7495 13.8355 45.6721 13.8233 45.5892C13.8111 45.5063 13.8238 45.4217 13.8597 45.346C13.8956 45.2703 13.9531 45.207 14.025 45.164C14.0969 45.1211 14.18 45.1004 14.2636 45.1046C14.3473 45.1088 14.4278 45.1377 14.495 45.1877C14.5622 45.2377 14.6131 45.3065 14.6413 45.3854C14.6694 45.4643 14.6735 45.5498 14.653 45.631C14.6256 45.7399 14.556 45.8335 14.4596 45.8911C14.3632 45.9487 14.2478 45.9657 14.1389 45.9382L14.1389 45.9383Z" fill="url(#paint10_linear_3287_390614)"/>
<path d="M12.5749 45.2529L12.7423 45.2951C12.7785 45.304 12.8168 45.2982 12.8487 45.279C12.8807 45.2597 12.9037 45.2286 12.9128 45.1925C12.9219 45.1563 12.9164 45.118 12.8973 45.086C12.8783 45.0539 12.8474 45.0307 12.8113 45.0213L12.6369 44.9773C12.639 44.9209 12.634 44.8644 12.6222 44.8091C12.5775 44.6109 12.4479 44.462 12.2839 44.4208C11.9695 44.3416 11.7811 44.6115 11.6798 44.7565C11.6649 44.7777 11.6515 44.7971 11.6392 44.813C11.6221 44.8348 11.6041 44.8604 11.5849 44.8878C11.4668 45.0562 11.392 45.1316 11.286 45.105C11.2277 45.0903 11.1747 45.0193 11.1542 44.9283C11.1151 44.7547 11.1954 44.5655 11.369 44.4222C11.3833 44.4104 11.3951 44.3959 11.4038 44.3795C11.4125 44.3631 11.4179 44.3452 11.4197 44.3268C11.4214 44.3083 11.4195 44.2897 11.4141 44.2719C11.4087 44.2542 11.3998 44.2377 11.388 44.2234C11.3762 44.2091 11.3617 44.1973 11.3453 44.1886C11.3289 44.1799 11.311 44.1745 11.2925 44.1728C11.2741 44.171 11.2554 44.1729 11.2377 44.1783C11.22 44.1837 11.2035 44.1926 11.1892 44.2044C11.0758 44.2962 10.9857 44.4134 10.9261 44.5466L10.7587 44.5044C10.7224 44.4952 10.6839 44.5009 10.6518 44.5201C10.6196 44.5393 10.5964 44.5705 10.5873 44.6068C10.5781 44.6431 10.5838 44.6816 10.603 44.7137C10.6222 44.7458 10.6534 44.769 10.6897 44.7782L10.8641 44.8221C10.862 44.8786 10.867 44.9351 10.8788 44.9904C10.8926 45.0531 10.9163 45.1131 10.9489 45.1684C11.0127 45.2751 11.1072 45.3511 11.2171 45.3788C11.5301 45.4576 11.7161 45.1924 11.816 45.05C11.8323 45.0267 11.8474 45.005 11.8619 44.9866C11.8768 44.9674 11.8933 44.944 11.9113 44.9181C12.0088 44.7785 12.0989 44.6653 12.2149 44.6945C12.2733 44.7092 12.3262 44.7802 12.3467 44.8712C12.3858 45.0448 12.3056 45.2341 12.132 45.3773C12.1035 45.4013 12.0856 45.4355 12.0822 45.4726C12.0788 45.5097 12.0902 45.5466 12.1139 45.5754C12.1376 45.6041 12.1717 45.6223 12.2088 45.626C12.2458 45.6297 12.2828 45.6186 12.3118 45.5951C12.4252 45.5033 12.5153 45.3861 12.5749 45.2529Z" fill="url(#paint11_linear_3287_390614)"/>
</g>
<g clip-path="url(#clip2_3287_390614)">
<path d="M62.4867 50.9761C62.4898 50.9752 62.4923 50.9747 62.496 50.9738L65.2822 50.3587C65.5485 50.2995 65.8274 50.344 66.0621 50.4829L71.2108 53.5214C71.2848 53.5651 71.3492 53.6232 71.4002 53.6922C71.4513 53.7612 71.488 53.8398 71.508 53.9233C71.5281 54.0068 71.5312 54.0935 71.5171 54.1782C71.5031 54.2629 71.4721 54.3439 71.4261 54.4164L69.1014 58.0804C69.0566 58.1516 68.9981 58.2132 68.9293 58.2616C68.8605 58.31 68.7828 58.3443 68.7006 58.3624C68.6971 58.3632 68.6937 58.3639 68.6902 58.3646C68.6061 58.3823 68.5193 58.3828 68.435 58.366C68.3507 58.3491 68.2707 58.3154 68.1999 58.2668L63.2577 54.9027C63.032 54.7495 62.873 54.5161 62.8131 54.2499L62.1809 51.458C62.1617 51.3539 62.1826 51.2465 62.2393 51.1571C62.296 51.0677 62.3844 51.0031 62.4867 50.9761ZM64.0473 53.0288C64.1494 53.0936 64.2685 53.1266 64.3895 53.1238C64.5105 53.1209 64.6278 53.0822 64.7268 53.0127C64.8258 52.9431 64.9019 52.8457 64.9456 52.7329C64.9892 52.62 64.9984 52.4968 64.972 52.3787C64.9456 52.2606 64.8848 52.153 64.7972 52.0695C64.7097 51.986 64.5993 51.9303 64.4801 51.9095C64.3609 51.8888 64.2383 51.9038 64.1276 51.9527C64.017 52.0016 63.9233 52.0823 63.8585 52.1844C63.7716 52.3214 63.7426 52.4873 63.778 52.6457C63.8134 52.804 63.9103 52.9418 64.0473 53.0287L64.0473 53.0288Z" fill="url(#paint12_linear_3287_390614)"/>
<path d="M66.3202 53.9876L66.1096 53.854C66.0643 53.8249 66.0324 53.779 66.0208 53.7264C66.0092 53.6738 66.0189 53.6188 66.0477 53.5733C66.0766 53.5278 66.1222 53.4956 66.1748 53.4837C66.2273 53.4717 66.2824 53.4811 66.328 53.5096L66.5475 53.6487C66.6046 53.5905 66.6687 53.5395 66.7384 53.4969C66.9906 53.3469 67.2754 53.3348 67.4817 53.4657C67.8771 53.7165 67.7814 54.1823 67.7301 54.4325C67.7226 54.4693 67.7157 54.5026 67.7112 54.5313C67.7053 54.5708 67.6964 54.6151 67.6867 54.6626C67.6276 54.9536 67.6229 55.1071 67.7561 55.1916C67.8294 55.2381 67.9566 55.2232 68.0722 55.1542C68.2931 55.0227 68.4117 54.7506 68.3894 54.4262C68.3875 54.3994 68.391 54.3726 68.3995 54.3472C68.408 54.3218 68.4215 54.2984 68.4391 54.2782C68.4567 54.258 68.4781 54.2415 68.5021 54.2295C68.526 54.2176 68.5521 54.2105 68.5789 54.2087C68.6056 54.2069 68.6324 54.2103 68.6578 54.2188C68.6832 54.2274 68.7067 54.2408 68.7268 54.2584C68.747 54.276 68.7636 54.2974 68.7755 54.3214C68.7874 54.3454 68.7945 54.3715 68.7963 54.3982C68.8128 54.6082 68.7795 54.8192 68.6992 55.014L68.9097 55.1476C68.9554 55.1766 68.9877 55.2225 68.9995 55.2753C69.0113 55.328 69.0017 55.3833 68.9727 55.429C68.9438 55.4747 68.8978 55.507 68.8451 55.5188C68.7923 55.5306 68.737 55.521 68.6913 55.492L68.4719 55.3529C68.4147 55.4111 68.3506 55.4621 68.2809 55.5047C68.2015 55.5524 68.115 55.5873 68.0247 55.608C67.8493 55.6472 67.6758 55.6237 67.5376 55.5359C67.1439 55.2861 67.2371 54.8277 67.2871 54.5814C67.2952 54.5412 67.303 54.5038 67.308 54.4704C67.3132 54.4356 67.3214 54.3951 67.3306 54.3505C67.38 54.1096 67.4091 53.9026 67.2632 53.81C67.1899 53.7634 67.0628 53.7785 66.947 53.8474C66.7262 53.979 66.6076 54.2511 66.6299 54.5755C66.6332 54.6292 66.615 54.682 66.5795 54.7224C66.544 54.7628 66.494 54.7875 66.4403 54.7912C66.3866 54.7949 66.3337 54.7773 66.293 54.7421C66.2523 54.7069 66.2271 54.6571 66.223 54.6035C66.2065 54.3934 66.2398 54.1824 66.3202 53.9876Z" fill="url(#paint13_linear_3287_390614)"/>
</g>
<path d="M57.2338 34.0323L54.5505 30.8839C54.3465 30.6454 54.2236 30.3483 54.1993 30.0354L53.87 25.9121C53.8151 25.1924 53.5044 24.5162 52.994 24.0058C52.4837 23.4955 51.8075 23.1847 51.0878 23.1298L46.9645 22.8009C46.6514 22.7765 46.3541 22.6534 46.1154 22.4493L42.9673 19.7663C42.4196 19.2962 41.7217 19.0378 41 19.0378C40.2782 19.0378 39.5803 19.2962 39.0326 19.7663L35.8846 22.4489C35.6459 22.6532 35.3486 22.7763 35.0354 22.8007L30.9121 23.1294C30.1924 23.1843 29.5162 23.495 29.0058 24.0054C28.4953 24.5157 28.1845 25.1919 28.1295 25.9116L27.8009 30.0347C27.7765 30.3478 27.6532 30.6451 27.449 30.8836L24.7661 34.0323C24.296 34.5801 24.0376 35.2781 24.0376 35.9999C24.0376 36.7217 24.296 37.4197 24.7661 37.9675L27.4494 41.1159C27.6534 41.3544 27.7764 41.6515 27.8006 41.9644L28.1299 46.0877C28.1848 46.8074 28.4955 47.4836 29.0059 47.994C29.5162 48.5043 30.1925 48.8151 30.9121 48.87L35.0354 49.1989C35.3485 49.2233 35.6458 49.3464 35.8846 49.5505L39.0326 52.2336C39.5803 52.7037 40.2782 52.9621 41 52.9621C41.7217 52.9621 42.4196 52.7037 42.9673 52.2336L46.1154 49.5509C46.354 49.3467 46.6513 49.2235 46.9645 49.1991L51.0878 48.8702C51.8074 48.8152 52.4836 48.5044 52.9939 47.9941C53.5043 47.4838 53.8151 46.8076 53.87 46.088L54.1986 41.9648C54.2231 41.6518 54.3463 41.3545 54.5506 41.1159L57.2334 37.9677C57.7036 37.42 57.9622 36.722 57.9622 36.0001C57.9623 35.2782 57.7039 34.5801 57.2338 34.0323Z" fill="url(#paint14_linear_3287_390614)"/>
<path d="M37.146 34.4561C36.6886 34.4561 36.2415 34.3205 35.8612 34.0664C35.481 33.8123 35.1846 33.4511 35.0095 33.0286C34.8345 32.606 34.7887 32.1411 34.8779 31.6925C34.9672 31.2439 35.1874 30.8318 35.5108 30.5084C35.8342 30.185 36.2463 29.9648 36.6948 29.8756C37.1434 29.7863 37.6084 29.8321 38.031 30.0071C38.4535 30.1822 38.8147 30.4786 39.0688 30.8589C39.3229 31.2391 39.4585 31.6862 39.4585 32.1436C39.4578 32.7567 39.214 33.3445 38.7804 33.7781C38.3469 34.2116 37.7591 34.4554 37.146 34.4561ZM37.146 31.3728C36.9935 31.3727 36.8445 31.4179 36.7177 31.5026C36.5909 31.5873 36.4921 31.7077 36.4338 31.8486C36.3754 31.9894 36.3601 32.1444 36.3899 32.294C36.4196 32.4435 36.493 32.5809 36.6008 32.6887C36.7086 32.7965 36.846 32.8699 36.9955 32.8997C37.145 32.9294 37.3 32.9141 37.4409 32.8558C37.5818 32.7975 37.7022 32.6987 37.7869 32.5719C37.8716 32.4451 37.9168 32.2961 37.9168 32.1436C37.9166 31.9393 37.8353 31.7433 37.6908 31.5988C37.5463 31.4543 37.3504 31.373 37.146 31.3728Z" fill="url(#paint15_linear_3287_390614)"/>
<path d="M44.8545 42.1641C44.3971 42.1641 43.95 42.0285 43.5697 41.7744C43.1894 41.5203 42.893 41.1591 42.718 40.7365C42.543 40.314 42.4972 39.849 42.5864 39.4004C42.6757 38.9519 42.8959 38.5398 43.2193 38.2164C43.5427 37.893 43.9548 37.6728 44.4033 37.5835C44.8519 37.4943 45.3169 37.5401 45.7394 37.7151C46.162 37.8902 46.5232 38.1865 46.7773 38.5668C47.0314 38.9471 47.167 39.3942 47.167 39.8516C47.1663 40.4647 46.9225 41.0525 46.4889 41.486C46.0554 41.9196 45.4676 42.1634 44.8545 42.1641ZM44.8545 39.0808C44.702 39.0808 44.553 39.126 44.4262 39.2107C44.2995 39.2954 44.2006 39.4158 44.1423 39.5567C44.084 39.6975 44.0687 39.8525 44.0985 40.0021C44.1282 40.1516 44.2016 40.289 44.3094 40.3968C44.4173 40.5046 44.5546 40.578 44.7042 40.6077C44.8537 40.6375 45.0087 40.6222 45.1495 40.5638C45.2904 40.5055 45.4108 40.4067 45.4955 40.2799C45.5802 40.1531 45.6254 40.0041 45.6254 39.8516C45.6251 39.6472 45.5438 39.4513 45.3993 39.3068C45.2548 39.1623 45.0589 39.081 44.8545 39.0808Z" fill="url(#paint16_linear_3287_390614)"/>
<path d="M35.6041 42.1643C35.4517 42.1643 35.3027 42.119 35.176 42.0343C35.0492 41.9496 34.9505 41.8292 34.8922 41.6884C34.8338 41.5476 34.8186 41.3926 34.8483 41.2431C34.878 41.0936 34.9514 40.9563 35.0592 40.8485L45.8508 30.0569C45.9224 29.9853 46.0073 29.9285 46.1008 29.8898C46.1943 29.8511 46.2946 29.8311 46.3958 29.8311C46.497 29.8311 46.5972 29.8511 46.6907 29.8898C46.7842 29.9285 46.8692 29.9853 46.9408 30.0569C47.0123 30.1284 47.0691 30.2134 47.1079 30.3069C47.1466 30.4004 47.1665 30.5006 47.1665 30.6018C47.1665 30.7031 47.1466 30.8033 47.1079 30.8968C47.0691 30.9903 47.0123 31.0753 46.9408 31.1468L36.1491 41.9385C36.0777 42.0102 35.9927 42.0671 35.8992 42.1058C35.8056 42.1446 35.7054 42.1645 35.6041 42.1643Z" fill="url(#paint17_linear_3287_390614)"/>
</g>
<defs>
<linearGradient id="paint0_linear_3287_390614" x1="57.2784" y1="71.8471" x2="28.5834" y2="60.8784" gradientUnits="userSpaceOnUse">
<stop offset="0.072" stop-color="#FD9B02"/>
<stop offset="1" stop-color="#FF7302"/>
</linearGradient>
<linearGradient id="paint1_linear_3287_390614" x1="39.081" y1="68.928" x2="67.776" y2="57.1759" gradientUnits="userSpaceOnUse">
<stop stop-color="#FD9B02"/>
<stop offset="1" stop-color="#FF7302"/>
</linearGradient>
<linearGradient id="paint2_linear_3287_390614" x1="41" y1="51.5543" x2="41" y2="70.5842" gradientUnits="userSpaceOnUse">
<stop stop-color="#FD9B02"/>
<stop offset="1" stop-color="#FF7302"/>
</linearGradient>
<linearGradient id="paint3_linear_3287_390614" x1="47.5" y1="37.2558" x2="47.5" y2="60.7676" gradientUnits="userSpaceOnUse">
<stop offset="0.125" stop-color="#FD9B02"/>
<stop offset="1" stop-color="#FF7302"/>
</linearGradient>
<linearGradient id="paint4_linear_3287_390614" x1="47.9601" y1="58.4194" x2="55.1094" y2="70.0737" gradientUnits="userSpaceOnUse">
<stop stop-color="#FED200"/>
<stop offset="1" stop-color="#F59815"/>
</linearGradient>
<linearGradient id="paint5_linear_3287_390614" x1="33.8875" y1="58.7426" x2="26.7383" y2="70.0052" gradientUnits="userSpaceOnUse">
<stop stop-color="#FED200"/>
<stop offset="1" stop-color="#F59815"/>
</linearGradient>
<linearGradient id="paint6_linear_3287_390614" x1="33.6707" y1="52.6848" x2="27.8925" y2="41.6181" gradientUnits="userSpaceOnUse">
<stop stop-color="#FED200"/>
<stop offset="1" stop-color="#F59815"/>
</linearGradient>
<linearGradient id="paint7_linear_3287_390614" x1="47.9641" y1="52.8521" x2="55.0155" y2="41.7854" gradientUnits="userSpaceOnUse">
<stop stop-color="#FED200"/>
<stop offset="1" stop-color="#F59815"/>
</linearGradient>
<linearGradient id="paint8_linear_3287_390614" x1="28.5459" y1="55.0664" x2="18.3657" y2="65.729" gradientUnits="userSpaceOnUse">
<stop stop-color="#E85155"/>
<stop offset="1" stop-color="#FE7073"/>
</linearGradient>
<linearGradient id="paint9_linear_3287_390614" x1="23.4455" y1="60.3264" x2="19.6754" y2="64.4549" gradientUnits="userSpaceOnUse">
<stop stop-color="white"/>
<stop offset="1" stop-color="#F2EDED"/>
</linearGradient>
<linearGradient id="paint10_linear_3287_390614" x1="15.9161" y1="45.949" x2="9.68442" y2="44.3797" gradientUnits="userSpaceOnUse">
<stop stop-color="#E85155"/>
<stop offset="1" stop-color="#FD6F72"/>
</linearGradient>
<linearGradient id="paint11_linear_3287_390614" x1="12.8256" y1="45.1452" x2="10.4496" y2="44.6027" gradientUnits="userSpaceOnUse">
<stop stop-color="white"/>
<stop offset="1" stop-color="#F2EDED"/>
</linearGradient>
<linearGradient id="paint12_linear_3287_390614" x1="62.2699" y1="51.1764" x2="70.1077" y2="56.1493" gradientUnits="userSpaceOnUse">
<stop stop-color="#E85155"/>
<stop offset="1" stop-color="#FD6F72"/>
</linearGradient>
<linearGradient id="paint13_linear_3287_390614" x1="66.184" y1="53.6178" x2="69.1139" y2="55.5693" gradientUnits="userSpaceOnUse">
<stop stop-color="white"/>
<stop offset="1" stop-color="#F2EDED"/>
</linearGradient>
<linearGradient id="paint14_linear_3287_390614" x1="28.1367" y1="23.1366" x2="52.6295" y2="47.6294" gradientUnits="userSpaceOnUse">
<stop stop-color="#E85155"/>
<stop offset="1" stop-color="#C21D2C"/>
</linearGradient>
<linearGradient id="paint15_linear_3287_390614" x1="34.7104" y1="29.708" x2="45.5509" y2="40.5485" gradientUnits="userSpaceOnUse">
<stop stop-color="white"/>
<stop offset="1" stop-color="#F2EDED"/>
</linearGradient>
<linearGradient id="paint16_linear_3287_390614" x1="34.7106" y1="29.7077" x2="45.5511" y2="40.5482" gradientUnits="userSpaceOnUse">
<stop stop-color="white"/>
<stop offset="1" stop-color="#F2EDED"/>
</linearGradient>
<linearGradient id="paint17_linear_3287_390614" x1="34.7103" y1="29.708" x2="45.5507" y2="40.5484" gradientUnits="userSpaceOnUse">
<stop stop-color="white"/>
<stop offset="1" stop-color="#F2EDED"/>
</linearGradient>
<clipPath id="clip0_3287_390614">
<rect width="80" height="80" fill="white"/>
</clipPath>
<clipPath id="clip1_3287_390614">
<rect width="6.77635" height="6.77635" fill="white" transform="translate(13.3555 40.3627) rotate(59.1345)"/>
</clipPath>
<clipPath id="clip2_3287_390614">
<rect width="9.788" height="9.788" fill="white" transform="matrix(-0.975895 0.218243 0.218243 0.975895 70.6704 48.3095)"/>
</clipPath>
</defs>
</svg>
