<svg width="80" height="80" viewBox="0 0 80 80" fill="none" xmlns="http://www.w3.org/2000/svg">
<path d="M77.5 43.7798C77.5 51.8622 73.4208 58.954 67.284 62.9571C63.0149 65.7411 60 70 55.3324 72.52C54.0803 73.196 49 73.5 44.5 72C41.5 71 34.5 75 34.5 75C29.5 76.5 26.206 71.1647 21.5619 70.5143C13.5237 69.3904 2.5 64.8104 2.5 48.5993C2.5 42.8681 4.31485 37.6078 7.55993 33.523C10.305 30.0669 12.579 26.2434 14.5188 22.243C19.0403 12.9061 28.3477 6.5 39.0998 6.5C47.8447 6.5 55.6353 10.7371 60.6712 17.3419C63.0365 20.4442 65.7167 23.2853 68.7671 25.6583C74.0674 29.7866 77.4976 36.3668 77.4976 43.7771L77.5 43.7798Z" fill="#FFF5F6"/>
<g opacity="0.6">
<path d="M21.844 14.9395C22.8624 14.9395 23.6879 14.1134 23.6879 13.0945C23.6879 12.0755 22.8624 11.2495 21.844 11.2495C20.8256 11.2495 20 12.0755 20 13.0945C20 14.1134 20.8256 14.9395 21.844 14.9395Z" fill="#F48351"/>
<mask id="mask0_3277_4039" style="mask-type:luminance" maskUnits="userSpaceOnUse" x="20" y="11" width="4" height="4">
<path d="M21.844 14.939C22.8624 14.939 23.6879 14.1129 23.6879 13.094C23.6879 12.075 22.8624 11.249 21.844 11.249C20.8256 11.249 20 12.075 20 13.094C20 14.1129 20.8256 14.939 21.844 14.939Z" fill="white"/>
</mask>
<g mask="url(#mask0_3277_4039)">
<path d="M21.341 14.4605C22.3594 14.4605 23.185 13.6344 23.185 12.6155C23.185 11.5965 22.3594 10.7705 21.341 10.7705C20.3226 10.7705 19.4971 11.5965 19.4971 12.6155C19.4971 13.6344 20.3226 14.4605 21.341 14.4605Z" fill="#FF9F5B"/>
</g>
</g>
<path d="M71.5258 60.554C73.0588 60.554 74.3015 59.3106 74.3015 57.7768C74.3015 56.2429 73.0588 54.9995 71.5258 54.9995C69.9927 54.9995 68.75 56.2429 68.75 57.7768C68.75 59.3106 69.9927 60.554 71.5258 60.554Z" fill="#F48351"/>
<mask id="mask1_3277_4039" style="mask-type:luminance" maskUnits="userSpaceOnUse" x="68" y="55" width="7" height="6">
<path d="M71.5267 60.5545C73.0597 60.5545 74.3025 59.3111 74.3025 57.7773C74.3025 56.2434 73.0597 55 71.5267 55C69.9937 55 68.751 56.2434 68.751 57.7773C68.751 59.3111 69.9937 60.5545 71.5267 60.5545Z" fill="white"/>
</mask>
<g mask="url(#mask1_3277_4039)">
<path d="M70.7679 59.8277C72.301 59.8277 73.5437 58.5843 73.5437 57.0505C73.5437 55.5166 72.301 54.2732 70.7679 54.2732C69.2349 54.2732 67.9922 55.5166 67.9922 57.0505C67.9922 58.5843 69.2349 59.8277 70.7679 59.8277Z" fill="#FF9F5B"/>
</g>
<g clip-path="url(#clip0_3277_4039)">
<path d="M32.9994 61.4993V59.3013C32.9732 58.4024 32.7469 57.5207 32.337 56.7203C31.9271 55.9199 31.3439 55.2209 30.6299 54.6743C28.3545 52.8291 26.6746 50.3531 25.8009 47.5569C24.9273 44.7606 24.8987 41.7687 25.7188 38.9563C26.539 36.1439 28.1713 33.6363 30.4111 31.748C32.6509 29.8598 35.3983 28.6749 38.3089 28.342C38.8703 28.281 39.4347 28.25 39.9994 28.2493C43.1021 28.2513 46.1265 29.2234 48.6492 31.0296C51.172 32.8359 53.0668 35.3857 54.0684 38.3223C55.07 41.2589 55.1283 44.4351 54.2351 47.4065C53.3419 50.3778 51.5419 52.9955 49.0872 54.893C48.4172 55.4445 47.8813 56.1409 47.5196 56.9297C47.158 57.7184 46.9801 58.579 46.9994 59.4465V61.4993H32.9994Z" fill="url(#paint0_linear_3277_4039)"/>
<path d="M43.4995 47.4998H36.4995C36.0354 47.4998 35.5903 47.6841 35.2621 48.0123C34.9339 48.3405 34.7495 48.7856 34.7495 49.2498C34.7495 49.7139 34.9339 50.159 35.2621 50.4872C35.5903 50.8154 36.0354 50.9998 36.4995 50.9998H38.2495V59.7498C38.2495 60.2139 38.4339 60.659 38.7621 60.9872C39.0903 61.3154 39.5354 61.4998 39.9995 61.4998C40.4636 61.4998 40.9088 61.3154 41.2369 60.9872C41.5651 60.659 41.7495 60.2139 41.7495 59.7498V50.9998H43.4995C43.9636 50.9998 44.4088 50.8154 44.7369 50.4872C45.0651 50.159 45.2495 49.7139 45.2495 49.2498C45.2495 48.7856 45.0651 48.3405 44.7369 48.0123C44.4088 47.6841 43.9636 47.4998 43.4995 47.4998Z" fill="url(#paint1_linear_3277_4039)"/>
<path d="M38.25 68.4995C36.8576 68.4995 35.5223 67.9464 34.5377 66.9618C33.5531 65.9773 33 64.6419 33 63.2495V59.3015H47V63.2495C47 64.6419 46.4469 65.9773 45.4623 66.9618C44.4777 67.9464 43.1424 68.4995 41.75 68.4995H38.25Z" fill="url(#paint2_linear_3277_4039)"/>
<path d="M40.0005 26.5007C40.4646 26.5007 40.9097 26.3164 41.2379 25.9882C41.5661 25.66 41.7505 25.2149 41.7505 24.7507V21.2507C41.7505 20.7866 41.5661 20.3415 41.2379 20.0133C40.9097 19.6851 40.4646 19.5007 40.0005 19.5007C39.5364 19.5007 39.0912 19.6851 38.7631 20.0133C38.4349 20.3415 38.2505 20.7866 38.2505 21.2507V24.7507C38.2505 25.2149 38.4349 25.66 38.7631 25.9882C39.0912 26.3164 39.5364 26.5007 40.0005 26.5007Z" fill="#FAC100"/>
<path d="M61.876 41.376H58.376C57.9118 41.376 57.4667 41.5604 57.1385 41.8885C56.8103 42.2167 56.626 42.6618 56.626 43.126C56.626 43.5901 56.8103 44.0352 57.1385 44.3634C57.4667 44.6916 57.9118 44.876 58.376 44.876H61.876C62.3401 44.876 62.7852 44.6916 63.1134 44.3634C63.4416 44.0352 63.626 43.5901 63.626 43.126C63.626 42.6618 63.4416 42.2167 63.1134 41.8885C62.7852 41.5604 62.3401 41.376 61.876 41.376Z" fill="#FAC100"/>
<path d="M21.6255 41.3757H18.1255C17.6614 41.3757 17.2162 41.5601 16.8881 41.8883C16.5599 42.2165 16.3755 42.6616 16.3755 43.1257C16.3755 43.5899 16.5599 44.035 16.8881 44.3632C17.2162 44.6914 17.6614 44.8757 18.1255 44.8757H21.6255C22.0896 44.8757 22.5347 44.6914 22.8629 44.3632C23.1911 44.035 23.3755 43.5899 23.3755 43.1257C23.3755 42.6616 23.1911 42.2165 22.8629 41.8883C22.5347 41.5601 22.0896 41.3757 21.6255 41.3757Z" fill="#FAC100"/>
<path d="M52.9947 31.8822C53.2246 31.8828 53.4524 31.8378 53.6648 31.7498C53.8771 31.6618 54.0699 31.5325 54.232 31.3694L56.7065 28.8949C57.0253 28.5649 57.2017 28.1228 57.1977 27.664C57.1937 27.2051 57.0096 26.7662 56.6852 26.4418C56.3607 26.1173 55.9218 25.9333 55.4629 25.9293C55.0041 25.9253 54.562 26.1017 54.232 26.4204L51.7575 28.8949C51.5128 29.1397 51.3462 29.4515 51.2787 29.7909C51.2112 30.1303 51.2459 30.4821 51.3783 30.8018C51.5107 31.1216 51.735 31.3949 52.0227 31.5871C52.3104 31.7794 52.6487 31.8821 52.9947 31.8822Z" fill="#FAC100"/>
<path d="M25.769 31.3688C26.0991 31.6875 26.5411 31.8639 27 31.8599C27.4588 31.8559 27.8977 31.6719 28.2222 31.3474C28.5467 31.023 28.7307 30.584 28.7347 30.1252C28.7387 29.6664 28.5623 29.2243 28.2435 28.8943L25.769 26.4198C25.6076 26.2526 25.4145 26.1193 25.201 26.0276C24.9875 25.9359 24.7578 25.8876 24.5255 25.8856C24.2931 25.8835 24.0627 25.9278 23.8476 26.0158C23.6325 26.1038 23.4371 26.2337 23.2728 26.3981C23.1085 26.5624 22.9786 26.7578 22.8906 26.9728C22.8026 27.1879 22.7583 27.4183 22.7603 27.6507C22.7623 27.8831 22.8106 28.1127 22.9023 28.3262C22.994 28.5397 23.1274 28.7328 23.2945 28.8943L25.769 31.3688Z" fill="#FAC100"/>
<g opacity="0.25">
<path d="M12.8058 58.1111C13.6645 58.1111 14.3606 57.4146 14.3606 56.5554C14.3606 55.6962 13.6645 54.9998 12.8058 54.9998C11.9471 54.9998 11.251 55.6962 11.251 56.5554C11.251 57.4146 11.9471 58.1111 12.8058 58.1111Z" fill="#F48351"/>
<mask id="mask2_3277_4039" style="mask-type:luminance" maskUnits="userSpaceOnUse" x="11" y="54" width="4" height="5">
<path d="M12.8043 58.1111C13.663 58.1111 14.3591 57.4146 14.3591 56.5554C14.3591 55.6962 13.663 54.9998 12.8043 54.9998C11.9456 54.9998 11.2495 55.6962 11.2495 56.5554C11.2495 57.4146 11.9456 58.1111 12.8043 58.1111Z" fill="white"/>
</mask>
<g mask="url(#mask2_3277_4039)">
<path d="M12.382 57.7082C13.2406 57.7082 13.9368 57.0117 13.9368 56.1526C13.9368 55.2934 13.2406 54.5969 12.382 54.5969C11.5233 54.5969 10.8271 55.2934 10.8271 56.1526C10.8271 57.0117 11.5233 57.7082 12.382 57.7082Z" fill="#FF9F5B"/>
</g>
</g>
</g>
<defs>
<linearGradient id="paint0_linear_3277_4039" x1="28.4739" y1="33.774" x2="51.1277" y2="56.426" gradientUnits="userSpaceOnUse">
<stop stop-color="#FED200"/>
<stop offset="1" stop-color="#F59815"/>
</linearGradient>
<linearGradient id="paint1_linear_3277_4039" x1="33.5613" y1="46.3115" x2="47.1675" y2="59.9178" gradientUnits="userSpaceOnUse">
<stop stop-color="#FD9B02"/>
<stop offset="1" stop-color="#FF7302"/>
</linearGradient>
<linearGradient id="paint2_linear_3277_4039" x1="33" y1="63.9005" x2="47" y2="63.9005" gradientUnits="userSpaceOnUse">
<stop stop-color="#E7585F"/>
<stop offset="1" stop-color="#CC2C38"/>
</linearGradient>
<clipPath id="clip0_3277_4039">
<rect width="56" height="56" fill="white" transform="translate(11.9995 15.9998)"/>
</clipPath>
</defs>
</svg>
