<svg viewBox="0 0 24 25" xmlns="http://www.w3.org/2000/svg" fill="#e5103f">
  <path
    d="M20.62 8.575C19.57 3.955 15.54 1.875 12 1.875C12 1.875 12 1.875 11.99 1.875C8.45997 1.875 4.41997 3.945 3.36997 8.565C2.19997 13.725 5.35997 18.095 8.21997 20.845C9.27997 21.865 10.64 22.375 12 22.375C13.36 22.375 14.72 21.865 15.77 20.845C18.63 18.095 21.79 13.735 20.62 8.575ZM12 13.585C10.26 13.585 8.84997 12.175 8.84997 10.435C8.84997 8.695 10.26 7.285 12 7.285C13.74 7.285 15.15 8.695 15.15 10.435C15.15 12.175 13.74 13.585 12 13.585Z"
  />
</svg>
