<svg width="64" height="64" viewBox="0 0 64 64" fill="none" xmlns="http://www.w3.org/2000/svg">
<path d="M62 35.023C62 41.489 58.7367 47.1624 53.8272 50.3649C50.4119 52.5921 48 55.9992 44.266 58.0152C43.2642 58.556 39.2 58.7992 35.6 57.5992C33.2 56.7992 27.6 59.9992 27.6 59.9992C23.6 61.1992 20.9648 56.931 17.2495 56.4107C10.819 55.5115 2.00003 51.8475 2.00003 38.8786C2.00003 34.2937 3.45191 30.0854 6.04798 26.8176C8.24406 24.0527 10.0632 20.9939 11.6151 17.7936C15.2323 10.3241 22.6782 5.19922 31.2799 5.19922C38.2758 5.19922 44.5083 8.58893 48.537 13.8727C50.4292 16.3546 52.5734 18.6274 55.0137 20.5259C59.254 23.8285 61.9981 29.0927 61.9981 35.0209L62 35.023Z" fill="#FFF5F6"/>
<path d="M60.2207 32.0435C61.4471 32.0435 62.4413 31.0487 62.4413 29.8217C62.4413 28.5946 61.4471 27.5999 60.2207 27.5999C58.9943 27.5999 58.0001 28.5946 58.0001 29.8217C58.0001 31.0487 58.9943 32.0435 60.2207 32.0435Z" fill="#F48351"/>
<mask id="mask0_3115_386726" style="mask-type:luminance" maskUnits="userSpaceOnUse" x="58" y="27" width="5" height="6">
<path d="M60.2207 32.0449C61.4471 32.0449 62.4413 31.0502 62.4413 29.8231C62.4413 28.5961 61.4471 27.6013 60.2207 27.6013C58.9943 27.6013 58.0001 28.5961 58.0001 29.8231C58.0001 31.0502 58.9943 32.0449 60.2207 32.0449Z" fill="white"/>
</mask>
<g mask="url(#mask0_3115_386726)">
<path d="M59.6148 31.4644C60.8412 31.4644 61.8354 30.4696 61.8354 29.2426C61.8354 28.0155 60.8412 27.0208 59.6148 27.0208C58.3884 27.0208 57.3942 28.0155 57.3942 29.2426C57.3942 30.4696 58.3884 31.4644 59.6148 31.4644Z" fill="#FF9F5B"/>
</g>
<g opacity="0.25">
<path d="M8.84388 30.8882C9.53083 30.8882 10.0877 30.331 10.0877 29.6437C10.0877 28.9564 9.53083 28.3992 8.84388 28.3992C8.15692 28.3992 7.60004 28.9564 7.60004 29.6437C7.60004 30.331 8.15692 30.8882 8.84388 30.8882Z" fill="#F48351"/>
<mask id="mask1_3115_386726" style="mask-type:luminance" maskUnits="userSpaceOnUse" x="7" y="28" width="4" height="3">
<path d="M8.84388 30.8882C9.53083 30.8882 10.0877 30.331 10.0877 29.6437C10.0877 28.9564 9.53083 28.3992 8.84388 28.3992C8.15692 28.3992 7.60004 28.9564 7.60004 29.6437C7.60004 30.331 8.15692 30.8882 8.84388 30.8882Z" fill="white"/>
</mask>
<g mask="url(#mask1_3115_386726)">
<path d="M8.50532 30.5647C9.19227 30.5647 9.74916 30.0075 9.74916 29.3202C9.74916 28.6329 9.19227 28.0757 8.50532 28.0757C7.81836 28.0757 7.26147 28.6329 7.26147 29.3202C7.26147 30.0075 7.81836 30.5647 8.50532 30.5647Z" fill="#FF9F5B"/>
</g>
</g>
<path d="M37.4001 33.3989H20.4001C19.8699 33.3995 19.3615 33.6104 18.9865 33.9853C18.6115 34.3602 18.4006 34.8686 18.4001 35.3989V49.399C18.4001 49.6642 18.5055 49.9185 18.693 50.106C18.8805 50.2935 19.1349 50.3989 19.4001 50.3989H38.4001C38.6653 50.3989 38.9196 50.2935 39.1072 50.106C39.2947 49.9185 39.4 49.6641 39.4001 49.399V35.3989C39.3995 34.8686 39.1886 34.3603 38.8137 33.9853C38.4387 33.6104 37.9303 33.3995 37.4001 33.3989Z" fill="url(#paint0_linear_3115_386726)"/>
<path d="M26.4001 33.3989V38.8981C26.4001 38.9866 26.4235 39.0735 26.4681 39.15C26.5126 39.2264 26.5767 39.2897 26.6537 39.3333C26.7307 39.3769 26.8179 39.3993 26.9064 39.3981C26.9948 39.397 27.0814 39.3725 27.1573 39.3269L28.9 38.2812L30.6428 39.3269C30.7187 39.3725 30.8053 39.397 30.8938 39.3981C30.9823 39.3993 31.0695 39.3769 31.1465 39.3333C31.2235 39.2897 31.2875 39.2264 31.3321 39.15C31.3766 39.0735 31.4001 38.9866 31.4001 38.8981V33.3989H26.4001Z" fill="url(#paint1_linear_3115_386726)"/>
<path d="M42.2242 47.5164C42.0011 46.9279 41.5841 46.4331 41.0419 46.1135C40.4997 45.7939 39.8648 45.6687 39.2418 45.7586L31.9962 46.8326C31.9899 46.2772 31.813 45.7372 31.4895 45.2857C31.166 44.8342 30.7115 44.493 30.1876 44.3085L23.9611 42.268C22.8291 41.8997 21.609 41.903 20.4791 42.2774L14.0836 44.4117C13.8846 44.4781 13.7115 44.6054 13.5888 44.7756C13.4661 44.9458 13.4 45.1503 13.4 45.3602V52.774C13.4001 52.9193 13.4317 53.0628 13.4929 53.1946C13.554 53.3264 13.6431 53.4433 13.754 53.5372C13.8648 53.6311 13.9948 53.6997 14.1349 53.7382C14.275 53.7767 14.4218 53.7843 14.5651 53.7604L19.2609 52.9737C19.6054 52.9161 19.9593 52.9694 20.2716 53.1259L23.3404 54.6603C24.162 55.0738 25.0574 55.3203 25.9748 55.3855C26.8922 55.4507 27.8134 55.3333 28.6852 55.0401L40.5165 51.0963C40.8677 50.9791 41.1917 50.7924 41.4692 50.5472C41.7466 50.3021 41.9718 50.0035 42.1312 49.6693C42.2906 49.3351 42.3811 48.9723 42.3971 48.6024C42.4131 48.2324 42.3544 47.8631 42.2244 47.5164H42.2242Z" fill="url(#paint2_linear_3115_386726)"/>
<path d="M13.4314 41.9304H11.4313C10.3268 41.9304 9.43137 42.8258 9.43137 43.9304V52.9305C9.43137 54.035 10.3268 54.9305 11.4313 54.9305H13.4314C14.536 54.9305 15.4314 54.035 15.4314 52.9305V43.9304C15.4314 42.8258 14.536 41.9304 13.4314 41.9304Z" fill="url(#paint3_linear_3115_386726)"/>
<path d="M48.6172 14.4479L35.7461 11.5856C34.1623 11.211 32.4974 11.4009 31.0386 12.1227L27.1421 13.9091C26.2291 14.3673 25.4267 15.0187 24.7906 15.818L22.4404 18.7762C22.3236 18.9235 22.2506 19.1008 22.2299 19.2876C22.2092 19.4745 22.2415 19.6635 22.3233 19.8328C22.4051 20.0021 22.5329 20.145 22.6921 20.2449C22.8514 20.3449 23.0356 20.398 23.2236 20.3981H48.3999C48.6651 20.3981 48.9194 20.2928 49.1069 20.1053C49.2945 19.9178 49.3999 19.6635 49.3999 19.3983V15.4239C49.3999 15.1964 49.3224 14.9758 49.1801 14.7983C49.0378 14.6209 48.8392 14.4973 48.6172 14.4479Z" fill="url(#paint4_linear_3115_386726)"/>
<path d="M41.4001 18.3989H20.4C19.2955 18.3989 18.4001 19.2943 18.4001 20.3989V29.399C18.4001 30.5035 19.2955 31.399 20.4 31.399H41.4001C42.5047 31.399 43.4001 30.5035 43.4001 29.399V20.3989C43.4001 19.2943 42.5047 18.3989 41.4001 18.3989Z" fill="url(#paint5_linear_3115_386726)"/>
<path d="M24.4 28.9004H21.9001C21.6348 28.9004 21.3805 28.795 21.1929 28.6075C21.0054 28.42 20.9 28.1656 20.9 27.9004V21.9004C20.9 21.6352 21.0054 21.3808 21.193 21.1933C21.3805 21.0058 21.6348 20.9004 21.9001 20.9004H24.4C24.5321 20.8992 24.6632 20.9241 24.7857 20.9738C24.9081 21.0234 25.0195 21.0969 25.1134 21.1899C25.2073 21.2829 25.2818 21.3935 25.3327 21.5155C25.3835 21.6375 25.4097 21.7683 25.4097 21.9004C25.4097 22.0326 25.3835 22.1634 25.3327 22.2854C25.2818 22.4073 25.2073 22.518 25.1134 22.611C25.0195 22.7039 24.9081 22.7774 24.7857 22.8271C24.6632 22.8768 24.5321 22.9017 24.4 22.9004H22.9V26.9004H24.4C24.5321 26.8992 24.6632 26.9241 24.7857 26.9738C24.9081 27.0234 25.0195 27.0969 25.1134 27.1899C25.2073 27.2829 25.2818 27.3935 25.3327 27.5155C25.3835 27.6375 25.4097 27.7683 25.4097 27.9004C25.4097 28.0326 25.3835 28.1634 25.3327 28.2854C25.2818 28.4073 25.2073 28.518 25.1134 28.611C25.0195 28.704 24.9081 28.7774 24.7857 28.8271C24.6632 28.8768 24.5321 28.9017 24.4 28.9004Z" fill="url(#paint6_linear_3115_386726)"/>
<path d="M37.4001 28.9004H39.9001C40.1653 28.9004 40.4196 28.795 40.6072 28.6075C40.7947 28.4199 40.9 28.1656 40.9 27.9004V21.9004C40.9 21.6352 40.7947 21.3809 40.6071 21.1933C40.4196 21.0058 40.1653 20.9005 39.9001 20.9004H37.4001C37.2679 20.8992 37.1369 20.9241 37.0144 20.9738C36.892 21.0234 36.7806 21.0969 36.6867 21.1899C36.5928 21.2829 36.5183 21.3935 36.4674 21.5155C36.4165 21.6375 36.3904 21.7683 36.3904 21.9004C36.3904 22.0326 36.4165 22.1634 36.4674 22.2854C36.5183 22.4073 36.5928 22.518 36.6867 22.611C36.7806 22.7039 36.892 22.7774 37.0144 22.8271C37.1369 22.8768 37.2679 22.9017 37.4001 22.9004H38.9001V26.9004H37.4001C37.2679 26.8992 37.1369 26.9241 37.0144 26.9738C36.892 27.0234 36.7806 27.0969 36.6867 27.1899C36.5928 27.2829 36.5183 27.3935 36.4674 27.5155C36.4165 27.6375 36.3904 27.7683 36.3904 27.9004C36.3904 28.0326 36.4165 28.1634 36.4674 28.2854C36.5183 28.4073 36.5928 28.518 36.6867 28.611C36.7806 28.704 36.892 28.7774 37.0144 28.8271C37.1369 28.8768 37.2679 28.9017 37.4001 28.9004Z" fill="url(#paint7_linear_3115_386726)"/>
<path d="M30.9001 28.9005C33.1092 28.9005 34.9001 27.1096 34.9001 24.9004C34.9001 22.6913 33.1092 20.9004 30.9001 20.9004C28.6909 20.9004 26.9 22.6913 26.9 24.9004C26.9 27.1096 28.6909 28.9005 30.9001 28.9005Z" fill="url(#paint8_linear_3115_386726)"/>
<path d="M48.4 16.3967H40.9C40.6948 16.3968 40.4945 16.46 40.3264 16.5778C40.1582 16.6955 40.0304 16.8621 39.9601 17.0549L39.2399 19.0359C39.0607 19.5251 38.7578 19.9594 38.3606 20.2965C37.9634 20.6336 37.4856 20.8619 36.9738 20.9592L30.3831 22.1948C29.8634 22.2913 29.3985 22.5786 29.0798 23.0004C28.761 23.4221 28.6114 23.9477 28.6604 24.4741C28.7093 25.0004 28.9532 25.4895 29.3443 25.8452C29.7353 26.2009 30.2452 26.3976 30.7738 26.3967H41.1193C42.1044 26.3981 43.0785 26.1901 43.9772 25.7866L48.8077 23.6304C48.9841 23.5517 49.1339 23.4235 49.2391 23.2615C49.3442 23.0994 49.4001 22.9104 49.4001 22.7173V17.3967C49.4 17.1315 49.2947 16.8771 49.1071 16.6896C48.9196 16.5021 48.6652 16.3967 48.4 16.3967Z" fill="url(#paint9_linear_3115_386726)"/>
<path d="M51.4001 12.3992H49.4001C48.2955 12.3992 47.4001 13.2946 47.4001 14.3991V23.3992C47.4001 24.5038 48.2955 25.3992 49.4001 25.3992H51.4001C52.5047 25.3992 53.4001 24.5038 53.4001 23.3992V14.3991C53.4001 13.2946 52.5047 12.3992 51.4001 12.3992Z" fill="url(#paint10_linear_3115_386726)"/>
<g opacity="0.6">
<path d="M51.8377 45.133C52.7107 45.133 53.4183 44.425 53.4183 43.5516C53.4183 42.6782 52.7107 41.9702 51.8377 41.9702C50.9648 41.9702 50.2572 42.6782 50.2572 43.5516C50.2572 44.425 50.9648 45.133 51.8377 45.133Z" fill="#F48351"/>
<mask id="mask2_3115_386726" style="mask-type:luminance" maskUnits="userSpaceOnUse" x="50" y="41" width="4" height="5">
<path d="M51.8377 45.1259C52.7106 45.1259 53.4182 44.4179 53.4182 43.5445C53.4182 42.6712 52.7106 41.9631 51.8377 41.9631C50.9647 41.9631 50.2571 42.6712 50.2571 43.5445C50.2571 44.4179 50.9647 45.1259 51.8377 45.1259Z" fill="white"/>
</mask>
<g mask="url(#mask2_3115_386726)">
<path d="M51.4066 44.7151C52.2795 44.7151 52.9871 44.007 52.9871 43.1337C52.9871 42.2603 52.2795 41.5522 51.4066 41.5522C50.5337 41.5522 49.826 42.2603 49.826 43.1337C49.826 44.007 50.5337 44.7151 51.4066 44.7151Z" fill="#FF9F5B"/>
</g>
</g>
<defs>
<linearGradient id="paint0_linear_3115_386726" x1="28.9001" y1="33.3454" x2="28.9001" y2="47.2593" gradientUnits="userSpaceOnUse">
<stop stop-color="#FED200"/>
<stop offset="1" stop-color="#F59815"/>
</linearGradient>
<linearGradient id="paint1_linear_3115_386726" x1="28.9" y1="33.5864" x2="28.9" y2="39.7337" gradientUnits="userSpaceOnUse">
<stop stop-color="#FD9B02"/>
<stop offset="1" stop-color="#FF7302"/>
</linearGradient>
<linearGradient id="paint2_linear_3115_386726" x1="27.9008" y1="42.5064" x2="27.9008" y2="55.0427" gradientUnits="userSpaceOnUse">
<stop stop-color="#F1D2BD"/>
<stop offset="1" stop-color="#FEB592"/>
</linearGradient>
<linearGradient id="paint3_linear_3115_386726" x1="12.4314" y1="41.3914" x2="12.4314" y2="55.4952" gradientUnits="userSpaceOnUse">
<stop stop-color="#F46C71"/>
<stop offset="1" stop-color="#C62331"/>
</linearGradient>
<linearGradient id="paint4_linear_3115_386726" x1="35.8116" y1="11.1661" x2="35.8116" y2="25.759" gradientUnits="userSpaceOnUse">
<stop stop-color="#F1D2BD"/>
<stop offset="1" stop-color="#FEB592"/>
</linearGradient>
<linearGradient id="paint5_linear_3115_386726" x1="18.2043" y1="19.1158" x2="43.6072" y2="30.6872" gradientUnits="userSpaceOnUse">
<stop stop-color="#34CA82"/>
<stop offset="1" stop-color="#37A477"/>
</linearGradient>
<linearGradient id="paint6_linear_3115_386726" x1="17.3347" y1="21.9598" x2="41.2912" y2="34.0736" gradientUnits="userSpaceOnUse">
<stop stop-color="#37AA79"/>
<stop offset="1" stop-color="#398A70"/>
</linearGradient>
<linearGradient id="paint7_linear_3115_386726" x1="20.4909" y1="15.718" x2="44.4474" y2="27.8319" gradientUnits="userSpaceOnUse">
<stop stop-color="#37AA79"/>
<stop offset="1" stop-color="#398A70"/>
</linearGradient>
<linearGradient id="paint8_linear_3115_386726" x1="19.0437" y1="18.6793" x2="42.8194" y2="31.1548" gradientUnits="userSpaceOnUse">
<stop stop-color="#37AA79"/>
<stop offset="1" stop-color="#398A70"/>
</linearGradient>
<linearGradient id="paint9_linear_3115_386726" x1="39.0276" y1="11.1645" x2="39.0276" y2="25.7574" gradientUnits="userSpaceOnUse">
<stop stop-color="#F1D2BD"/>
<stop offset="1" stop-color="#FEB592"/>
</linearGradient>
<linearGradient id="paint10_linear_3115_386726" x1="50.4001" y1="11.8601" x2="50.4001" y2="25.964" gradientUnits="userSpaceOnUse">
<stop stop-color="#F46C71"/>
<stop offset="1" stop-color="#C62331"/>
</linearGradient>
</defs>
</svg>
