<svg width="80" height="80" viewBox="0 0 80 80" fill="none" xmlns="http://www.w3.org/2000/svg">
<path d="M77.5 43.779C77.5 51.8615 73.4208 58.9533 67.284 62.9564C63.0149 65.7403 60 69.9993 55.3324 72.5192C54.0803 73.1953 49 73.4993 44.5 71.9993C41.5 70.9993 34.5 74.9993 34.5 74.9993C29.5 76.4993 26.206 71.164 21.5619 70.5136C13.5237 69.3897 2.5 64.8096 2.5 48.5985C2.5 42.8674 4.31485 37.607 7.55993 33.5223C10.305 30.0662 12.579 26.2427 14.5188 22.2423C19.0403 12.9053 28.3477 6.49927 39.0998 6.49927C47.8447 6.49927 55.6353 10.7364 60.6712 17.3411C63.0365 20.4435 65.7167 23.2846 68.7671 25.6576C74.0674 29.7859 77.4976 36.3661 77.4976 43.7763L77.5 43.779Z" fill="#FFF5F6"/>
<g opacity="0.25">
<path d="M20.3048 65.6108C21.1635 65.6108 21.8596 64.9143 21.8596 64.0552C21.8596 63.196 21.1635 62.4995 20.3048 62.4995C19.4461 62.4995 18.75 63.196 18.75 64.0552C18.75 64.9143 19.4461 65.6108 20.3048 65.6108Z" fill="#F48351"/>
<mask id="mask0_3277_2877" style="mask-type:luminance" maskUnits="userSpaceOnUse" x="18" y="62" width="4" height="4">
<path d="M20.3048 65.6103C21.1635 65.6103 21.8596 64.9138 21.8596 64.0547C21.8596 63.1955 21.1635 62.499 20.3048 62.499C19.4461 62.499 18.75 63.1955 18.75 64.0547C18.75 64.9138 19.4461 65.6103 20.3048 65.6103Z" fill="white"/>
</mask>
<g mask="url(#mask0_3277_2877)">
<path d="M19.8815 65.207C20.7402 65.207 21.4363 64.5105 21.4363 63.6513C21.4363 62.7922 20.7402 62.0957 19.8815 62.0957C19.0228 62.0957 18.3267 62.7922 18.3267 63.6513C18.3267 64.5105 19.0228 65.207 19.8815 65.207Z" fill="#FF9F5B"/>
</g>
</g>
<path d="M11.5625 49.4204H13.4306C15.4594 49.4209 17.4333 50.0787 19.0569 51.2951L27.7369 57.8117C30.0856 59.5716 32.8146 60.7558 35.7043 61.2691C38.594 61.7824 41.5638 61.6104 44.375 60.767L52.4688 58.3367C53.1832 58.1222 53.8362 57.7405 54.3735 57.223C54.9108 56.7056 55.317 56.0675 55.5583 55.3617C55.7995 54.6558 55.869 53.9026 55.7608 53.1645C55.6526 52.4265 55.3699 51.7249 54.9362 51.1179L47.0241 40.0404L40.7547 30.2492L31.5672 27.1036C29.4409 26.3765 27.1246 26.4347 25.0375 27.2676L18.2344 29.9933C17.1254 30.4371 15.9419 30.665 14.7475 30.6648H11.5625V49.4204Z" fill="url(#paint0_linear_3277_2877)"/>
<path d="M68.4374 30.666H65.2503C64.0574 30.6661 62.8755 30.4389 61.7678 29.9966L55.1593 27.3519C52.9508 26.4692 50.4894 26.4583 48.2731 27.3213L32.7615 33.3632C32.1826 33.6206 31.6618 33.9926 31.2307 34.4569C30.7995 34.9212 30.467 35.468 30.2532 36.0644C30.0393 36.6608 29.9485 37.2944 29.9864 37.9268C30.0243 38.5593 30.1899 39.1775 30.4734 39.7441C31.1652 41.1269 32.3322 42.214 33.7605 42.8062C35.1888 43.3983 36.7826 43.456 38.2499 42.9685L47.024 40.0438L54.9362 51.1213C55.4139 51.7196 55.7214 52.4356 55.8265 53.194C55.9316 53.9523 55.8304 54.725 55.5334 55.4307L60.919 51.3357C62.5508 50.0938 64.5449 49.4214 66.5956 49.4216H68.4374V30.666Z" fill="url(#paint1_linear_3277_2877)"/>
<path d="M69.3999 28.4995H66.5998C65.0534 28.4995 63.7998 30.1388 63.7998 32.161V48.638C63.7998 50.6602 65.0534 52.2995 66.5998 52.2995H69.3999C70.9462 52.2995 72.1998 50.6602 72.1998 48.638V32.161C72.1998 30.1388 70.9462 28.4995 69.3999 28.4995Z" fill="url(#paint2_linear_3277_2877)"/>
<path d="M13.3999 28.4995H10.5998C9.05339 28.4995 7.7998 30.1388 7.7998 32.161V48.638C7.7998 50.6602 9.05339 52.2995 10.5998 52.2995H13.3999C14.9462 52.2995 16.1998 50.6602 16.1998 48.638V32.161C16.1998 30.1388 14.9462 28.4995 13.3999 28.4995Z" fill="url(#paint3_linear_3277_2877)"/>
<path d="M22.7758 15.554C24.3088 15.554 25.5515 14.3106 25.5515 12.7768C25.5515 11.2429 24.3088 9.99951 22.7758 9.99951C21.2427 9.99951 20 11.2429 20 12.7768C20 14.3106 21.2427 15.554 22.7758 15.554Z" fill="#F48351"/>
<mask id="mask1_3277_2877" style="mask-type:luminance" maskUnits="userSpaceOnUse" x="20" y="10" width="6" height="6">
<path d="M22.7758 15.5577C24.3088 15.5577 25.5515 14.3143 25.5515 12.7804C25.5515 11.2466 24.3088 10.0032 22.7758 10.0032C21.2427 10.0032 20 11.2466 20 12.7804C20 14.3143 21.2427 15.5577 22.7758 15.5577Z" fill="white"/>
</mask>
<g mask="url(#mask1_3277_2877)">
<path d="M22.0189 14.8321C23.5519 14.8321 24.7947 13.5887 24.7947 12.0549C24.7947 10.521 23.5519 9.27759 22.0189 9.27759C20.4859 9.27759 19.2432 10.521 19.2432 12.0549C19.2432 13.5887 20.4859 14.8321 22.0189 14.8321Z" fill="#FF9F5B"/>
</g>
<g opacity="0.6">
<path d="M63.2257 23.9618C64.3168 23.9618 65.2014 23.0768 65.2014 21.9851C65.2014 20.8933 64.3168 20.0083 63.2257 20.0083C62.1345 20.0083 61.25 20.8933 61.25 21.9851C61.25 23.0768 62.1345 23.9618 63.2257 23.9618Z" fill="#F48351"/>
<mask id="mask2_3277_2877" style="mask-type:luminance" maskUnits="userSpaceOnUse" x="61" y="19" width="5" height="5">
<path d="M63.2257 23.9525C64.3168 23.9525 65.2014 23.0675 65.2014 21.9758C65.2014 20.884 64.3168 19.999 63.2257 19.999C62.1345 19.999 61.25 20.884 61.25 21.9758C61.25 23.0675 62.1345 23.9525 63.2257 23.9525Z" fill="white"/>
</mask>
<g mask="url(#mask2_3277_2877)">
<path d="M62.6871 23.4389C63.7782 23.4389 64.6628 22.5538 64.6628 21.4621C64.6628 20.3704 63.7782 19.4854 62.6871 19.4854C61.596 19.4854 60.7114 20.3704 60.7114 21.4621C60.7114 22.5538 61.596 23.4389 62.6871 23.4389Z" fill="#FF9F5B"/>
</g>
</g>
<defs>
<linearGradient id="paint0_linear_3277_2877" x1="33.6912" y1="27.4995" x2="33.6912" y2="56.5648" gradientUnits="userSpaceOnUse">
<stop stop-color="#F1D2BD"/>
<stop offset="1" stop-color="#FEC1A3"/>
</linearGradient>
<linearGradient id="paint1_linear_3277_2877" x1="49.2071" y1="24.6875" x2="49.2071" y2="52.5388" gradientUnits="userSpaceOnUse">
<stop stop-color="#F3D9C7"/>
<stop offset="1" stop-color="#FED6C3"/>
</linearGradient>
<linearGradient id="paint2_linear_3277_2877" x1="67.9998" y1="27.5126" x2="67.9998" y2="53.3334" gradientUnits="userSpaceOnUse">
<stop stop-color="#FDCE01"/>
<stop offset="1" stop-color="#F69D13"/>
</linearGradient>
<linearGradient id="paint3_linear_3277_2877" x1="11.9998" y1="27.5126" x2="11.9998" y2="53.3334" gradientUnits="userSpaceOnUse">
<stop stop-color="#F46C71"/>
<stop offset="1" stop-color="#C62331"/>
</linearGradient>
</defs>
</svg>
