<svg width="64" height="64" viewBox="0 0 64 64" fill="none" xmlns="http://www.w3.org/2000/svg">
<path d="M62 35.023C62 41.489 58.7367 47.1624 53.8272 50.3649C50.4119 52.5921 47.2409 55.1893 44.266 58.0152C43.4406 58.7992 38.3037 58.7992 34.625 58.7992C32.1309 58.7992 27.125 58.7992 27.125 58.7992C23.8482 56.9052 20.9648 56.931 17.2495 56.4107C10.8189 55.5115 2 51.8475 2 38.8786C2 34.2937 3.45188 30.0854 6.04795 26.8176C8.24403 24.0527 10.0632 20.9939 11.6151 17.7936C15.2323 10.3241 22.6782 5.19922 31.2798 5.19922C38.2758 5.19922 44.5083 8.58893 48.537 13.8727C50.4292 16.3546 52.5734 18.6274 55.0137 20.5259C59.2539 23.8285 61.9981 29.0927 61.9981 35.0209L62 35.023Z" fill="#FFF5F6"/>
<path d="M57.8207 28.0435C59.0471 28.0435 60.0413 27.0487 60.0413 25.8217C60.0413 24.5946 59.0471 23.5999 57.8207 23.5999C56.5943 23.5999 55.6001 24.5946 55.6001 25.8217C55.6001 27.0487 56.5943 28.0435 57.8207 28.0435Z" fill="#F48351"/>
<mask id="mask0_3115_386578" style="mask-type:luminance" maskUnits="userSpaceOnUse" x="55" y="23" width="6" height="6">
<path d="M57.8208 28.0449C59.0472 28.0449 60.0414 27.0502 60.0414 25.8231C60.0414 24.5961 59.0472 23.6013 57.8208 23.6013C56.5944 23.6013 55.6002 24.5961 55.6002 25.8231C55.6002 27.0502 56.5944 28.0449 57.8208 28.0449Z" fill="white"/>
</mask>
<g mask="url(#mask0_3115_386578)">
<path d="M57.2149 27.4644C58.4413 27.4644 59.4355 26.4696 59.4355 25.2426C59.4355 24.0155 58.4413 23.0208 57.2149 23.0208C55.9885 23.0208 54.9943 24.0155 54.9943 25.2426C54.9943 26.4696 55.9885 27.4644 57.2149 27.4644Z" fill="#FF9F5B"/>
</g>
<path d="M31.6484 35.3676L22.2375 31.1849C22.1706 31.1552 22.0982 31.1399 22.0251 31.1399C21.9519 31.1399 21.8795 31.1552 21.8127 31.1849L12.4017 35.3676C12.3093 35.4087 12.2308 35.4757 12.1757 35.5604C12.1206 35.6452 12.0913 35.7442 12.0913 35.8453V47.3476C12.0913 47.4487 12.1206 47.5477 12.1757 47.6325C12.2308 47.7173 12.3093 47.7843 12.4017 47.8253L21.8127 52.008C21.8795 52.0377 21.9519 52.0531 22.0251 52.0531C22.0983 52.0531 22.1706 52.0377 22.2375 52.008L31.6484 47.8253C31.7408 47.7843 31.8193 47.7173 31.8744 47.6325C31.9295 47.5477 31.9588 47.4487 31.9588 47.3476V35.8453C31.9588 35.7442 31.9295 35.6452 31.8744 35.5604C31.8193 35.4757 31.7408 35.4087 31.6484 35.3676Z" fill="url(#paint0_linear_3115_386578)"/>
<path d="M22.2375 52.008L31.6484 47.8254C31.7408 47.7843 31.8193 47.7173 31.8744 47.6325C31.9295 47.5477 31.9588 47.4488 31.9588 47.3476V35.8454C31.9588 35.7442 31.9295 35.6453 31.8744 35.5605C31.8193 35.4757 31.7408 35.4087 31.6484 35.3676L22.2375 31.1849C22.1706 31.1553 22.0982 31.1399 22.025 31.1399V52.0531C22.0982 52.0531 22.1706 52.0377 22.2375 52.008Z" fill="url(#paint1_linear_3115_386578)"/>
<path d="M22.0251 40.0279L31.9091 35.6351C31.8585 35.5166 31.7656 35.4212 31.6485 35.3676L22.2376 31.1849C22.1707 31.1552 22.0983 31.1399 22.0251 31.1399C21.952 31.1399 21.8796 31.1552 21.8127 31.1849L12.4018 35.3676C12.2847 35.4212 12.1918 35.5166 12.1412 35.6351L22.0251 40.0279Z" fill="url(#paint2_linear_3115_386578)"/>
<path d="M17.6693 38.0934L27.724 33.6246L26.4366 33.0525L16.382 37.5212L17.6693 38.0934Z" fill="url(#paint3_linear_3115_386578)"/>
<path d="M51.3526 35.3676L41.9417 31.1849C41.8748 31.1552 41.8025 31.1399 41.7293 31.1399C41.6561 31.1399 41.5838 31.1552 41.5169 31.1849L32.1059 35.3676C32.0136 35.4087 31.9351 35.4757 31.88 35.5604C31.8249 35.6452 31.7955 35.7442 31.7955 35.8453V47.3476C31.7955 47.4487 31.8249 47.5477 31.88 47.6325C31.9351 47.7173 32.0136 47.7843 32.1059 47.8253L41.5169 52.008C41.5838 52.0377 41.6561 52.0531 41.7293 52.0531C41.8025 52.0531 41.8748 52.0377 41.9417 52.008L51.3526 47.8253C51.445 47.7843 51.5235 47.7173 51.5786 47.6325C51.6337 47.5477 51.6631 47.4487 51.6631 47.3476V35.8453C51.6631 35.7442 51.6337 35.6452 51.5786 35.5604C51.5235 35.4757 51.445 35.4087 51.3526 35.3676Z" fill="url(#paint4_linear_3115_386578)"/>
<path d="M41.9417 52.008L51.3526 47.8254C51.445 47.7843 51.5235 47.7173 51.5786 47.6325C51.6337 47.5477 51.663 47.4488 51.663 47.3476V35.8454C51.663 35.7442 51.6337 35.6453 51.5786 35.5605C51.5235 35.4757 51.445 35.4087 51.3526 35.3676L41.9417 31.1849C41.8748 31.1553 41.8024 31.1399 41.7292 31.1399V52.0531C41.8024 52.0531 41.8748 52.0377 41.9417 52.008Z" fill="url(#paint5_linear_3115_386578)"/>
<path d="M41.7293 40.0279L51.6133 35.6351C51.5627 35.5166 51.4698 35.4212 51.3527 35.3676L41.9418 31.1849C41.8749 31.1552 41.8025 31.1399 41.7294 31.1399C41.6562 31.1399 41.5838 31.1552 41.517 31.1849L32.106 35.3676C31.9889 35.4212 31.896 35.5166 31.8455 35.6351L41.7293 40.0279Z" fill="url(#paint6_linear_3115_386578)"/>
<path d="M37.3736 38.0934L47.4282 33.6246L46.1408 33.0525L36.0862 37.5212L37.3736 38.0934Z" fill="url(#paint7_linear_3115_386578)"/>
<path d="M41.4515 18.9948L32.0406 14.8121C31.9737 14.7824 31.9013 14.7671 31.8282 14.7671C31.755 14.7671 31.6826 14.7824 31.6158 14.8121L22.2048 18.9948C22.1124 19.0359 22.0339 19.1029 21.9788 19.1876C21.9237 19.2724 21.8944 19.3714 21.8944 19.4725V30.9748C21.8944 31.0759 21.9237 31.1749 21.9788 31.2597C22.0339 31.3445 22.1124 31.4115 22.2048 31.4525L31.6158 35.6352C31.6826 35.6649 31.755 35.6803 31.8282 35.6803C31.9014 35.6803 31.9737 35.6649 32.0406 35.6352L41.4515 31.4525C41.5439 31.4115 41.6224 31.3445 41.6775 31.2597C41.7326 31.1749 41.7619 31.0759 41.7619 30.9748V19.4725C41.7619 19.3714 41.7326 19.2724 41.6775 19.1876C41.6224 19.1029 41.5439 19.0359 41.4515 18.9948Z" fill="url(#paint8_linear_3115_386578)"/>
<path d="M32.0404 35.6352L41.4514 31.4526C41.5438 31.4115 41.6223 31.3445 41.6774 31.2597C41.7325 31.1749 41.7618 31.076 41.7618 30.9748V19.4726C41.7618 19.3714 41.7325 19.2725 41.6774 19.1877C41.6223 19.1029 41.5438 19.0359 41.4514 18.9948L32.0404 14.8121C31.9735 14.7825 31.9012 14.7671 31.828 14.7671V35.6803C31.9012 35.6803 31.9735 35.6649 32.0404 35.6352Z" fill="url(#paint9_linear_3115_386578)"/>
<path d="M31.8281 23.6551L41.712 19.2623C41.6615 19.1438 41.5686 19.0484 41.4515 18.9948L32.0405 14.8121C31.9737 14.7824 31.9013 14.7671 31.8281 14.7671C31.755 14.7671 31.6826 14.7824 31.6157 14.8121L22.2048 18.9948C22.0877 19.0484 21.9948 19.1438 21.9442 19.2623L31.8281 23.6551Z" fill="url(#paint10_linear_3115_386578)"/>
<path d="M27.4723 21.7206L37.527 17.2518L36.2396 16.6797L26.1849 21.1484L27.4723 21.7206Z" fill="url(#paint11_linear_3115_386578)"/>
<g opacity="0.25">
<path d="M20.0439 14.8882C20.7308 14.8882 21.2877 14.331 21.2877 13.6437C21.2877 12.9564 20.7308 12.3992 20.0439 12.3992C19.3569 12.3992 18.8 12.9564 18.8 13.6437C18.8 14.331 19.3569 14.8882 20.0439 14.8882Z" fill="#F48351"/>
<mask id="mask1_3115_386578" style="mask-type:luminance" maskUnits="userSpaceOnUse" x="18" y="12" width="4" height="3">
<path d="M20.0439 14.8882C20.7308 14.8882 21.2877 14.331 21.2877 13.6437C21.2877 12.9564 20.7308 12.3992 20.0439 12.3992C19.3569 12.3992 18.8 12.9564 18.8 13.6437C18.8 14.331 19.3569 14.8882 20.0439 14.8882Z" fill="white"/>
</mask>
<g mask="url(#mask1_3115_386578)">
<path d="M19.7051 14.5647C20.3921 14.5647 20.949 14.0075 20.949 13.3202C20.949 12.6329 20.3921 12.0757 19.7051 12.0757C19.0182 12.0757 18.4613 12.6329 18.4613 13.3202C18.4613 14.0075 19.0182 14.5647 19.7051 14.5647Z" fill="#FF9F5B"/>
</g>
</g>
<g opacity="0.6">
<path d="M57.0753 40.1502C57.89 40.1502 58.5504 39.4894 58.5504 38.6742C58.5504 37.8591 57.89 37.1982 57.0753 37.1982C56.2606 37.1982 55.6001 37.8591 55.6001 38.6742C55.6001 39.4894 56.2606 40.1502 57.0753 40.1502Z" fill="#F48351"/>
<mask id="mask2_3115_386578" style="mask-type:luminance" maskUnits="userSpaceOnUse" x="55" y="37" width="4" height="4">
<path d="M57.0754 40.1487C57.8901 40.1487 58.5506 39.4879 58.5506 38.6728C58.5506 37.8576 57.8901 37.1968 57.0754 37.1968C56.2607 37.1968 55.6002 37.8576 55.6002 38.6728C55.6002 39.4879 56.2607 40.1487 57.0754 40.1487Z" fill="white"/>
</mask>
<g mask="url(#mask2_3115_386578)">
<path d="M56.6731 39.7667C57.4878 39.7667 58.1482 39.1058 58.1482 38.2907C58.1482 37.4755 57.4878 36.8147 56.6731 36.8147C55.8583 36.8147 55.1979 37.4755 55.1979 38.2907C55.1979 39.1058 55.8583 39.7667 56.6731 39.7667Z" fill="#FF9F5B"/>
</g>
</g>
<g clip-path="url(#clip0_3115_386578)">
<path d="M37.7333 18.7817C37.7344 18.7847 37.7354 18.787 37.7369 18.7904L38.8798 21.3615C38.9888 21.6074 39.1872 21.8027 39.4349 21.9076L44.86 24.2146C44.9379 24.2477 45.0217 24.2648 45.1064 24.2649C45.1911 24.265 45.2749 24.2481 45.3529 24.2152C45.4309 24.1822 45.5015 24.1339 45.5605 24.0732C45.6195 24.0124 45.6656 23.9404 45.6962 23.8615L47.2429 19.872C47.2731 19.7947 47.2878 19.7123 47.2859 19.6293C47.284 19.5464 47.2657 19.4647 47.232 19.3889C47.2306 19.3856 47.2292 19.3825 47.2277 19.3793C47.1925 19.3022 47.142 19.233 47.0794 19.176C47.0167 19.119 46.9431 19.0752 46.863 19.0475L41.3006 17.095C41.0468 17.0055 40.7686 17.016 40.5223 17.1243L37.9367 18.257C37.8429 18.3027 37.7699 18.3822 37.7321 18.4795C37.6944 18.5768 37.6948 18.6847 37.7333 18.7817ZM40.2757 18.8185C40.3869 18.8616 40.4829 18.9368 40.5514 19.0344C40.6199 19.1321 40.658 19.2479 40.6607 19.3672C40.6634 19.4865 40.6307 19.6039 40.5667 19.7045C40.5027 19.8052 40.4103 19.8847 40.3012 19.9328C40.192 19.981 40.071 19.9957 39.9535 19.9751C39.836 19.9545 39.7272 19.8996 39.6409 19.8172C39.5547 19.7347 39.4948 19.6286 39.4688 19.5122C39.4429 19.3957 39.452 19.2742 39.4952 19.1629C39.553 19.0138 39.6677 18.8937 39.8141 18.8291C39.9604 18.7645 40.1265 18.7607 40.2756 18.8185L40.2757 18.8185Z" fill="url(#paint12_linear_3115_386578)"/>
<path d="M42.367 20.0605L42.1377 19.9716C42.0881 19.9527 42.033 19.9542 41.9845 19.9758C41.936 19.9974 41.898 20.0373 41.8788 20.0868C41.8596 20.1363 41.8607 20.1914 41.882 20.2401C41.9033 20.2887 41.9429 20.327 41.9923 20.3465L42.2312 20.4392C42.2184 20.5187 42.2154 20.5994 42.2225 20.6796C42.2511 20.9676 42.4082 21.2007 42.6328 21.2877C43.0633 21.4547 43.3769 21.1061 43.5454 20.9188C43.5702 20.8914 43.5926 20.8663 43.6127 20.846C43.6406 20.8182 43.6706 20.7852 43.7025 20.7498C43.8989 20.5325 44.0179 20.4389 44.163 20.4951C44.2428 20.5261 44.3054 20.6357 44.3184 20.7679C44.3433 21.0201 44.1968 21.2736 43.9263 21.4457C43.904 21.4599 43.8847 21.4783 43.8696 21.5C43.8544 21.5216 43.8437 21.546 43.8379 21.5718C43.8322 21.5976 43.8316 21.6242 43.8362 21.6502C43.8408 21.6762 43.8504 21.7011 43.8646 21.7234C43.8788 21.7457 43.8973 21.7649 43.9189 21.7801C43.9405 21.7952 43.9649 21.806 43.9907 21.8117C44.0165 21.8174 44.0431 21.818 44.0692 21.8134C44.0952 21.8089 44.12 21.7992 44.1423 21.785C44.3186 21.6751 44.4666 21.5252 44.5741 21.3474L44.8034 21.4363C44.8531 21.4556 44.9084 21.4544 44.9572 21.4328C45.006 21.4113 45.0443 21.3713 45.0635 21.3216C45.0828 21.2718 45.0816 21.2165 45.0601 21.1677C45.0385 21.1189 44.9985 21.0807 44.9488 21.0614L44.7099 20.9687C44.7227 20.8893 44.7256 20.8085 44.7186 20.7283C44.71 20.6373 44.6871 20.5483 44.6506 20.4645C44.579 20.3024 44.4588 20.1785 44.3083 20.1202C43.8796 19.954 43.5703 20.2963 43.4042 20.4801C43.3771 20.5101 43.3519 20.5382 43.3283 20.5617C43.3038 20.5862 43.2765 20.6165 43.2465 20.6499C43.0842 20.8301 42.937 20.9743 42.7781 20.9128C42.6982 20.8818 42.6358 20.7722 42.6227 20.64C42.5978 20.3877 42.7444 20.1343 43.0149 19.9621C43.0594 19.9332 43.0906 19.888 43.1019 19.8361C43.1132 19.7843 43.1035 19.7301 43.075 19.6854C43.0465 19.6406 43.0015 19.609 42.9498 19.5972C42.8981 19.5855 42.8438 19.5947 42.7988 19.6228C42.6225 19.7327 42.4745 19.8827 42.367 20.0605Z" fill="url(#paint13_linear_3115_386578)"/>
</g>
<g clip-path="url(#clip1_3115_386578)">
<path d="M26.6893 44.8251C26.6847 44.8256 26.6811 44.8261 26.6757 44.8269L22.6454 45.4701C22.26 45.5311 21.9123 45.7364 21.6728 46.0445L16.4154 52.7889C16.3399 52.8858 16.2847 52.9968 16.253 53.1155C16.2213 53.2342 16.2137 53.358 16.2308 53.4796C16.2479 53.6012 16.2892 53.7182 16.3524 53.8235C16.4156 53.9289 16.4993 54.0204 16.5985 54.0928L21.6141 57.7489C21.7111 57.8201 21.8212 57.8714 21.9382 57.8997C22.0551 57.928 22.1765 57.9328 22.2953 57.9138C22.3004 57.913 22.3053 57.9122 22.3104 57.9113C22.4316 57.8907 22.5474 57.8458 22.6507 57.7792C22.754 57.7126 22.8428 57.6258 22.9116 57.5239L27.7232 50.4547C27.9433 50.1324 28.0324 49.7384 27.9724 49.3528L27.349 45.306C27.3199 45.1574 27.2358 45.0253 27.1134 44.9362C26.9911 44.847 26.8396 44.8073 26.6893 44.8251ZM25.6895 48.3752C25.5875 48.5151 25.4464 48.6216 25.2839 48.6812C25.1215 48.7409 24.945 48.751 24.7767 48.7103C24.6085 48.6696 24.4561 48.58 24.3389 48.4527C24.2216 48.3255 24.1447 48.1663 24.1179 47.9953C24.0911 47.8243 24.1156 47.6493 24.1883 47.4922C24.261 47.3352 24.3786 47.2032 24.5263 47.113C24.674 47.0228 24.8451 46.9784 25.0181 46.9855C25.191 46.9925 25.3579 47.0507 25.4978 47.1527C25.6853 47.2894 25.8108 47.495 25.8468 47.7242C25.8827 47.9535 25.8261 48.1876 25.6894 48.3751L25.6895 48.3752Z" fill="url(#paint14_linear_3115_386578)"/>
<path d="M23.1677 50.8441L23.3779 50.5559C23.4228 50.4933 23.4413 50.4156 23.4291 50.3395C23.4169 50.2634 23.3751 50.1953 23.3129 50.1499C23.2507 50.1045 23.173 50.0856 23.0969 50.0972C23.0207 50.1089 22.9523 50.1502 22.9065 50.2121L22.6875 50.5124C22.5809 50.4648 22.4688 50.4306 22.3538 50.4106C21.9394 50.3432 21.5541 50.4765 21.3483 50.759C20.9537 51.3002 21.3254 51.8697 21.525 52.1758C21.5542 52.2208 21.581 52.2615 21.6019 52.2973C21.6305 52.3468 21.6656 52.4011 21.7034 52.4592C21.9347 52.8155 22.0215 53.0172 21.8886 53.1996C21.8154 53.2999 21.6384 53.3468 21.4483 53.3157C21.0854 53.2565 20.7847 52.9566 20.6443 52.5132C20.6327 52.4767 20.6141 52.4428 20.5894 52.4135C20.5648 52.3842 20.5346 52.36 20.5005 52.3424C20.4665 52.3247 20.4294 52.314 20.3912 52.3107C20.353 52.3074 20.3146 52.3117 20.2781 52.3232C20.2416 52.3348 20.2077 52.3535 20.1784 52.3781C20.149 52.4028 20.1249 52.433 20.1072 52.467C20.0896 52.501 20.0788 52.5382 20.0755 52.5763C20.0723 52.6145 20.0765 52.653 20.0881 52.6895C20.1764 52.9776 20.3314 53.2409 20.5405 53.458L20.3303 53.7462C20.2848 53.8087 20.2659 53.8867 20.2778 53.9632C20.2898 54.0396 20.3317 54.1081 20.3942 54.1537C20.4567 54.1993 20.5347 54.2182 20.6111 54.2062C20.6876 54.1943 20.7561 54.1524 20.8017 54.0899L21.0206 53.7896C21.1273 53.8372 21.2394 53.8714 21.3544 53.8915C21.4852 53.9133 21.6186 53.9144 21.7496 53.8945C22.0036 53.8547 22.2221 53.7324 22.36 53.5431C22.7528 53.0042 22.3883 52.443 22.1926 52.1415C22.1606 52.0923 22.1306 52.0465 22.1065 52.0047C22.0813 51.9612 22.0491 51.9116 22.0135 51.8571C21.8214 51.5624 21.6741 51.3023 21.8196 51.1026C21.8928 51.0021 22.0697 50.9554 22.26 50.9865C22.6229 51.0456 22.9235 51.3456 23.0639 51.7889C23.0878 51.8621 23.1396 51.9228 23.2081 51.958C23.2765 51.9931 23.3561 51.9998 23.4294 51.9765C23.5028 51.9533 23.564 51.902 23.5997 51.8338C23.6354 51.7657 23.6428 51.6862 23.6201 51.6126C23.5319 51.3244 23.3768 51.0611 23.1677 50.8441Z" fill="url(#paint15_linear_3115_386578)"/>
</g>
<g clip-path="url(#clip2_3115_386578)">
<path d="M13.6098 30.0306C13.6089 30.0289 13.6082 30.0276 13.607 30.0256L12.7306 28.5683C12.647 28.4289 12.5135 28.3265 12.3571 28.282L8.93177 27.3009C8.88257 27.2869 8.83104 27.2828 8.78024 27.289C8.72945 27.2953 8.68042 27.3116 8.63608 27.3372C8.59173 27.3627 8.55298 27.3969 8.52211 27.4378C8.49125 27.4786 8.4689 27.5252 8.4564 27.5748L7.82488 30.0826C7.81245 30.1312 7.80979 30.1818 7.81707 30.2314C7.82434 30.281 7.8414 30.3286 7.86725 30.3716C7.86835 30.3734 7.86942 30.3752 7.87057 30.377C7.89739 30.4206 7.93278 30.4584 7.97461 30.4879C8.01645 30.5175 8.06384 30.5383 8.11393 30.549L11.5953 31.3072C11.7542 31.342 11.9203 31.315 12.06 31.2318L13.5268 30.3605C13.5796 30.3261 13.6176 30.273 13.633 30.2118C13.6484 30.1507 13.6401 30.0859 13.6098 30.0306ZM12.0821 30.1973C12.0122 30.1797 11.9491 30.1417 11.9007 30.0882C11.8524 30.0347 11.8209 29.9681 11.8105 29.8968C11.8 29.8254 11.8109 29.7526 11.8418 29.6874C11.8727 29.6223 11.9222 29.5678 11.9841 29.5308C12.046 29.4938 12.1175 29.476 12.1895 29.4796C12.2615 29.4832 12.3309 29.5081 12.3887 29.5512C12.4466 29.5942 12.4904 29.6534 12.5146 29.7213C12.5388 29.7892 12.5423 29.8628 12.5247 29.9328C12.5011 30.0265 12.4412 30.107 12.3582 30.1567C12.2752 30.2063 12.1759 30.2209 12.0822 30.1973L12.0821 30.1973Z" fill="url(#paint16_linear_3115_386578)"/>
<path d="M10.7354 29.6098L10.8795 29.6461C10.9107 29.6538 10.9436 29.6488 10.9711 29.6322C10.9986 29.6157 11.0185 29.5889 11.0263 29.5578C11.0341 29.5266 11.0294 29.4937 11.013 29.4661C10.9966 29.4385 10.97 29.4185 10.9389 29.4104L10.7888 29.3726C10.7905 29.3239 10.7863 29.2753 10.7761 29.2277C10.7376 29.0571 10.6261 28.929 10.4849 28.8934C10.2142 28.8252 10.052 29.0576 9.96486 29.1824C9.95204 29.2007 9.94045 29.2174 9.92987 29.2311C9.91521 29.2499 9.8997 29.2719 9.88315 29.2955C9.78147 29.4404 9.71705 29.5054 9.62588 29.4825C9.57569 29.4698 9.53002 29.4087 9.51241 29.3304C9.47873 29.1809 9.54781 29.018 9.69728 28.8947C9.70959 28.8845 9.71978 28.872 9.72727 28.8579C9.73475 28.8438 9.73938 28.8284 9.7409 28.8125C9.74242 28.7966 9.7408 28.7806 9.73612 28.7653C9.73144 28.75 9.7238 28.7359 9.71364 28.7235C9.70348 28.7112 9.69099 28.701 9.67689 28.6936C9.66279 28.6861 9.64736 28.6814 9.63147 28.6799C9.61557 28.6784 9.59954 28.68 9.58428 28.6847C9.56902 28.6894 9.55482 28.697 9.54251 28.7072C9.4449 28.7862 9.3673 28.8871 9.31601 29.0017L9.17189 28.9654C9.14063 28.9575 9.10753 28.9624 9.07986 28.9789C9.05219 28.9955 9.03221 29.0223 9.02434 29.0536C9.01646 29.0848 9.02132 29.1179 9.03786 29.1456C9.05439 29.1733 9.08123 29.1932 9.11249 29.2011L9.26263 29.2389C9.26086 29.2876 9.26511 29.3362 9.27529 29.3838C9.28719 29.4377 9.30757 29.4894 9.33567 29.537C9.39061 29.6289 9.47194 29.6943 9.56655 29.7181C9.83601 29.786 9.9961 29.5577 10.0821 29.4351C10.0962 29.4151 10.1092 29.3964 10.1216 29.3805C10.1344 29.364 10.1486 29.3438 10.1641 29.3216C10.2481 29.2014 10.3256 29.104 10.4255 29.1291C10.4758 29.1417 10.5213 29.2028 10.539 29.2812C10.5727 29.4307 10.5036 29.5935 10.3541 29.7169C10.3296 29.7375 10.3142 29.767 10.3112 29.7989C10.3083 29.8309 10.3181 29.8626 10.3386 29.8874C10.359 29.9121 10.3883 29.9277 10.4202 29.9309C10.4521 29.9341 10.484 29.9246 10.5089 29.9044C10.6065 29.8254 10.6841 29.7244 10.7354 29.6098Z" fill="url(#paint17_linear_3115_386578)"/>
</g>
<defs>
<linearGradient id="paint0_linear_3115_386578" x1="38.3783" y1="50.3239" x2="14.0528" y2="37.3418" gradientUnits="userSpaceOnUse">
<stop offset="0.19" stop-color="#FD9B02"/>
<stop offset="1" stop-color="#FF7302"/>
</linearGradient>
<linearGradient id="paint1_linear_3115_386578" x1="20.8208" y1="42.1233" x2="41.8694" y2="33.3006" gradientUnits="userSpaceOnUse">
<stop stop-color="#FD9B02"/>
<stop offset="1" stop-color="#FF7302"/>
</linearGradient>
<linearGradient id="paint2_linear_3115_386578" x1="22.0251" y1="30.6777" x2="22.0251" y2="47.8877" gradientUnits="userSpaceOnUse">
<stop stop-color="#FED200"/>
<stop offset="1" stop-color="#F59815"/>
</linearGradient>
<linearGradient id="paint3_linear_3115_386578" x1="22.053" y1="30.5215" x2="22.053" y2="51.9799" gradientUnits="userSpaceOnUse">
<stop stop-color="#FD9B02"/>
<stop offset="1" stop-color="#FF7302"/>
</linearGradient>
<linearGradient id="paint4_linear_3115_386578" x1="58.0825" y1="50.3239" x2="33.757" y2="37.3418" gradientUnits="userSpaceOnUse">
<stop offset="0.19" stop-color="#FD9B02"/>
<stop offset="1" stop-color="#FF7302"/>
</linearGradient>
<linearGradient id="paint5_linear_3115_386578" x1="40.525" y1="42.1233" x2="61.5736" y2="33.3006" gradientUnits="userSpaceOnUse">
<stop stop-color="#FD9B02"/>
<stop offset="1" stop-color="#FF7302"/>
</linearGradient>
<linearGradient id="paint6_linear_3115_386578" x1="41.7293" y1="30.6777" x2="41.7293" y2="47.8877" gradientUnits="userSpaceOnUse">
<stop stop-color="#FED200"/>
<stop offset="1" stop-color="#F59815"/>
</linearGradient>
<linearGradient id="paint7_linear_3115_386578" x1="41.7572" y1="30.5215" x2="41.7572" y2="51.9799" gradientUnits="userSpaceOnUse">
<stop stop-color="#FD9B02"/>
<stop offset="1" stop-color="#FF7302"/>
</linearGradient>
<linearGradient id="paint8_linear_3115_386578" x1="48.1814" y1="33.9511" x2="23.8559" y2="20.969" gradientUnits="userSpaceOnUse">
<stop offset="0.19" stop-color="#FD9B02"/>
<stop offset="1" stop-color="#FF7302"/>
</linearGradient>
<linearGradient id="paint9_linear_3115_386578" x1="30.6237" y1="25.7505" x2="51.6723" y2="16.9278" gradientUnits="userSpaceOnUse">
<stop stop-color="#FD9B02"/>
<stop offset="1" stop-color="#FF7302"/>
</linearGradient>
<linearGradient id="paint10_linear_3115_386578" x1="31.8281" y1="14.3049" x2="31.8281" y2="31.5149" gradientUnits="userSpaceOnUse">
<stop stop-color="#FED200"/>
<stop offset="1" stop-color="#F59815"/>
</linearGradient>
<linearGradient id="paint11_linear_3115_386578" x1="31.856" y1="14.1487" x2="31.856" y2="35.6071" gradientUnits="userSpaceOnUse">
<stop stop-color="#FD9B02"/>
<stop offset="1" stop-color="#FF7302"/>
</linearGradient>
<linearGradient id="paint12_linear_3115_386578" x1="37.7653" y1="18.4924" x2="46.2996" y2="21.8009" gradientUnits="userSpaceOnUse">
<stop stop-color="#E85155"/>
<stop offset="1" stop-color="#FD6F72"/>
</linearGradient>
<linearGradient id="paint13_linear_3115_386578" x1="41.9938" y1="20.1689" x2="45.2575" y2="21.3514" gradientUnits="userSpaceOnUse">
<stop stop-color="white"/>
<stop offset="1" stop-color="#F2EDED"/>
</linearGradient>
<linearGradient id="paint14_linear_3115_386578" x1="27.0829" y1="44.9779" x2="19.262" y2="55.7071" gradientUnits="userSpaceOnUse">
<stop stop-color="#E85155"/>
<stop offset="1" stop-color="#FE7073"/>
</linearGradient>
<linearGradient id="paint15_linear_3115_386578" x1="23.1549" y1="50.2805" x2="20.28" y2="54.4145" gradientUnits="userSpaceOnUse">
<stop stop-color="white"/>
<stop offset="1" stop-color="#F2EDED"/>
</linearGradient>
<linearGradient id="paint16_linear_3115_386578" x1="13.6121" y1="30.2065" x2="8.24747" y2="28.8556" gradientUnits="userSpaceOnUse">
<stop stop-color="#E85155"/>
<stop offset="1" stop-color="#FD6F72"/>
</linearGradient>
<linearGradient id="paint17_linear_3115_386578" x1="10.9512" y1="29.5171" x2="8.90579" y2="29.0501" gradientUnits="userSpaceOnUse">
<stop stop-color="white"/>
<stop offset="1" stop-color="#F2EDED"/>
</linearGradient>
<clipPath id="clip0_3115_386578">
<rect width="9.65173" height="9.65173" fill="white" transform="translate(40.408 26.8367) rotate(-113.81)"/>
</clipPath>
<clipPath id="clip1_3115_386578">
<rect width="14.0004" height="14.0004" fill="white" transform="translate(14.4 45.5671) rotate(-8.91035)"/>
</clipPath>
<clipPath id="clip2_3115_386578">
<rect width="5.83346" height="5.83346" fill="white" transform="translate(11.4073 25.3992) rotate(59.1345)"/>
</clipPath>
</defs>
</svg>
