<svg viewBox="0 0 20 21" xmlns="http://www.w3.org/2000/svg" fill="#e5103f">
  <path
    d="M9.20829 12.5837L7.66663 14.1253C7.34163 14.4503 6.82496 14.4503 6.49163 14.1337C6.39996 14.042 6.30829 13.9587 6.21663 13.867C5.35829 13.0003 4.58329 12.092 3.89163 11.142C3.20829 10.192 2.65829 9.24199 2.25829 8.30033C1.86663 7.35033 1.66663 6.44199 1.66663 5.57533C1.66663 5.00866 1.76663 4.46699 1.96663 3.96699C2.16663 3.45866 2.48329 2.99199 2.92496 2.57533C3.45829 2.05033 4.04163 1.79199 4.65829 1.79199C4.89163 1.79199 5.12496 1.84199 5.33329 1.94199C5.54996 2.04199 5.74163 2.19199 5.89163 2.40866L7.82496 5.13366C7.97496 5.34199 8.08329 5.53366 8.15829 5.71699C8.23329 5.89199 8.27496 6.06699 8.27496 6.22533C8.27496 6.42533 8.21663 6.62533 8.09996 6.81699C7.99163 7.00866 7.83329 7.20866 7.63329 7.40866L6.99996 8.06699C6.90829 8.15866 6.86663 8.26699 6.86663 8.40033C6.86663 8.46699 6.87496 8.52533 6.89163 8.59199C6.91663 8.65866 6.94163 8.70866 6.95829 8.75866C7.10829 9.03366 7.36663 9.39199 7.73329 9.82533C8.10829 10.2587 8.50829 10.7003 8.94163 11.142C9.02496 11.2253 9.11663 11.3087 9.19996 11.392C9.53329 11.717 9.54163 12.2503 9.20829 12.5837Z"
  />
  <path
    d="M18.3083 15.4002C18.3083 15.6335 18.2667 15.8752 18.1833 16.1085C18.1583 16.1752 18.1333 16.2419 18.1 16.3085C17.9583 16.6085 17.775 16.8919 17.5333 17.1585C17.125 17.6085 16.675 17.9335 16.1667 18.1419C16.1583 18.1419 16.15 18.1502 16.1417 18.1502C15.65 18.3502 15.1167 18.4585 14.5417 18.4585C13.6917 18.4585 12.7833 18.2585 11.825 17.8502C10.8667 17.4419 9.90833 16.8919 8.95833 16.2002C8.63333 15.9585 8.30833 15.7169 8 15.4585L10.725 12.7335C10.9583 12.9085 11.1667 13.0419 11.3417 13.1335C11.3833 13.1502 11.4333 13.1752 11.4917 13.2002C11.5583 13.2252 11.625 13.2335 11.7 13.2335C11.8417 13.2335 11.95 13.1835 12.0417 13.0919L12.675 12.4669C12.8833 12.2585 13.0833 12.1002 13.275 12.0002C13.4667 11.8835 13.6583 11.8252 13.8667 11.8252C14.025 11.8252 14.1917 11.8585 14.375 11.9335C14.5583 12.0085 14.75 12.1169 14.9583 12.2585L17.7167 14.2169C17.9333 14.3669 18.0833 14.5419 18.175 14.7502C18.2583 14.9585 18.3083 15.1669 18.3083 15.4002Z"
  />
</svg>
