<svg width="80" height="80" viewBox="0 0 80 80" fill="none" xmlns="http://www.w3.org/2000/svg">
<path d="M77.5 43.7798C77.5 51.8622 73.4208 58.954 67.284 62.9571C63.0149 65.7411 60 70 55.3324 72.52C54.0803 73.196 49 73.5 44.5 72C41.5 71 34.5 75 34.5 75C29.5 76.5 26.206 71.1647 21.5619 70.5143C13.5237 69.3904 2.5 64.8104 2.5 48.5993C2.5 42.8681 4.31485 37.6078 7.55993 33.523C10.305 30.0669 12.579 26.2434 14.5188 22.243C19.0403 12.9061 28.3477 6.5 39.0998 6.5C47.8447 6.5 55.6353 10.7371 60.6712 17.3419C63.0365 20.4442 65.7167 23.2853 68.7671 25.6583C74.0674 29.7866 77.4976 36.3668 77.4976 43.7771L77.5 43.7798Z" fill="#FFF5F6"/>
<g opacity="0.6">
<path d="M14.344 36.1899C15.3624 36.1899 16.1879 35.3639 16.1879 34.345C16.1879 33.326 15.3624 32.5 14.344 32.5C13.3256 32.5 12.5 33.326 12.5 34.345C12.5 35.3639 13.3256 36.1899 14.344 36.1899Z" fill="#F48351"/>
<mask id="mask0_3287_390516" style="mask-type:luminance" maskUnits="userSpaceOnUse" x="12" y="32" width="5" height="5">
<path d="M14.344 36.1899C15.3624 36.1899 16.1879 35.3639 16.1879 34.345C16.1879 33.326 15.3624 32.5 14.344 32.5C13.3256 32.5 12.5 33.326 12.5 34.345C12.5 35.3639 13.3256 36.1899 14.344 36.1899Z" fill="white"/>
</mask>
<g mask="url(#mask0_3287_390516)">
<path d="M13.841 35.7111C14.8594 35.7111 15.685 34.8851 15.685 33.8661C15.685 32.8472 14.8594 32.0211 13.841 32.0211C12.8226 32.0211 11.9971 32.8472 11.9971 33.8661C11.9971 34.8851 12.8226 35.7111 13.841 35.7111Z" fill="#FF9F5B"/>
</g>
</g>
<g opacity="0.25">
<path d="M29.0548 19.6113C29.9135 19.6113 30.6096 18.9148 30.6096 18.0556C30.6096 17.1965 29.9135 16.5 29.0548 16.5C28.1961 16.5 27.5 17.1965 27.5 18.0556C27.5 18.9148 28.1961 19.6113 29.0548 19.6113Z" fill="#F48351"/>
<mask id="mask1_3287_390516" style="mask-type:luminance" maskUnits="userSpaceOnUse" x="27" y="16" width="4" height="4">
<path d="M29.0548 19.6113C29.9135 19.6113 30.6096 18.9148 30.6096 18.0556C30.6096 17.1965 29.9135 16.5 29.0548 16.5C28.1961 16.5 27.5 17.1965 27.5 18.0556C27.5 18.9148 28.1961 19.6113 29.0548 19.6113Z" fill="white"/>
</mask>
<g mask="url(#mask1_3287_390516)">
<path d="M28.6315 19.2078C29.4902 19.2078 30.1863 18.5113 30.1863 17.6521C30.1863 16.793 29.4902 16.0965 28.6315 16.0965C27.7728 16.0965 27.0767 16.793 27.0767 17.6521C27.0767 18.5113 27.7728 19.2078 28.6315 19.2078Z" fill="#FF9F5B"/>
</g>
</g>
<path d="M72.2758 34.0545C73.8088 34.0545 75.0515 32.8111 75.0515 31.2773C75.0515 29.7434 73.8088 28.5 72.2758 28.5C70.7427 28.5 69.5 29.7434 69.5 31.2773C69.5 32.8111 70.7427 34.0545 72.2758 34.0545Z" fill="#F48351"/>
<mask id="mask2_3287_390516" style="mask-type:luminance" maskUnits="userSpaceOnUse" x="69" y="28" width="7" height="7">
<path d="M72.2758 34.0545C73.8088 34.0545 75.0515 32.8111 75.0515 31.2773C75.0515 29.7434 73.8088 28.5 72.2758 28.5C70.7427 28.5 69.5 29.7434 69.5 31.2773C69.5 32.8111 70.7427 34.0545 72.2758 34.0545Z" fill="white"/>
</mask>
<g mask="url(#mask2_3287_390516)">
<path d="M71.5184 33.328C73.0514 33.328 74.2942 32.0845 74.2942 30.5507C74.2942 29.0169 73.0514 27.7734 71.5184 27.7734C69.9854 27.7734 68.7427 29.0169 68.7427 30.5507C68.7427 32.0845 69.9854 33.328 71.5184 33.328Z" fill="#FF9F5B"/>
</g>
<g clip-path="url(#clip0_3287_390516)">
<path d="M47.5116 21.5H44.4478V40.2818H47.5116C52.698 40.2818 56.9026 36.0773 56.9026 30.8908C56.9025 25.7044 52.698 21.5 47.5116 21.5Z" fill="url(#paint0_linear_3287_390516)"/>
<path d="M47.5116 21.5H44.4478V40.2818H47.5116C52.698 40.2818 56.9026 36.0773 56.9026 30.8908C56.9025 25.7044 52.698 21.5 47.5116 21.5Z" fill="url(#paint1_linear_3287_390516)"/>
<path d="M44.4478 40.2817H47.5117C52.6982 40.2817 56.9027 36.0772 56.9027 30.8908C56.9027 29.5912 56.6386 28.3534 56.1613 27.2278H44.4478V40.2817Z" fill="url(#paint2_linear_3287_390516)"/>
<path d="M44.4476 40.2819C49.634 40.2819 53.8385 36.0774 53.8385 30.8909C53.8385 25.7045 49.634 21.5 44.4476 21.5C39.2611 21.5 35.0566 25.7045 35.0566 30.8909C35.0566 36.0774 39.2611 40.2819 44.4476 40.2819Z" fill="url(#paint3_linear_3287_390516)"/>
<path d="M44.4477 38.3045C48.542 38.3045 51.8612 34.9854 51.8612 30.891C51.8612 26.7967 48.542 23.4775 44.4477 23.4775C40.3533 23.4775 37.0342 26.7967 37.0342 30.891C37.0342 34.9854 40.3533 38.3045 44.4477 38.3045Z" fill="url(#paint4_linear_3287_390516)"/>
<path d="M35.0566 30.8911C35.0566 36.0775 39.261 40.2821 44.4476 40.2821C49.634 40.2821 53.8385 36.0775 53.8385 30.8911C53.8385 29.7679 53.6407 28.691 53.279 27.6926H35.6162C35.2545 28.6909 35.0566 29.7678 35.0566 30.8911Z" fill="url(#paint5_linear_3287_390516)"/>
<path d="M37.8075 37.5313C41.4748 41.1987 47.4208 41.1987 51.0882 37.5313C54.7556 33.864 54.7556 27.9179 51.0882 24.2506C50.2939 23.4563 49.3926 22.8348 48.4308 22.3845L35.9414 34.8739C36.3917 35.8357 37.0132 36.737 37.8075 37.5313Z" fill="url(#paint6_linear_3287_390516)"/>
<path d="M40.5503 34.7884L45.9253 40.1634C47.8151 39.8639 49.6314 38.988 51.0879 37.5314C52.5444 36.0749 53.4202 34.2587 53.7199 32.3688L48.3449 26.9938L40.5503 34.7884Z" fill="url(#paint7_linear_3287_390516)"/>
<path d="M44.4476 36.402C47.4916 36.402 49.9592 33.9344 49.9592 30.8904C49.9592 27.8464 47.4916 25.3788 44.4476 25.3788C41.4037 25.3788 38.936 27.8464 38.936 30.8904C38.936 33.9344 41.4037 36.402 44.4476 36.402Z" fill="url(#paint8_linear_3287_390516)"/>
<path d="M38.936 30.8906C38.936 33.9345 41.4037 36.4022 44.4476 36.4022C47.4916 36.4022 49.9592 33.9345 49.9592 30.8906C49.9592 30.2313 49.8431 29.5994 49.6308 29.0134H39.2645C39.0522 29.5992 38.936 30.2313 38.936 30.8906Z" fill="url(#paint9_linear_3287_390516)"/>
<path d="M40.5502 34.7877C42.7026 36.9401 46.1923 36.9401 48.3447 34.7877C50.4971 32.6353 50.4971 29.1455 48.3447 26.9931C47.8786 26.5269 47.3495 26.1621 46.7852 25.8979L39.4551 33.228C39.7193 33.7926 40.084 34.3216 40.5502 34.7877Z" fill="url(#paint10_linear_3287_390516)"/>
<path d="M26.0664 74.2766L20.563 71.7103C19.7896 71.3496 19.4549 70.4302 19.8155 69.6568L22.061 64.8412C23.1304 62.548 25.8562 61.5559 28.1494 62.6252C30.4426 63.6945 31.4348 66.4204 30.3654 68.7136L28.1199 73.5292C27.7593 74.3027 26.8399 74.6372 26.0664 74.2766Z" fill="url(#paint11_linear_3287_390516)"/>
<path d="M21.8537 65.286L19.8156 69.6567C19.4549 70.4301 19.7895 71.3495 20.5629 71.7102L26.0664 74.2766C26.8398 74.6373 27.7592 74.3026 28.1199 73.5292L30.1579 69.1585L21.8537 65.286Z" fill="url(#paint12_linear_3287_390516)"/>
<path d="M28.1496 62.6254C27.5835 62.3615 26.9912 62.2235 26.404 62.1994L21.7178 72.2489L26.0666 74.2767C26.84 74.6374 27.7593 74.3028 28.12 73.5294L30.3656 68.7138C31.4348 66.4205 30.4427 63.6947 28.1496 62.6254Z" fill="url(#paint13_linear_3287_390516)"/>
<path d="M24.5963 43.5183C24.6217 43.8149 24.9866 43.9406 25.1886 43.7219C27.1363 41.6124 29.8635 39.9006 33.0928 38.9627C33.2434 38.9189 33.3942 38.8772 33.5448 38.8373C33.8339 38.7609 33.8939 38.3779 33.6418 38.2171L29.0052 35.2614C26.7892 33.8486 23.9147 35.5887 24.1404 38.2068L24.5963 43.5183Z" fill="url(#paint14_linear_3287_390516)"/>
<path d="M24.1404 38.2061C23.9428 35.9139 26.1218 34.2947 28.1546 34.8755L29.7305 40.3017C27.9535 41.2211 26.416 42.3919 25.1886 43.7212C24.9867 43.9398 24.6217 43.8141 24.5963 43.5176L24.1404 38.2061Z" fill="url(#paint15_linear_3287_390516)"/>
<path d="M42.1082 71.8698C53.6516 71.8698 63.0094 63.744 63.0094 53.7203C63.0094 43.6966 53.6516 35.5708 42.1082 35.5708C30.5648 35.5708 21.207 43.6966 21.207 53.7203C21.207 63.744 30.5648 71.8698 42.1082 71.8698Z" fill="url(#paint16_linear_3287_390516)"/>
<path d="M21.207 53.721C21.207 63.7447 30.5649 71.8705 42.1082 71.8705C53.6515 71.8705 63.0094 63.7446 63.0094 53.721C63.0094 51.6805 62.6214 49.7187 61.9063 47.8879H22.3101C21.5951 49.7187 21.207 51.6805 21.207 53.721Z" fill="url(#paint17_linear_3287_390516)"/>
<path d="M42.1084 35.5708C40.5028 35.5708 38.9397 35.7285 37.438 36.0261V71.4145C38.9398 71.7121 40.5028 71.8698 42.1084 71.8698C53.6517 71.8698 63.0095 63.744 63.0095 53.7203C63.0095 43.6967 53.6517 35.5708 42.1084 35.5708Z" fill="url(#paint18_linear_3287_390516)"/>
<path d="M45.2949 35.7805V43.7198L61.6784 60.1033C62.5378 58.1176 63.0091 55.9668 63.0091 53.7204C63.0092 44.6376 55.3257 37.1131 45.2949 35.7805Z" fill="url(#paint19_linear_3287_390516)"/>
<path d="M42.1082 71.8708C46.8335 71.8708 51.192 70.5085 54.6928 68.2124L38.4601 51.9797L25.5938 64.846C29.4176 69.1201 35.3926 71.8708 42.1082 71.8708Z" fill="url(#paint20_linear_3287_390516)"/>
<path d="M28.9644 66.475C35.4414 66.475 40.692 62.3773 40.692 57.3224C40.692 52.2676 35.4414 48.1699 28.9644 48.1699C22.4874 48.1699 17.2368 52.2676 17.2368 57.3224C17.2368 62.3773 22.4874 66.475 28.9644 66.475Z" fill="url(#paint21_linear_3287_390516)"/>
<path d="M17.2368 57.3225C17.2368 62.3774 22.4875 66.4751 28.9644 66.4751C35.4414 66.4751 40.692 62.3773 40.692 57.3225C40.692 56.2934 40.4743 55.3041 40.0731 54.381H17.8557C17.4545 55.3041 17.2368 56.2934 17.2368 57.3225Z" fill="url(#paint22_linear_3287_390516)"/>
<path d="M28.9643 48.1699C28.0634 48.1699 27.1864 48.2494 26.3438 48.3995V66.2454C27.1863 66.3955 28.0634 66.475 28.9643 66.475C35.4413 66.475 40.6919 62.3772 40.6919 57.3224C40.6919 52.2676 35.4413 48.1699 28.9643 48.1699Z" fill="url(#paint23_linear_3287_390516)"/>
<path d="M22.1801 62.1961C24.0426 62.1961 25.5526 60.0135 25.5526 57.3211C25.5526 54.6286 24.0426 52.446 22.1801 52.446C20.3175 52.446 18.8076 54.6286 18.8076 57.3211C18.8076 60.0135 20.3175 62.1961 22.1801 62.1961Z" fill="url(#paint24_linear_3287_390516)"/>
<path d="M22.1801 62.1961C24.0426 62.1961 25.5526 60.0135 25.5526 57.3211C25.5526 54.6286 24.0426 52.446 22.1801 52.446C20.3175 52.446 18.8076 54.6286 18.8076 57.3211C18.8076 60.0135 20.3175 62.1961 22.1801 62.1961Z" fill="url(#paint25_linear_3287_390516)"/>
<path d="M22.1801 62.1961C24.0426 62.1961 25.5526 60.0135 25.5526 57.3211C25.5526 54.6286 24.0426 52.446 22.1801 52.446C20.3175 52.446 18.8076 54.6286 18.8076 57.3211C18.8076 60.0135 20.3175 62.1961 22.1801 62.1961Z" fill="url(#paint26_linear_3287_390516)"/>
<path d="M31.1498 62.1961C33.0124 62.1961 34.5223 60.0135 34.5223 57.3211C34.5223 54.6286 33.0124 52.446 31.1498 52.446C29.2872 52.446 27.7773 54.6286 27.7773 57.3211C27.7773 60.0135 29.2872 62.1961 31.1498 62.1961Z" fill="url(#paint27_linear_3287_390516)"/>
<path d="M31.1498 62.1961C33.0124 62.1961 34.5223 60.0135 34.5223 57.3211C34.5223 54.6286 33.0124 52.446 31.1498 52.446C29.2872 52.446 27.7773 54.6286 27.7773 57.3211C27.7773 60.0135 29.2872 62.1961 31.1498 62.1961Z" fill="url(#paint28_linear_3287_390516)"/>
<path d="M31.1498 62.1961C33.0124 62.1961 34.5223 60.0135 34.5223 57.3211C34.5223 54.6286 33.0124 52.446 31.1498 52.446C29.2872 52.446 27.7773 54.6286 27.7773 57.3211C27.7773 60.0135 29.2872 62.1961 31.1498 62.1961Z" fill="url(#paint29_linear_3287_390516)"/>
<path d="M35.2433 48.2357C36.537 48.2357 37.5858 47.1869 37.5858 45.8932C37.5858 44.5995 36.537 43.5508 35.2433 43.5508C33.9496 43.5508 32.9009 44.5995 32.9009 45.8932C32.9009 47.1869 33.9496 48.2357 35.2433 48.2357Z" fill="url(#paint30_linear_3287_390516)"/>
<path d="M32.9009 45.8932C32.9009 47.1869 33.9497 48.2357 35.2433 48.2357C36.537 48.2357 37.5858 47.1869 37.5858 45.8932C37.5858 45.613 37.5364 45.3445 37.4463 45.0953H33.0405C32.9502 45.3445 32.9009 45.613 32.9009 45.8932Z" fill="url(#paint31_linear_3287_390516)"/>
<path d="M33.5871 47.5497C34.5019 48.4644 35.9851 48.4644 36.8998 47.5497C37.8145 46.635 37.8145 45.1518 36.8998 44.237C36.7017 44.039 36.4769 43.8839 36.2369 43.7716L33.1216 46.8869C33.234 47.1267 33.3889 47.3515 33.5871 47.5497Z" fill="url(#paint32_linear_3287_390516)"/>
<path d="M24.1379 48.2357C25.4316 48.2357 26.4803 47.1869 26.4803 45.8932C26.4803 44.5995 25.4316 43.5508 24.1379 43.5508C22.8442 43.5508 21.7954 44.5995 21.7954 45.8932C21.7954 47.1869 22.8442 48.2357 24.1379 48.2357Z" fill="url(#paint33_linear_3287_390516)"/>
<path d="M21.7954 45.8932C21.7954 47.1869 22.8442 48.2357 24.1379 48.2357C25.4316 48.2357 26.4803 47.1869 26.4803 45.8932C26.4803 45.613 26.431 45.3445 26.3408 45.0953H21.9349C21.8448 45.3445 21.7954 45.613 21.7954 45.8932Z" fill="url(#paint34_linear_3287_390516)"/>
<path d="M22.4817 47.5497C23.3964 48.4644 24.8796 48.4644 25.7943 47.5497C26.7091 46.635 26.7091 45.1518 25.7943 44.237C25.5962 44.039 25.3714 43.8839 25.1314 43.7716L22.0161 46.8869C22.1284 47.1267 22.2835 47.3515 22.4817 47.5497Z" fill="url(#paint35_linear_3287_390516)"/>
<path d="M39.9382 75.4703L46.486 74.2407C47.4062 74.068 48.0121 73.1818 47.8393 72.2616L46.7634 66.5322C46.251 63.8039 43.624 62.0074 40.8956 62.5198C38.1672 63.0322 36.3708 65.6592 36.8832 68.3875L37.959 74.1169C38.1318 75.0372 39.018 75.6431 39.9382 75.4703Z" fill="url(#paint36_linear_3287_390516)"/>
<path d="M46.863 67.0616L47.8394 72.2616C48.0122 73.1819 47.4064 74.0679 46.4862 74.2407L39.9384 75.4702C39.0181 75.643 38.1321 75.0372 37.9593 74.1169L36.9829 68.9169L46.863 67.0616Z" fill="url(#paint37_linear_3287_390516)"/>
<path d="M40.8956 62.52C41.569 62.3935 42.2361 62.4083 42.8668 62.5423L45.112 74.4988L39.938 75.4704C39.0178 75.6431 38.1318 75.0373 37.959 74.1171L36.8831 68.3877C36.3709 65.6594 38.1673 63.0323 40.8956 62.52Z" fill="url(#paint38_linear_3287_390516)"/>
<path d="M59.3666 71.2318L64.87 68.6655C65.6434 68.3048 65.9781 67.3854 65.6175 66.612L63.3719 61.7964C62.3026 59.5032 59.5768 58.5111 57.2836 59.5804C54.9903 60.6497 53.9982 63.3756 55.0676 65.6688L57.3131 70.4844C57.6738 71.2579 58.5932 71.5926 59.3666 71.2318Z" fill="url(#paint39_linear_3287_390516)"/>
<path d="M63.5792 62.2412L65.6173 66.6119C65.978 67.3853 65.6433 68.3047 64.8699 68.6654L59.3665 71.2318C58.5931 71.5925 57.6737 71.2578 57.313 70.4844L55.2749 66.1138L63.5792 62.2412Z" fill="url(#paint40_linear_3287_390516)"/>
<path d="M57.2836 59.5807C57.8496 59.3169 58.4419 59.1789 59.0292 59.1548L63.7154 69.2042L59.3666 71.2321C58.5932 71.5928 57.6738 71.2581 57.3131 70.4847L55.0676 65.6691C53.9982 63.3759 54.9903 60.6501 57.2836 59.5807Z" fill="url(#paint41_linear_3287_390516)"/>
<path d="M45.8873 43.5183C45.8619 43.8149 45.497 43.9406 45.295 43.7219C43.3473 41.6124 40.6201 39.9006 37.3907 38.9627C37.2401 38.9189 37.0894 38.8772 36.9388 38.8373C36.6497 38.7609 36.5897 38.3779 36.8418 38.2171L41.4784 35.2614C43.6944 33.8486 46.5688 35.5887 46.3431 38.2068L45.8873 43.5183Z" fill="url(#paint42_linear_3287_390516)"/>
<path d="M43.6996 42.2277C42.1657 40.9767 40.3197 39.9417 38.2412 39.2323L40.8522 37.5683C42.2591 36.6713 44.0815 37.7756 43.94 39.4369L43.6996 42.2277Z" fill="url(#paint43_linear_3287_390516)"/>
<path d="M46.343 38.2061C46.5406 35.9139 44.3616 34.2947 42.3288 34.8755L40.7529 40.3017C42.53 41.2211 44.0674 42.3919 45.2948 43.7212C45.4967 43.9398 45.8617 43.8141 45.8871 43.5176L46.343 38.2061Z" fill="url(#paint44_linear_3287_390516)"/>
<path d="M43.6996 42.2272C42.1657 40.9762 40.3197 39.9411 38.2412 39.2318L40.8522 37.5678C42.2591 36.6708 44.0815 37.7751 43.94 39.4364L43.6996 42.2272Z" fill="url(#paint45_linear_3287_390516)"/>
</g>
<defs>
<linearGradient id="paint0_linear_3287_390516" x1="50.6751" y1="24.0684" x2="50.6751" y2="37.0026" gradientUnits="userSpaceOnUse">
<stop stop-color="#FEF0AE"/>
<stop offset="1" stop-color="#FAC600"/>
</linearGradient>
<linearGradient id="paint1_linear_3287_390516" x1="50.2304" y1="31.7951" x2="57.2391" y2="33.5186" gradientUnits="userSpaceOnUse">
<stop stop-color="#FE9738" stop-opacity="0"/>
<stop offset="1" stop-color="#FE9738"/>
</linearGradient>
<linearGradient id="paint2_linear_3287_390516" x1="50.6752" y1="30.9047" x2="50.6752" y2="39.9963" gradientUnits="userSpaceOnUse">
<stop stop-color="#FE9738" stop-opacity="0"/>
<stop offset="1" stop-color="#FE9738"/>
</linearGradient>
<linearGradient id="paint3_linear_3287_390516" x1="39.7119" y1="26.1552" x2="49.648" y2="36.0913" gradientUnits="userSpaceOnUse">
<stop stop-color="#FEF0AE"/>
<stop offset="1" stop-color="#FAC600"/>
</linearGradient>
<linearGradient id="paint4_linear_3287_390516" x1="48.4825" y1="34.9257" x2="37.19" y2="23.6332" gradientUnits="userSpaceOnUse">
<stop stop-color="#FEF0AE"/>
<stop offset="1" stop-color="#FAC600"/>
</linearGradient>
<linearGradient id="paint5_linear_3287_390516" x1="44.4475" y1="30.4067" x2="44.4475" y2="40.6461" gradientUnits="userSpaceOnUse">
<stop stop-color="#FE9738" stop-opacity="0"/>
<stop offset="1" stop-color="#FE9738"/>
</linearGradient>
<linearGradient id="paint6_linear_3287_390516" x1="43.8383" y1="30.3652" x2="52.0179" y2="37.4209" gradientUnits="userSpaceOnUse">
<stop stop-color="#FE9738" stop-opacity="0"/>
<stop offset="1" stop-color="#FE9738"/>
</linearGradient>
<linearGradient id="paint7_linear_3287_390516" x1="52.6569" y1="39.1005" x2="43.2102" y2="29.6538" gradientUnits="userSpaceOnUse">
<stop stop-color="#FE9738" stop-opacity="0"/>
<stop offset="1" stop-color="#FE9738"/>
</linearGradient>
<linearGradient id="paint8_linear_3287_390516" x1="41.6682" y1="28.111" x2="47.4998" y2="33.9425" gradientUnits="userSpaceOnUse">
<stop stop-color="#FEF0AE"/>
<stop offset="1" stop-color="#FAC600"/>
</linearGradient>
<linearGradient id="paint9_linear_3287_390516" x1="44.4476" y1="30.6063" x2="44.4476" y2="36.6159" gradientUnits="userSpaceOnUse">
<stop stop-color="#FE9738" stop-opacity="0"/>
<stop offset="1" stop-color="#FE9738"/>
</linearGradient>
<linearGradient id="paint10_linear_3287_390516" x1="44.0898" y1="30.5819" x2="48.8904" y2="34.7229" gradientUnits="userSpaceOnUse">
<stop stop-color="#FE9738" stop-opacity="0"/>
<stop offset="1" stop-color="#FE9738"/>
</linearGradient>
<linearGradient id="paint11_linear_3287_390516" x1="22.4926" y1="66.2972" x2="27.9718" y2="68.8554" gradientUnits="userSpaceOnUse">
<stop stop-color="#FFB8BA"/>
<stop offset="1" stop-color="#E85256"/>
</linearGradient>
<linearGradient id="paint12_linear_3287_390516" x1="24.9877" y1="69.3467" x2="23.3362" y2="72.8838" gradientUnits="userSpaceOnUse">
<stop stop-color="#FF4B5B" stop-opacity="0"/>
<stop offset="0.2343" stop-color="#E63A48" stop-opacity="0.234"/>
<stop offset="0.475" stop-color="#E63A48" stop-opacity="0.517"/>
<stop offset="0.8243" stop-color="#BE313D" stop-opacity="0.824"/>
<stop offset="1" stop-color="#C72332"/>
</linearGradient>
<linearGradient id="paint13_linear_3287_390516" x1="25.8329" y1="67.8569" x2="29.6773" y2="69.6518" gradientUnits="userSpaceOnUse">
<stop stop-color="#FF4B5B" stop-opacity="0"/>
<stop offset="0.2343" stop-color="#E63A48" stop-opacity="0.23"/>
<stop offset="0.5173" stop-color="#E63A48" stop-opacity="0.52"/>
<stop offset="0.8243" stop-color="#BE313D" stop-opacity="0.82"/>
<stop offset="1" stop-color="#C72332"/>
</linearGradient>
<linearGradient id="paint14_linear_3287_390516" x1="31.6836" y1="34.6965" x2="25.8822" y2="41.04" gradientUnits="userSpaceOnUse">
<stop stop-color="#FFB8BA"/>
<stop offset="1" stop-color="#E85256"/>
</linearGradient>
<linearGradient id="paint15_linear_3287_390516" x1="26.2701" y1="39.2755" x2="24.3218" y2="39.4183" gradientUnits="userSpaceOnUse">
<stop stop-color="#FF4B5B" stop-opacity="0"/>
<stop offset="0.2343" stop-color="#E63A48" stop-opacity="0.234"/>
<stop offset="0.5173" stop-color="#E63A48" stop-opacity="0.517"/>
<stop offset="0.8243" stop-color="#BE313D" stop-opacity="0.824"/>
<stop offset="1" stop-color="#C72332"/>
</linearGradient>
<linearGradient id="paint16_linear_3287_390516" x1="34.6463" y1="40.1084" x2="49.4479" y2="67.109" gradientUnits="userSpaceOnUse">
<stop stop-color="#FFA1AE"/>
<stop offset="1" stop-color="#FF4565"/>
</linearGradient>
<linearGradient id="paint17_linear_3287_390516" x1="42.1082" y1="55.3374" x2="42.1082" y2="70.7955" gradientUnits="userSpaceOnUse">
<stop stop-color="#FF4C5B" stop-opacity="0"/>
<stop offset="0.2343" stop-color="#E63948" stop-opacity="0.234"/>
<stop offset="0.5173" stop-color="#E63948" stop-opacity="0.52"/>
<stop offset="0.8243" stop-color="#BE313D" stop-opacity="0.82"/>
<stop offset="1" stop-color="#C72432"/>
</linearGradient>
<linearGradient id="paint18_linear_3287_390516" x1="41.5784" y1="52.6269" x2="58.9824" y2="63.0368" gradientUnits="userSpaceOnUse">
<stop stop-color="#FF4B5B" stop-opacity="0"/>
<stop offset="0.2343" stop-color="#E63A48" stop-opacity="0.23"/>
<stop offset="0.5173" stop-color="#E63A48" stop-opacity="0.52"/>
<stop offset="0.8243" stop-color="#BE313D" stop-opacity="0.82"/>
<stop offset="1" stop-color="#C72332"/>
</linearGradient>
<linearGradient id="paint19_linear_3287_390516" x1="48.6772" y1="47.1291" x2="41.1543" y2="45.8685" gradientUnits="userSpaceOnUse">
<stop stop-color="#FF4B5B" stop-opacity="0"/>
<stop offset="0.2343" stop-color="#E63A48" stop-opacity="0.23"/>
<stop offset="0.5173" stop-color="#E63A48" stop-opacity="0.52"/>
<stop offset="0.8243" stop-color="#BE313D" stop-opacity="0.82"/>
<stop offset="1" stop-color="#C72332"/>
</linearGradient>
<linearGradient id="paint20_linear_3287_390516" x1="48.7132" y1="67.4708" x2="34.4144" y2="60.3921" gradientUnits="userSpaceOnUse">
<stop stop-color="#FF4B5B" stop-opacity="0"/>
<stop offset="0.2343" stop-color="#E63A48" stop-opacity="0.234"/>
<stop offset="0.5173" stop-color="#E63A48" stop-opacity="0.517"/>
<stop offset="0.8243" stop-color="#BE313D" stop-opacity="0.824"/>
<stop offset="1" stop-color="#C72332"/>
</linearGradient>
<linearGradient id="paint21_linear_3287_390516" x1="25.0761" y1="50.2295" x2="32.789" y2="64.2991" gradientUnits="userSpaceOnUse">
<stop stop-color="#FFA1AE"/>
<stop offset="1" stop-color="#FF4565"/>
</linearGradient>
<linearGradient id="paint22_linear_3287_390516" x1="28.9644" y1="58.1377" x2="28.9644" y2="65.9331" gradientUnits="userSpaceOnUse">
<stop stop-color="#FF4B5B" stop-opacity="0"/>
<stop offset="0.2343" stop-color="#E63A48" stop-opacity="0.234"/>
<stop offset="0.5173" stop-color="#E63A48" stop-opacity="0.517"/>
<stop offset="0.8243" stop-color="#BE313D" stop-opacity="0.824"/>
<stop offset="1" stop-color="#C72332"/>
</linearGradient>
<linearGradient id="paint23_linear_3287_390516" x1="28.914" y1="56.7716" x2="38.2877" y2="62.3782" gradientUnits="userSpaceOnUse">
<stop stop-color="#FF4B5B" stop-opacity="0"/>
<stop offset="0.2343" stop-color="#E63A48" stop-opacity="0.234"/>
<stop offset="0.5173" stop-color="#E63A48" stop-opacity="0.517"/>
<stop offset="0.8243" stop-color="#BE313D" stop-opacity="0.824"/>
<stop offset="1" stop-color="#C72332"/>
</linearGradient>
<linearGradient id="paint24_linear_3287_390516" x1="19.8001" y1="55.6551" x2="23.807" y2="58.4599" gradientUnits="userSpaceOnUse">
<stop stop-color="#5A5A5A"/>
<stop offset="1" stop-color="#444444"/>
</linearGradient>
<linearGradient id="paint25_linear_3287_390516" x1="23.2152" y1="57.3211" x2="18.6696" y2="57.3211" gradientUnits="userSpaceOnUse">
<stop stop-color="#433F43" stop-opacity="0"/>
<stop offset="1" stop-color="#1A1A1A"/>
</linearGradient>
<linearGradient id="paint26_linear_3287_390516" x1="23.1646" y1="58.4332" x2="19.5583" y2="54.3596" gradientUnits="userSpaceOnUse">
<stop stop-color="#433F43" stop-opacity="0"/>
<stop offset="1" stop-color="#1A1A1A"/>
</linearGradient>
<linearGradient id="paint27_linear_3287_390516" x1="28.7699" y1="55.6551" x2="32.7768" y2="58.4599" gradientUnits="userSpaceOnUse">
<stop stop-color="#5A5A5A"/>
<stop offset="1" stop-color="#444444"/>
</linearGradient>
<linearGradient id="paint28_linear_3287_390516" x1="32.185" y1="57.3211" x2="27.6394" y2="57.3211" gradientUnits="userSpaceOnUse">
<stop stop-color="#433F43" stop-opacity="0"/>
<stop offset="1" stop-color="#1A1A1A"/>
</linearGradient>
<linearGradient id="paint29_linear_3287_390516" x1="32.1344" y1="58.4332" x2="28.5282" y2="54.3596" gradientUnits="userSpaceOnUse">
<stop stop-color="#433F43" stop-opacity="0"/>
<stop offset="1" stop-color="#1A1A1A"/>
</linearGradient>
<linearGradient id="paint30_linear_3287_390516" x1="34.3382" y1="44.9882" x2="36.4676" y2="47.1176" gradientUnits="userSpaceOnUse">
<stop stop-color="#5A5A5A"/>
<stop offset="1" stop-color="#444444"/>
</linearGradient>
<linearGradient id="paint31_linear_3287_390516" x1="35.2433" y1="45.9228" x2="35.2433" y2="48.6784" gradientUnits="userSpaceOnUse">
<stop stop-color="#433F43" stop-opacity="0"/>
<stop offset="1" stop-color="#1A1A1A"/>
</linearGradient>
<linearGradient id="paint32_linear_3287_390516" x1="35.2992" y1="45.878" x2="37.3498" y2="47.9287" gradientUnits="userSpaceOnUse">
<stop stop-color="#433F43" stop-opacity="0"/>
<stop offset="1" stop-color="#1A1A1A"/>
</linearGradient>
<linearGradient id="paint33_linear_3287_390516" x1="23.2328" y1="44.9882" x2="25.3623" y2="47.1176" gradientUnits="userSpaceOnUse">
<stop stop-color="#5A5A5A"/>
<stop offset="1" stop-color="#444444"/>
</linearGradient>
<linearGradient id="paint34_linear_3287_390516" x1="24.1379" y1="45.9228" x2="24.1379" y2="48.6784" gradientUnits="userSpaceOnUse">
<stop stop-color="#433F43" stop-opacity="0"/>
<stop offset="1" stop-color="#1A1A1A"/>
</linearGradient>
<linearGradient id="paint35_linear_3287_390516" x1="24.1953" y1="45.878" x2="26.2461" y2="47.9287" gradientUnits="userSpaceOnUse">
<stop stop-color="#433F43" stop-opacity="0"/>
<stop offset="1" stop-color="#1A1A1A"/>
</linearGradient>
<linearGradient id="paint36_linear_3287_390516" x1="45.8978" y1="67.9853" x2="39.3755" y2="69.2128" gradientUnits="userSpaceOnUse">
<stop stop-color="#FFB8BA"/>
<stop offset="1" stop-color="#E85256"/>
</linearGradient>
<linearGradient id="paint37_linear_3287_390516" x1="42.4147" y1="70.548" x2="43.2071" y2="74.7585" gradientUnits="userSpaceOnUse">
<stop stop-color="#FF4B5B" stop-opacity="0"/>
<stop offset="0.2343" stop-color="#E63A48" stop-opacity="0.234"/>
<stop offset="0.5173" stop-color="#E63A48" stop-opacity="0.517"/>
<stop offset="0.8243" stop-color="#BE313D" stop-opacity="0.824"/>
<stop offset="1" stop-color="#C72332"/>
</linearGradient>
<linearGradient id="paint38_linear_3287_390516" x1="41.9216" y1="68.7338" x2="37.3454" y2="69.595" gradientUnits="userSpaceOnUse">
<stop stop-color="#FF4B5B" stop-opacity="0"/>
<stop offset="0.2343" stop-color="#E63A48" stop-opacity="0.234"/>
<stop offset="0.5173" stop-color="#E63A48" stop-opacity="0.517"/>
<stop offset="0.8243" stop-color="#BE313D" stop-opacity="0.824"/>
<stop offset="1" stop-color="#C72332"/>
</linearGradient>
<linearGradient id="paint39_linear_3287_390516" x1="62.9385" y1="63.2511" x2="57.4593" y2="65.8092" gradientUnits="userSpaceOnUse">
<stop stop-color="#FFB8BA"/>
<stop offset="1" stop-color="#E85256"/>
</linearGradient>
<linearGradient id="paint40_linear_3287_390516" x1="60.4433" y1="66.3004" x2="62.0947" y2="69.8375" gradientUnits="userSpaceOnUse">
<stop stop-color="#FF4B5B" stop-opacity="0"/>
<stop offset="0.2343" stop-color="#E63A48" stop-opacity="0.234"/>
<stop offset="0.5173" stop-color="#E63A48" stop-opacity="0.517"/>
<stop offset="0.8243" stop-color="#BE313D" stop-opacity="0.824"/>
<stop offset="1" stop-color="#C72332"/>
</linearGradient>
<linearGradient id="paint41_linear_3287_390516" x1="59.5982" y1="64.8108" x2="55.7538" y2="66.6057" gradientUnits="userSpaceOnUse">
<stop stop-color="#FF4B5B" stop-opacity="0"/>
<stop offset="0.2343" stop-color="#E63A48" stop-opacity="0.23"/>
<stop offset="0.5173" stop-color="#E63A48" stop-opacity="0.52"/>
<stop offset="0.8243" stop-color="#BE313D" stop-opacity="0.82"/>
<stop offset="1" stop-color="#C72332"/>
</linearGradient>
<linearGradient id="paint42_linear_3287_390516" x1="38.8" y1="34.6965" x2="44.6014" y2="41.04" gradientUnits="userSpaceOnUse">
<stop stop-color="#FFA1AE"/>
<stop offset="1" stop-color="#FF4565"/>
</linearGradient>
<linearGradient id="paint43_linear_3287_390516" x1="41.9875" y1="40.0801" x2="40.483" y2="38.1188" gradientUnits="userSpaceOnUse">
<stop stop-color="#FF4B5B" stop-opacity="0"/>
<stop offset="0.2343" stop-color="#E63A48" stop-opacity="0.23"/>
<stop offset="0.5173" stop-color="#E63A48" stop-opacity="0.52"/>
<stop offset="0.8243" stop-color="#BE313D" stop-opacity="0.82"/>
<stop offset="1" stop-color="#C72332"/>
</linearGradient>
<linearGradient id="paint44_linear_3287_390516" x1="44.2093" y1="39.278" x2="46.1575" y2="39.4209" gradientUnits="userSpaceOnUse">
<stop stop-color="#FF4B5B" stop-opacity="0"/>
<stop offset="0.2343" stop-color="#E63A48" stop-opacity="0.23"/>
<stop offset="0.5173" stop-color="#E63A48" stop-opacity="0.52"/>
<stop offset="0.8243" stop-color="#BE313D" stop-opacity="0.82"/>
<stop offset="1" stop-color="#C72332"/>
</linearGradient>
<linearGradient id="paint45_linear_3287_390516" x1="39.968" y1="35.4208" x2="41.9598" y2="41.9688" gradientUnits="userSpaceOnUse">
<stop stop-color="#FF4B5B" stop-opacity="0"/>
<stop offset="0.2343" stop-color="#E63A48" stop-opacity="0.234"/>
<stop offset="0.5173" stop-color="#E63A48" stop-opacity="0.517"/>
<stop offset="0.8243" stop-color="#BE313D" stop-opacity="0.824"/>
<stop offset="1" stop-color="#C72332"/>
</linearGradient>
<clipPath id="clip0_3287_390516">
<rect width="54" height="54" fill="white" transform="translate(14.5 21.5)"/>
</clipPath>
</defs>
</svg>
