<svg width="80" height="80" viewBox="0 0 80 80" fill="none" xmlns="http://www.w3.org/2000/svg">
<path d="M77.5 43.7798C77.5 51.8622 73.4208 58.954 67.284 62.9571C63.0149 65.7411 59.0511 68.9876 55.3324 72.52C54.3007 73.5 47.8797 73.5 43.2812 73.5C40.1636 73.5 33.9063 73.5 33.9063 73.5C29.8102 71.1324 26.206 71.1647 21.5619 70.5143C13.5237 69.3904 2.5 64.8104 2.5 48.5993C2.5 42.8681 4.31485 37.6078 7.55993 33.523C10.305 30.0669 12.579 26.2434 14.5188 22.243C19.0403 12.9061 28.3477 6.5 39.0998 6.5C47.8447 6.5 55.6353 10.7371 60.6712 17.3419C63.0365 20.4442 65.7167 23.2853 68.7671 25.6583C74.0674 29.7866 77.4976 36.3668 77.4976 43.7771L77.5 43.7798Z" fill="#FFF5F6"/>
<g opacity="0.6">
<path d="M3.84397 45.6899C4.86237 45.6899 5.68794 44.8639 5.68794 43.845C5.68794 42.826 4.86237 42 3.84397 42C2.82557 42 2 42.826 2 43.845C2 44.8639 2.82557 45.6899 3.84397 45.6899Z" fill="#F48351"/>
<mask id="mask0_3277_3357" style="mask-type:luminance" maskUnits="userSpaceOnUse" x="2" y="42" width="4" height="4">
<path d="M3.84397 45.6899C4.86237 45.6899 5.68794 44.8639 5.68794 43.845C5.68794 42.826 4.86237 42 3.84397 42C2.82557 42 2 42.826 2 43.845C2 44.8639 2.82557 45.6899 3.84397 45.6899Z" fill="white"/>
</mask>
<g mask="url(#mask0_3277_3357)">
<path d="M3.34104 45.2112C4.35944 45.2112 5.18501 44.3852 5.18501 43.3662C5.18501 42.3473 4.35944 41.5212 3.34104 41.5212C2.32264 41.5212 1.49707 42.3473 1.49707 43.3662C1.49707 44.3852 2.32264 45.2112 3.34104 45.2112Z" fill="#FF9F5B"/>
</g>
</g>
<g opacity="0.25">
<path d="M44.5548 14.1113C45.4135 14.1113 46.1096 13.4148 46.1096 12.5556C46.1096 11.6965 45.4135 11 44.5548 11C43.6961 11 43 11.6965 43 12.5556C43 13.4148 43.6961 14.1113 44.5548 14.1113Z" fill="#F48351"/>
<mask id="mask1_3277_3357" style="mask-type:luminance" maskUnits="userSpaceOnUse" x="43" y="11" width="4" height="4">
<path d="M44.5548 14.1113C45.4135 14.1113 46.1096 13.4148 46.1096 12.5556C46.1096 11.6965 45.4135 11 44.5548 11C43.6961 11 43 11.6965 43 12.5556C43 13.4148 43.6961 14.1113 44.5548 14.1113Z" fill="white"/>
</mask>
<g mask="url(#mask1_3277_3357)">
<path d="M44.1315 13.7077C44.9902 13.7077 45.6863 13.0112 45.6863 12.1521C45.6863 11.2929 44.9902 10.5964 44.1315 10.5964C43.2728 10.5964 42.5767 11.2929 42.5767 12.1521C42.5767 13.0112 43.2728 13.7077 44.1315 13.7077Z" fill="#FF9F5B"/>
</g>
</g>
<path d="M73.7758 56.5545C75.3088 56.5545 76.5515 55.3111 76.5515 53.7773C76.5515 52.2434 75.3088 51 73.7758 51C72.2427 51 71 52.2434 71 53.7773C71 55.3111 72.2427 56.5545 73.7758 56.5545Z" fill="#F48351"/>
<mask id="mask2_3277_3357" style="mask-type:luminance" maskUnits="userSpaceOnUse" x="71" y="51" width="6" height="6">
<path d="M73.7758 56.5545C75.3088 56.5545 76.5515 55.3111 76.5515 53.7773C76.5515 52.2434 75.3088 51 73.7758 51C72.2427 51 71 52.2434 71 53.7773C71 55.3111 72.2427 56.5545 73.7758 56.5545Z" fill="white"/>
</mask>
<g mask="url(#mask2_3277_3357)">
<path d="M73.0184 55.828C74.5514 55.828 75.7942 54.5845 75.7942 53.0507C75.7942 51.5169 74.5514 50.2734 73.0184 50.2734C71.4854 50.2734 70.2427 51.5169 70.2427 53.0507C70.2427 54.5845 71.4854 55.828 73.0184 55.828Z" fill="#FF9F5B"/>
</g>
<path d="M63.0008 35.4835L57.4658 37.7205C57.3827 37.7527 57.3098 37.8069 57.255 37.8772C57.2001 37.9475 57.1653 38.0313 57.1542 38.1198C57.1432 38.2082 57.1562 38.2981 57.1921 38.3797C57.2279 38.4614 57.2852 38.5318 57.3578 38.5835C57.7298 38.8244 58.019 39.1734 58.1868 39.5835C58.3927 40.2846 58.3146 41.0385 57.9694 41.6825C57.6243 42.3264 57.0397 42.8088 56.3418 43.0255C55.6894 43.3544 54.9339 43.4135 54.2383 43.1901C53.5427 42.9667 52.9628 42.4787 52.6238 41.8315C52.4585 41.4186 52.4236 40.9649 52.5238 40.5315C52.5384 40.4442 52.5294 40.3546 52.498 40.2719C52.4665 40.1891 52.4137 40.1162 52.3449 40.0606C52.276 40.005 52.1936 39.9686 52.1061 39.9552C52.0186 39.9419 51.9292 39.952 51.8468 39.9845L46.3108 42.2215L44.0748 36.6905C44.0403 36.6083 44.0287 36.5183 44.0411 36.43C44.0536 36.3417 44.0898 36.2584 44.1457 36.189C44.2017 36.1196 44.2754 36.0666 44.3591 36.0357C44.4427 36.0048 44.5332 35.9972 44.6208 36.0135C45.0542 36.1136 45.5079 36.0787 45.9208 35.9135C46.5662 35.574 47.0526 34.9949 47.2755 34.3006C47.4984 33.6063 47.44 32.8522 47.1128 32.2005C46.8962 31.5027 46.4138 30.9181 45.7698 30.5729C45.1258 30.2277 44.3719 30.1496 43.6708 30.3555C43.2607 30.5233 42.9118 30.8126 42.6708 31.1845C42.6181 31.2556 42.5473 31.3115 42.4659 31.3463C42.3844 31.3811 42.2952 31.3936 42.2073 31.3827C42.1194 31.3717 42.036 31.3375 41.9657 31.2837C41.8953 31.23 41.8405 31.1584 41.8068 31.0765L39.5688 25.5375L52.5488 20.2925C53.5322 19.895 54.6331 19.9043 55.6095 20.3184C56.586 20.7324 57.358 21.5173 57.7558 22.5005L63.0008 35.4835Z" fill="url(#paint0_linear_3277_3357)"/>
<path d="M22.9995 63.9998C21.9386 63.9998 20.9212 63.5783 20.1711 62.8282C19.4209 62.078 18.9995 61.0606 18.9995 59.9998V31.9998C18.9995 30.9389 19.4209 29.9215 20.1711 29.1713C20.9212 28.4212 21.9386 27.9998 22.9995 27.9998H36.9995V33.9698C36.9988 34.0587 37.0222 34.1461 37.0671 34.2229C37.112 34.2996 37.1767 34.3629 37.2546 34.4059C37.3324 34.4489 37.4204 34.4701 37.5092 34.4672C37.5981 34.4644 37.6846 34.4376 37.7595 34.3898C38.124 34.1375 38.5563 34.0016 38.9995 33.9998C39.7266 34.0715 40.3963 34.4264 40.864 34.9877C41.3318 35.5489 41.56 36.2716 41.4995 36.9998C41.56 37.7279 41.3318 38.4506 40.864 39.0119C40.3963 39.5731 39.7266 39.928 38.9995 39.9998C38.5563 39.9979 38.124 39.862 37.7595 39.6098C37.6848 39.5608 37.5981 39.5332 37.5089 39.5298C37.4196 39.5264 37.3311 39.5475 37.2529 39.5907C37.1747 39.6339 37.1098 39.6976 37.0652 39.775C37.0205 39.8524 36.9978 39.9404 36.9995 40.0298V45.9998H42.9695C43.0588 45.9981 43.1469 46.0208 43.2243 46.0654C43.3016 46.1101 43.3654 46.175 43.4086 46.2532C43.4518 46.3314 43.4728 46.4199 43.4695 46.5091C43.4661 46.5984 43.4385 46.685 43.3895 46.7598C43.1373 47.1242 43.0013 47.5565 42.9995 47.9998C43.0713 48.7268 43.4261 49.3965 43.9874 49.8643C44.5487 50.332 45.2714 50.5603 45.9995 50.4998C46.7276 50.5603 47.4503 50.332 48.0116 49.8643C48.5729 49.3965 48.9277 48.7268 48.9995 47.9998C48.9977 47.5565 48.8617 47.1242 48.6095 46.7598C48.5616 46.6848 48.5349 46.5984 48.532 46.5095C48.5292 46.4206 48.5504 46.3326 48.5934 46.2548C48.6364 46.177 48.6996 46.1122 48.7764 46.0673C48.8531 46.0224 48.9406 45.9991 49.0295 45.9998H54.9995V59.9998C54.9995 61.0606 54.5781 62.078 53.8279 62.8282C53.0778 63.5783 52.0604 63.9998 50.9995 63.9998H22.9995Z" fill="url(#paint1_linear_3277_3357)"/>
<path d="M36.9998 64V58.03C37.001 57.9409 36.9781 57.853 36.9334 57.7759C36.8887 57.6987 36.824 57.635 36.7461 57.5916C36.6682 57.5483 36.58 57.5268 36.4908 57.5295C36.4017 57.5322 36.3149 57.559 36.2398 57.607C35.8762 57.8614 35.4435 57.9985 34.9998 58C34.2727 57.9283 33.603 57.5734 33.1353 57.0121C32.6675 56.4509 32.4393 55.7282 32.4998 55C32.4393 54.2719 32.6675 53.5492 33.1353 52.9879C33.603 52.4267 34.2727 52.0718 34.9998 52C35.4437 52.0016 35.8764 52.1391 36.2398 52.394C36.3149 52.4421 36.4017 52.4689 36.4908 52.4716C36.58 52.4743 36.6682 52.4528 36.7461 52.4095C36.824 52.3661 36.8887 52.3024 36.9334 52.2252C36.9781 52.1481 37.001 52.0602 36.9998 51.971V46H42.9708C43.06 45.9988 43.1478 46.0218 43.225 46.0664C43.3022 46.1111 43.3658 46.1758 43.4092 46.2538C43.4526 46.3317 43.474 46.4199 43.4713 46.509C43.4686 46.5982 43.4418 46.6849 43.3938 46.76C43.1388 47.1234 43.0013 47.5562 42.9998 48C43.0716 48.7271 43.4264 49.3968 43.9877 49.8646C44.549 50.3323 45.2717 50.5606 45.9998 50.5C46.7279 50.5606 47.4506 50.3323 48.0119 49.8646C48.5732 49.3968 48.928 48.7271 48.9998 48C48.9984 47.5566 48.8613 47.1242 48.6068 46.761C48.5606 46.6855 48.5352 46.599 48.5334 46.5105C48.5315 46.422 48.5532 46.3345 48.5962 46.2571C48.6393 46.1797 48.7021 46.1151 48.7783 46.07C48.8544 46.0248 48.9412 46.0007 49.0298 46H54.9998V60C54.9998 61.0609 54.5784 62.0783 53.8282 62.8285C53.0781 63.5786 52.0607 64 50.9998 64H36.9998Z" fill="url(#paint2_linear_3277_3357)"/>
<path d="M18.9995 45.9998H24.9695C25.0587 46.001 25.1465 45.9781 25.2237 45.9334C25.3009 45.8887 25.3645 45.824 25.4079 45.7461C25.4513 45.6682 25.4728 45.58 25.47 45.4908C25.4673 45.4017 25.4405 45.3149 25.3925 45.2398C25.1381 44.8762 25.001 44.4435 24.9995 43.9998C25.0713 43.2727 25.4261 42.603 25.9874 42.1353C26.5487 41.6675 27.2714 41.4393 27.9995 41.4998C28.7276 41.4393 29.4503 41.6675 30.0116 42.1353C30.5729 42.603 30.9277 43.2727 30.9995 43.9998C30.998 44.4437 30.8605 44.8764 30.6055 45.2398C30.5575 45.3149 30.5307 45.4017 30.528 45.4908C30.5253 45.58 30.5467 45.6682 30.5901 45.7461C30.6335 45.824 30.6971 45.8887 30.7743 45.9334C30.8515 45.9781 30.9393 46.001 31.0285 45.9998H36.9995V51.9708C37.0007 52.06 36.9778 52.1478 36.9331 52.225C36.8885 52.3022 36.8237 52.3658 36.7458 52.4092C36.6679 52.4526 36.5797 52.474 36.4905 52.4713C36.4014 52.4686 36.3147 52.4418 36.2395 52.3938C35.8761 52.1388 35.4434 52.0013 34.9995 51.9998C34.2724 52.0716 33.6027 52.4264 33.135 52.9877C32.6673 53.549 32.439 54.2717 32.4995 54.9998C32.439 55.7279 32.6673 56.4506 33.135 57.0119C33.6027 57.5732 34.2724 57.928 34.9995 57.9998C35.443 57.9984 35.8753 57.8613 36.2385 57.6068C36.314 57.5606 36.4005 57.5352 36.489 57.5334C36.5776 57.5315 36.665 57.5532 36.7424 57.5962C36.8198 57.6393 36.8844 57.7021 36.9296 57.7783C36.9748 57.8544 36.9989 57.9412 36.9995 58.0298V63.9998H22.9995C21.9386 63.9998 20.9212 63.5784 20.1711 62.8282C19.4209 62.0781 18.9995 61.0607 18.9995 59.9998V45.9998Z" fill="url(#paint3_linear_3277_3357)"/>
<defs>
<linearGradient id="paint0_linear_3277_3357" x1="47.8978" y1="22.2645" x2="54.8088" y2="39.1395" gradientUnits="userSpaceOnUse">
<stop stop-color="#E85155"/>
<stop offset="1" stop-color="#C21D2C"/>
</linearGradient>
<linearGradient id="paint1_linear_3277_3357" x1="36.9995" y1="27.8208" x2="36.9995" y2="45.8208" gradientUnits="userSpaceOnUse">
<stop stop-color="#34CA82"/>
<stop offset="1" stop-color="#37A477"/>
</linearGradient>
<linearGradient id="paint2_linear_3277_3357" x1="43.7498" y1="46.464" x2="43.7498" y2="62.896" gradientUnits="userSpaceOnUse">
<stop stop-color="#4793EB"/>
<stop offset="1" stop-color="#2367EC"/>
</linearGradient>
<linearGradient id="paint3_linear_3277_3357" x1="27.9995" y1="46.1428" x2="27.9995" y2="62.9868" gradientUnits="userSpaceOnUse">
<stop stop-color="#FED200"/>
<stop offset="1" stop-color="#F59815"/>
</linearGradient>
</defs>
</svg>
