<svg width="64" height="64" viewBox="0 0 64 64" fill="none" xmlns="http://www.w3.org/2000/svg">
<path d="M62 35.023C62 41.489 58.7367 47.1624 53.8272 50.3649C50.4119 52.5921 47.2409 55.1893 44.266 58.0152C43.4406 58.7992 38.3038 58.7992 34.625 58.7992C32.1309 58.7992 27.125 58.7992 27.125 58.7992C23.8482 56.9052 20.9648 56.931 17.2495 56.4107C10.819 55.5115 2.00003 51.8475 2.00003 38.8786C2.00003 34.2937 3.45191 30.0854 6.04798 26.8176C8.24406 24.0527 10.0632 20.9939 11.6151 17.7936C15.2323 10.3241 22.6782 5.19922 31.2799 5.19922C38.2758 5.19922 44.5083 8.58893 48.537 13.8727C50.4292 16.3546 52.5734 18.6274 55.0137 20.5259C59.254 23.8285 61.9981 29.0927 61.9981 35.0209L62 35.023Z" fill="#FFF5F6"/>
<path d="M25.7333 43.8633H35.0666V49.4633H25.7333V43.8633Z" fill="url(#paint0_linear_3115_386807)"/>
<path d="M40.9775 47.5977H19.8225C18.9148 47.5977 18.0443 47.9582 17.4024 48.6001C16.7606 49.2419 16.4 50.1125 16.4 51.0202C16.4 51.3502 16.5311 51.6666 16.7644 51.8999C16.9977 52.1332 17.3142 52.2643 17.6441 52.2643H43.1559C43.4858 52.2643 43.8023 52.1332 44.0356 51.8999C44.2689 51.6666 44.4 51.3502 44.4 51.0202C44.4 50.1125 44.0394 49.2419 43.3976 48.6001C42.7557 47.9582 41.8852 47.5977 40.9775 47.5977Z" fill="url(#paint1_linear_3115_386807)"/>
<path d="M43.4667 17.7322H17.3334C14.756 17.7322 12.6667 19.8215 12.6667 22.3988V41.0655C12.6667 43.6428 14.756 45.7322 17.3334 45.7322H43.4667C46.044 45.7322 48.1334 43.6428 48.1334 41.0655V22.3988C48.1334 19.8215 46.044 17.7322 43.4667 17.7322Z" fill="url(#paint2_linear_3115_386807)"/>
<path d="M30.4 44.332C31.1732 44.332 31.8 43.7052 31.8 42.932C31.8 42.1588 31.1732 41.532 30.4 41.532C29.6268 41.532 29 42.1588 29 42.932C29 43.7052 29.6268 44.332 30.4 44.332Z" fill="url(#paint3_linear_3115_386807)"/>
<path d="M43.4667 20.532H17.3334C16.3024 20.532 15.4667 21.3677 15.4667 22.3986V38.2653C15.4667 39.2962 16.3024 40.132 17.3334 40.132H43.4667C44.4976 40.132 45.3334 39.2962 45.3334 38.2653V22.3986C45.3334 21.3677 44.4976 20.532 43.4667 20.532Z" fill="url(#paint4_linear_3115_386807)"/>
<path d="M35.0667 40.1309V36.3976C35.0667 34.9124 34.4767 33.488 33.4265 32.4378C32.3763 31.3876 30.9519 30.7976 29.4667 30.7976H27.6C26.1148 30.7976 24.6904 31.3876 23.6402 32.4378C22.59 33.488 22 34.9124 22 36.3976V40.1309H35.0667Z" fill="url(#paint5_linear_3115_386807)"/>
<path d="M44.3999 38.2654C47.7505 38.2654 50.4666 35.5493 50.4666 32.1987C50.4666 28.8482 47.7505 26.1321 44.3999 26.1321C41.0494 26.1321 38.3333 28.8482 38.3333 32.1987C38.3333 35.5493 41.0494 38.2654 44.3999 38.2654Z" fill="url(#paint6_linear_3115_386807)"/>
<path d="M28.4 30.7976C30.6091 30.7976 32.4 29.0067 32.4 26.7976C32.4 24.5885 30.6091 22.7976 28.4 22.7976C26.1909 22.7976 24.4 24.5885 24.4 26.7976C24.4 29.0067 26.1909 30.7976 28.4 30.7976Z" fill="url(#paint7_linear_3115_386807)"/>
<path d="M50.9333 55.0634H37.8667C37.1241 55.0634 36.4119 54.7684 35.8868 54.2433C35.3617 53.7182 35.0667 53.006 35.0667 52.2634V46.6634C35.0692 44.4364 35.9549 42.3012 37.5297 40.7265C39.1045 39.1517 41.2396 38.2659 43.4667 38.2634H45.3333C47.5604 38.2659 49.6955 39.1517 51.2703 40.7265C52.8451 42.3012 53.7309 44.4364 53.7333 46.6634V52.2634C53.7333 53.006 53.4383 53.7182 52.9132 54.2433C52.3881 54.7684 51.676 55.0634 50.9333 55.0634Z" fill="url(#paint8_linear_3115_386807)"/>
<g opacity="0.6">
<path d="M23.4752 12.1502C24.29 12.1502 24.9504 11.4894 24.9504 10.6742C24.9504 9.85906 24.29 9.19824 23.4752 9.19824C22.6605 9.19824 22.0001 9.85906 22.0001 10.6742C22.0001 11.4894 22.6605 12.1502 23.4752 12.1502Z" fill="#F48351"/>
<mask id="mask0_3115_386807" style="mask-type:luminance" maskUnits="userSpaceOnUse" x="22" y="9" width="3" height="4">
<path d="M23.4753 12.1487C24.29 12.1487 24.9505 11.4879 24.9505 10.6728C24.9505 9.8576 24.29 9.19678 23.4753 9.19678C22.6606 9.19678 22.0001 9.8576 22.0001 10.6728C22.0001 11.4879 22.6606 12.1487 23.4753 12.1487Z" fill="white"/>
</mask>
<g mask="url(#mask0_3115_386807)">
<path d="M23.073 11.7667C23.8877 11.7667 24.5481 11.1058 24.5481 10.2907C24.5481 9.47551 23.8877 8.8147 23.073 8.8147C22.2582 8.8147 21.5978 9.47551 21.5978 10.2907C21.5978 11.1058 22.2582 11.7667 23.073 11.7667Z" fill="#FF9F5B"/>
</g>
</g>
<g opacity="0.25">
<path d="M7.2439 52.4866C7.93086 52.4866 8.48775 51.9294 8.48775 51.2421C8.48775 50.5547 7.93086 49.9976 7.2439 49.9976C6.55695 49.9976 6.00006 50.5547 6.00006 51.2421C6.00006 51.9294 6.55695 52.4866 7.2439 52.4866Z" fill="#F48351"/>
<mask id="mask1_3115_386807" style="mask-type:luminance" maskUnits="userSpaceOnUse" x="6" y="49" width="3" height="4">
<path d="M7.24399 52.4834C7.93095 52.4834 8.48784 51.9262 8.48784 51.2389C8.48784 50.5516 7.93095 49.9944 7.24399 49.9944C6.55704 49.9944 6.00015 50.5516 6.00015 51.2389C6.00015 51.9262 6.55704 52.4834 7.24399 52.4834Z" fill="white"/>
</mask>
<g mask="url(#mask1_3115_386807)">
<path d="M6.90525 52.1638C7.5922 52.1638 8.14909 51.6066 8.14909 50.9193C8.14909 50.232 7.5922 49.6748 6.90525 49.6748C6.21829 49.6748 5.66141 50.232 5.66141 50.9193C5.66141 51.6066 6.21829 52.1638 6.90525 52.1638Z" fill="#FF9F5B"/>
</g>
</g>
<path d="M9.91388 31.5999H13.107H13.9534C16.106 31.5999 17.8672 33.3539 17.8672 35.4977C17.8672 37.6415 16.106 39.3956 13.9534 39.3956H12.7013H11.201C11.0705 39.3956 10.9639 39.5017 10.9639 39.6317V40.9991C10.9639 41.1528 10.7953 41.251 10.6616 41.1718C9.90593 40.7329 9.53205 40.1229 9.3459 39.6079C9.28863 39.4479 9.15657 39.3243 8.99111 39.2847C7.27921 38.8695 6.00006 37.3246 6.00006 35.4977C6.00006 33.3539 7.76128 31.5999 9.91388 31.5999Z" fill="url(#paint9_linear_3115_386807)"/>
<path d="M15.2103 35.0203C15.5015 35.0203 15.7369 35.2548 15.7369 35.5447C15.7369 35.8347 15.5015 36.0692 15.2103 36.0692C14.9192 36.0692 14.6837 35.8347 14.6837 35.5447C14.6837 35.2548 14.9192 35.0203 15.2103 35.0203Z" fill="white"/>
<path d="M13.1039 35.0203C13.395 35.0203 13.6305 35.2548 13.6305 35.5447C13.6305 35.8347 13.395 36.0692 13.1039 36.0692C12.8127 36.0692 12.5773 35.8347 12.5773 35.5447C12.5773 35.2548 12.8127 35.0203 13.1039 35.0203Z" fill="white"/>
<path d="M10.999 35.0203C11.2901 35.0203 11.5256 35.2548 11.5256 35.5447C11.5256 35.8347 11.2901 36.0692 10.999 36.0692C10.7078 36.0692 10.4724 35.8347 10.4724 35.5447C10.4724 35.2548 10.7078 35.0203 10.999 35.0203Z" fill="white"/>
<path d="M8.89411 35.0203C9.18526 35.0203 9.42072 35.2548 9.42072 35.5447C9.42072 35.8347 9.18526 36.0692 8.89411 36.0692C8.60296 36.0692 8.36749 35.8347 8.36749 35.5447C8.36749 35.2548 8.60296 35.0203 8.89411 35.0203Z" fill="white"/>
<path d="M60.2207 32.0435C61.4471 32.0435 62.4413 31.0487 62.4413 29.8217C62.4413 28.5946 61.4471 27.5999 60.2207 27.5999C58.9943 27.5999 58.0001 28.5946 58.0001 29.8217C58.0001 31.0487 58.9943 32.0435 60.2207 32.0435Z" fill="#F48351"/>
<mask id="mask2_3115_386807" style="mask-type:luminance" maskUnits="userSpaceOnUse" x="58" y="27" width="5" height="6">
<path d="M60.2207 32.0449C61.4471 32.0449 62.4413 31.0502 62.4413 29.8231C62.4413 28.5961 61.4471 27.6013 60.2207 27.6013C58.9943 27.6013 58.0001 28.5961 58.0001 29.8231C58.0001 31.0502 58.9943 32.0449 60.2207 32.0449Z" fill="white"/>
</mask>
<g mask="url(#mask2_3115_386807)">
<path d="M59.6148 31.4644C60.8412 31.4644 61.8354 30.4696 61.8354 29.2426C61.8354 28.0155 60.8412 27.0208 59.6148 27.0208C58.3884 27.0208 57.3942 28.0155 57.3942 29.2426C57.3942 30.4696 58.3884 31.4644 59.6148 31.4644Z" fill="#FF9F5B"/>
</g>
<path d="M53.2045 12.5984H47.8185C44.9484 12.5984 42.6001 14.9371 42.6001 17.7955C42.6001 20.654 44.9484 22.9927 47.8185 22.9927H51.4884C51.6623 22.9927 51.8045 23.1342 51.8045 23.3075V25.1307C51.8045 25.3356 52.0293 25.4666 52.2075 25.361C53.2151 24.7758 53.7136 23.9624 53.9618 23.2758C54.0382 23.0624 54.2143 22.8976 54.4349 22.8448C56.7174 22.2913 58.423 20.2314 58.423 17.7955C58.423 14.9371 56.0747 12.5984 53.2045 12.5984Z" fill="url(#paint10_linear_3115_386807)"/>
<path d="M46.8446 17.8582C46.8446 18.2448 46.5307 18.5575 46.1425 18.5575C45.7543 18.5575 45.4403 18.2448 45.4403 17.8582C45.4403 17.4716 45.7543 17.1589 46.1425 17.1589C46.5307 17.1589 46.8446 17.4716 46.8446 17.8582Z" fill="white"/>
<path d="M49.651 17.8585C49.651 18.2451 49.3371 18.5578 48.9489 18.5578C48.5607 18.5578 48.2467 18.2451 48.2467 17.8585C48.2467 17.4719 48.5607 17.1592 48.9489 17.1592C49.3371 17.1592 49.651 17.4719 49.651 17.8585Z" fill="white"/>
<path d="M52.4599 17.8585C52.4599 18.2451 52.1459 18.5578 51.7577 18.5578C51.3695 18.5578 51.0555 18.2451 51.0555 17.8585C51.0555 17.4719 51.3695 17.1592 51.7577 17.1592C52.1459 17.1592 52.4599 17.4719 52.4599 17.8585Z" fill="white"/>
<path d="M55.2663 17.8585C55.2663 18.2451 54.9523 18.5578 54.5641 18.5578C54.1759 18.5578 53.862 18.2451 53.862 17.8585C53.862 17.4719 54.1759 17.1592 54.5641 17.1592C54.9523 17.1592 55.2663 17.4719 55.2663 17.8585Z" fill="white"/>
<defs>
<linearGradient id="paint0_linear_3115_386807" x1="25.122" y1="45.2007" x2="36.2212" y2="48.2761" gradientUnits="userSpaceOnUse">
<stop stop-color="#FE8C90"/>
<stop offset="1" stop-color="#CB2D3A"/>
</linearGradient>
<linearGradient id="paint1_linear_3115_386807" x1="18.1024" y1="46.5999" x2="35.5025" y2="51.6997" gradientUnits="userSpaceOnUse">
<stop stop-color="#F2696E"/>
<stop offset="1" stop-color="#C62331"/>
</linearGradient>
<linearGradient id="paint2_linear_3115_386807" x1="15.1251" y1="17.8862" x2="40.775" y2="41.1364" gradientUnits="userSpaceOnUse">
<stop stop-color="#EB5E65"/>
<stop offset="1" stop-color="#C62332"/>
</linearGradient>
<linearGradient id="paint3_linear_3115_386807" x1="29.4097" y1="41.9417" x2="31.3903" y2="43.9222" gradientUnits="userSpaceOnUse">
<stop stop-color="#EDF1F2"/>
<stop offset="1" stop-color="#C6CBCC"/>
</linearGradient>
<linearGradient id="paint4_linear_3115_386807" x1="15.4602" y1="21.1386" x2="44.7099" y2="39.138" gradientUnits="userSpaceOnUse">
<stop stop-color="#FF8B8F"/>
<stop offset="1" stop-color="#FE6E72"/>
</linearGradient>
<linearGradient id="paint5_linear_3115_386807" x1="31.6" y1="31.1976" x2="28.5333" y2="40.1309" gradientUnits="userSpaceOnUse">
<stop stop-color="#FACBCD"/>
<stop offset="1" stop-color="#FDE7E8"/>
</linearGradient>
<linearGradient id="paint6_linear_3115_386807" x1="43.2" y1="25.9977" x2="46.4" y2="37.9977" gradientUnits="userSpaceOnUse">
<stop stop-color="#FDE7E8"/>
<stop offset="1" stop-color="#FACBCD"/>
</linearGradient>
<linearGradient id="paint7_linear_3115_386807" x1="27.6088" y1="22.709" x2="29.7187" y2="30.6211" gradientUnits="userSpaceOnUse">
<stop stop-color="#FDE7E8"/>
<stop offset="1" stop-color="#FACBCD"/>
</linearGradient>
<linearGradient id="paint8_linear_3115_386807" x1="40" y1="35.9978" x2="48.8" y2="54.7978" gradientUnits="userSpaceOnUse">
<stop stop-color="#FDECED"/>
<stop offset="1" stop-color="#FACCCD"/>
</linearGradient>
<linearGradient id="paint9_linear_3115_386807" x1="16.0694" y1="40.4176" x2="6.54242" y2="28.9915" gradientUnits="userSpaceOnUse">
<stop stop-color="#FD8C02"/>
<stop offset="0.39" stop-color="#FD9102"/>
<stop offset="0.76" stop-color="#FBBF07"/>
<stop offset="1" stop-color="#FCC604"/>
</linearGradient>
<linearGradient id="paint10_linear_3115_386807" x1="58.353" y1="24.8476" x2="41.9774" y2="10.0008" gradientUnits="userSpaceOnUse">
<stop stop-color="#FE8802"/>
<stop offset="0.39" stop-color="#FD9102"/>
<stop offset="0.76" stop-color="#FBBF07"/>
<stop offset="1" stop-color="#FCC604"/>
</linearGradient>
</defs>
</svg>
