<svg width="80" height="80" viewBox="0 0 80 80" fill="none" xmlns="http://www.w3.org/2000/svg">
<g clip-path="url(#clip0_3277_4113)">
<path d="M77.5 43.7798C77.5 51.8622 73.4208 58.954 67.284 62.9571C63.0149 65.7411 60 70 55.3324 72.52C54.0803 73.196 49 73.5 44.5 72C41.5 71 34.5 75 34.5 75C29.5 76.5 26.206 71.1647 21.5619 70.5143C13.5237 69.3904 2.5 64.8104 2.5 48.5993C2.5 42.8681 4.31485 37.6078 7.55993 33.523C10.305 30.0669 12.579 26.2434 14.5188 22.243C19.0403 12.9061 28.3477 6.5 39.0998 6.5C47.8447 6.5 55.6353 10.7371 60.6712 17.3419C63.0365 20.4442 65.7167 23.2853 68.7671 25.6583C74.0674 29.7866 77.4976 36.3668 77.4976 43.7771L77.5 43.7798Z" fill="#FFF5F6"/>
<g clip-path="url(#clip1_3277_4113)">
<path d="M2.27636 47.5137L6.20795 46.9309C6.23589 46.9268 6.26438 46.9285 6.29158 46.9361C6.31879 46.9437 6.34411 46.9568 6.36591 46.9748L9.43305 49.5026C9.46316 49.5274 9.48542 49.5604 9.49714 49.5977C9.50887 49.6349 9.50955 49.6747 9.4991 49.7123L8.31047 53.9893C8.30002 54.0269 8.27889 54.0607 8.24964 54.0865C8.22039 54.1124 8.18428 54.1292 8.14568 54.1349L4.21409 54.7176C4.18615 54.7218 4.15766 54.72 4.13044 54.7125C4.10323 54.7049 4.07791 54.6917 4.05612 54.6737L0.988988 52.146C0.958878 52.1211 0.936612 52.0881 0.924888 52.0509C0.913165 52.0137 0.912486 51.9738 0.922933 51.9362L2.11156 47.6592C2.12201 47.6216 2.14314 47.5879 2.17239 47.562C2.20164 47.5362 2.23776 47.5194 2.27636 47.5137Z" fill="url(#paint0_linear_3277_4113)"/>
<path d="M4.05603 54.6747L0.988894 52.1469C0.958784 52.1221 0.936518 52.089 0.924795 52.0518C0.913071 52.0146 0.912392 51.9748 0.92284 51.9372L2.11147 47.6601C2.12192 47.6225 2.14305 47.5888 2.1723 47.5629C2.20155 47.5371 2.23766 47.5203 2.27626 47.5146L6.20786 46.9318C6.2358 46.9277 6.26429 46.9295 6.2915 46.937L4.13036 54.7134C4.10315 54.7058 4.07783 54.6926 4.05603 54.6747Z" fill="url(#paint1_linear_3277_4113)"/>
<path d="M5.3731 50.2411L2.1518 47.5862C2.18285 47.5474 2.22725 47.5215 2.27634 47.5137L6.20793 46.9309C6.23587 46.9268 6.26436 46.9286 6.29156 46.9361C6.31877 46.9437 6.34409 46.9569 6.3659 46.9748L9.43303 49.5026C9.47102 49.5347 9.49571 49.5797 9.50227 49.629L5.3731 50.2411Z" fill="url(#paint2_linear_3277_4113)"/>
<path d="M7.19276 49.9723L3.91583 47.2716L4.45366 47.1919L7.73059 49.8926L7.19276 49.9723Z" fill="url(#paint3_linear_3277_4113)"/>
</g>
<path d="M40 66.875C52.0812 66.875 61.875 57.0812 61.875 45C61.875 32.9188 52.0812 23.125 40 23.125C27.9188 23.125 18.125 32.9188 18.125 45C18.125 57.0812 27.9188 66.875 40 66.875Z" fill="url(#paint4_linear_3277_4113)"/>
<path d="M40 62.1875C49.4924 62.1875 57.1875 54.4924 57.1875 45C57.1875 35.5076 49.4924 27.8125 40 27.8125C30.5076 27.8125 22.8125 35.5076 22.8125 45C22.8125 54.4924 30.5076 62.1875 40 62.1875Z" fill="url(#paint5_linear_3277_4113)"/>
<path d="M40 57.5C46.9036 57.5 52.5 51.9036 52.5 45C52.5 38.0964 46.9036 32.5 40 32.5C33.0964 32.5 27.5 38.0964 27.5 45C27.5 51.9036 33.0964 57.5 40 57.5Z" fill="url(#paint6_linear_3277_4113)"/>
<path d="M40 52.8125C44.3147 52.8125 47.8125 49.3147 47.8125 45C47.8125 40.6853 44.3147 37.1875 40 37.1875C35.6853 37.1875 32.1875 40.6853 32.1875 45C32.1875 49.3147 35.6853 52.8125 40 52.8125Z" fill="url(#paint7_linear_3277_4113)"/>
<path d="M53.722 31.2781C53.5769 31.1328 53.4046 31.0176 53.2149 30.9389C53.0252 30.8603 52.8219 30.8198 52.6166 30.8198C52.4112 30.8198 52.2079 30.8603 52.0182 30.9389C51.8285 31.0176 51.6562 31.1328 51.5111 31.2781L38.8955 43.8953C38.7462 44.0394 38.6272 44.2118 38.5453 44.4025C38.4634 44.5931 38.4203 44.7981 38.4185 45.0056C38.4167 45.2131 38.4562 45.4188 38.5348 45.6108C38.6134 45.8028 38.7294 45.9773 38.8761 46.124C39.0228 46.2707 39.1973 46.3867 39.3893 46.4653C39.5813 46.5439 39.7871 46.5834 39.9945 46.5816C40.202 46.5798 40.407 46.5367 40.5977 46.4548C40.7883 46.3729 40.9607 46.2539 41.1048 46.1046L53.722 33.489C53.8673 33.3439 53.9826 33.1716 54.0612 32.9819C54.1398 32.7922 54.1803 32.5889 54.1803 32.3836C54.1803 32.1782 54.1398 31.9749 54.0612 31.7852C53.9826 31.5955 53.8673 31.4232 53.722 31.2781Z" fill="url(#paint8_linear_3277_4113)"/>
<path d="M52.5 35.625C51.6712 35.625 50.8764 35.2958 50.2903 34.7097C49.7043 34.1237 49.375 33.3288 49.375 32.5V30.0219C49.3739 29.6114 49.4543 29.2047 49.6114 28.8254C49.7686 28.4462 49.9995 28.1019 50.2906 27.8125L53.75 24.35C54.0126 24.0882 54.3337 23.8924 54.6867 23.7787C55.0397 23.6651 55.4147 23.6369 55.7807 23.6964C56.1468 23.7558 56.4935 23.9014 56.7924 24.1209C57.0913 24.3405 57.3338 24.6278 57.5 24.9594L58.3438 26.6484L60.0344 27.4922C60.3658 27.6586 60.653 27.9012 60.8724 28.2001C61.0918 28.4991 61.2372 28.8458 61.2965 29.2119C61.3558 29.5779 61.3275 29.9528 61.2137 30.3058C61.1 30.6587 60.9041 30.9797 60.6422 31.2422L57.1875 34.7094C56.8981 35.0006 56.5538 35.2314 56.1746 35.3886C55.7953 35.5458 55.3887 35.6261 54.9781 35.625H52.5Z" fill="url(#paint9_linear_3277_4113)"/>
<g clip-path="url(#clip2_3277_4113)">
<path d="M66.7748 53.9684L70.482 50.142C70.5083 50.1149 70.5401 50.0935 70.5752 50.0794C70.6103 50.0652 70.648 50.0586 70.6858 50.0599L76.0102 50.2475C76.0624 50.2494 76.1131 50.2664 76.1559 50.2964C76.1987 50.3265 76.2319 50.3683 76.2515 50.4168L78.4752 55.936C78.4947 55.9845 78.4998 56.0377 78.4897 56.089C78.4797 56.1404 78.455 56.1877 78.4186 56.2253L74.7114 60.0516C74.6851 60.0788 74.6533 60.1002 74.6182 60.1143C74.5831 60.1285 74.5454 60.1351 74.5076 60.1338L69.1832 59.9462C69.131 59.9443 69.0804 59.9273 69.0375 59.8973C68.9947 59.8673 68.9615 59.8254 68.9419 59.7769L66.7183 54.2577C66.6987 54.2092 66.6937 54.156 66.7037 54.1047C66.7137 54.0533 66.7385 54.006 66.7748 53.9684Z" fill="url(#paint10_linear_3277_4113)"/>
<path d="M74.5076 60.1325L69.1833 59.9449C69.131 59.9431 69.0804 59.9261 69.0375 59.8961C68.9947 59.866 68.9615 59.8242 68.9419 59.7757L66.7183 54.2564C66.6987 54.2079 66.6937 54.1548 66.7037 54.1034C66.7137 54.0521 66.7385 54.0048 66.7748 53.9672L70.482 50.1408C70.5083 50.1136 70.5401 50.0923 70.5752 50.0781L74.6183 60.1131C74.5831 60.1272 74.5454 60.1339 74.5076 60.1325Z" fill="url(#paint11_linear_3277_4113)"/>
<path d="M72.2935 54.3446L66.7015 54.1475C66.7029 54.0809 66.729 54.0172 66.7748 53.9688L70.482 50.1424C70.5083 50.1152 70.5401 50.0939 70.5752 50.0798C70.6103 50.0656 70.648 50.059 70.6858 50.0603L76.0102 50.2479C76.0767 50.251 76.1397 50.2788 76.1869 50.3259L72.2935 54.3446Z" fill="url(#paint12_linear_3277_4113)"/>
<path d="M74.0091 52.5749L68.3206 52.3745L68.8277 51.851L74.5163 52.0515L74.0091 52.5749Z" fill="url(#paint13_linear_3277_4113)"/>
</g>
<g clip-path="url(#clip3_3277_4113)">
<path d="M34.8579 8.34674L28.8041 4.90332C28.761 4.87888 28.7134 4.86373 28.6641 4.85885C28.6149 4.85396 28.5652 4.85944 28.5182 4.87494L21.9055 7.06114C21.8406 7.08262 21.7833 7.12246 21.7405 7.17585C21.6978 7.22923 21.6715 7.29386 21.6647 7.36191L20.8964 15.1026C20.8896 15.1706 20.9028 15.2392 20.9342 15.2999C20.9656 15.3607 21.0139 15.411 21.0734 15.4448L27.1273 18.8882C27.1703 18.9127 27.218 18.9279 27.2672 18.9328C27.3164 18.9376 27.3662 18.9321 27.4132 18.9166L34.0258 16.7304C34.0907 16.709 34.148 16.6691 34.1908 16.6157C34.2335 16.5623 34.2599 16.4977 34.2666 16.4297L35.0349 8.68898C35.0417 8.62093 35.0285 8.55238 34.9971 8.49164C34.9657 8.43089 34.9174 8.38056 34.8579 8.34674Z" fill="url(#paint14_linear_3277_4113)"/>
<path d="M27.4131 18.9125L34.0258 16.7264C34.0907 16.7049 34.148 16.665 34.1907 16.6116C34.2335 16.5583 34.2598 16.4936 34.2666 16.4256L35.0349 8.68491C35.0416 8.61686 35.0285 8.54831 34.9971 8.48756C34.9657 8.42682 34.9173 8.37649 34.8579 8.34266L28.804 4.89924C28.761 4.8748 28.7133 4.85964 28.6641 4.85474L27.2671 18.9287C27.3164 18.9335 27.3661 18.928 27.4131 18.9125Z" fill="url(#paint15_linear_3277_4113)"/>
<path d="M28.0706 10.8418L35.0156 8.54573C34.9894 8.46263 34.9333 8.39223 34.8581 8.34829L28.8042 4.90487C28.7612 4.88044 28.7135 4.86529 28.6643 4.8604C28.615 4.85551 28.5653 4.861 28.5183 4.87649L21.9057 7.06269C21.8233 7.09099 21.7544 7.14897 21.7124 7.22532L28.0706 10.8418Z" fill="url(#paint16_linear_3277_4113)"/>
<path d="M25.2684 9.24593L32.3334 6.91022L31.5052 6.43919L24.4403 8.77489L25.2684 9.24593Z" fill="url(#paint17_linear_3277_4113)"/>
</g>
</g>
<defs>
<linearGradient id="paint0_linear_3277_4113" x1="-1.77165" y1="52.3795" x2="8.61511" y2="50.0661" gradientUnits="userSpaceOnUse">
<stop offset="0.19" stop-color="#FD9B02"/>
<stop offset="1" stop-color="#FF7302"/>
</linearGradient>
<linearGradient id="paint1_linear_3277_4113" x1="5.60428" y1="51.1455" x2="-1.31069" y2="45.6898" gradientUnits="userSpaceOnUse">
<stop stop-color="#FD9B02"/>
<stop offset="1" stop-color="#FF7302"/>
</linearGradient>
<linearGradient id="paint2_linear_3277_4113" x1="6.33934" y1="46.7643" x2="4.56087" y2="53.1636" gradientUnits="userSpaceOnUse">
<stop stop-color="#FED200"/>
<stop offset="1" stop-color="#F59815"/>
</linearGradient>
<linearGradient id="paint3_linear_3277_4113" x1="6.34522" y1="46.7038" x2="4.12774" y2="54.6829" gradientUnits="userSpaceOnUse">
<stop stop-color="#FD9B02"/>
<stop offset="1" stop-color="#FF7302"/>
</linearGradient>
<linearGradient id="paint4_linear_3277_4113" x1="24.5328" y1="29.5328" x2="55.4672" y2="60.4672" gradientUnits="userSpaceOnUse">
<stop stop-color="#E85155"/>
<stop offset="1" stop-color="#C21D2C"/>
</linearGradient>
<linearGradient id="paint5_linear_3277_4113" x1="27.8469" y1="32.8469" x2="52.1531" y2="57.1531" gradientUnits="userSpaceOnUse">
<stop stop-color="white"/>
<stop offset="1" stop-color="#DADFE0"/>
</linearGradient>
<linearGradient id="paint6_linear_3277_4113" x1="31.1609" y1="36.1609" x2="48.8391" y2="53.8391" gradientUnits="userSpaceOnUse">
<stop stop-color="#E85155"/>
<stop offset="1" stop-color="#C21D2C"/>
</linearGradient>
<linearGradient id="paint7_linear_3277_4113" x1="34.475" y1="39.475" x2="45.525" y2="50.525" gradientUnits="userSpaceOnUse">
<stop stop-color="white"/>
<stop offset="1" stop-color="#DADFE0"/>
</linearGradient>
<linearGradient id="paint8_linear_3277_4113" x1="50.3236" y1="34.6765" x2="39.7752" y2="45.225" gradientUnits="userSpaceOnUse">
<stop stop-color="#3E4154"/>
<stop offset="1" stop-color="#1B2129"/>
</linearGradient>
<linearGradient id="paint9_linear_3277_4113" x1="51.1266" y1="26.975" x2="58.025" y2="33.8734" gradientUnits="userSpaceOnUse">
<stop stop-color="#FED200"/>
<stop offset="1" stop-color="#F59815"/>
</linearGradient>
<linearGradient id="paint10_linear_3277_4113" x1="66.437" y1="62.4461" x2="75.5996" y2="51.5141" gradientUnits="userSpaceOnUse">
<stop offset="0.19" stop-color="#FD9B02"/>
<stop offset="1" stop-color="#FF7302"/>
</linearGradient>
<linearGradient id="paint11_linear_3277_4113" x1="73.2764" y1="55.1156" x2="61.4708" y2="54.9513" gradientUnits="userSpaceOnUse">
<stop stop-color="#FD9B02"/>
<stop offset="1" stop-color="#FF7302"/>
</linearGradient>
<linearGradient id="paint12_linear_3277_4113" x1="70.4858" y1="49.858" x2="73.813" y2="58.116" gradientUnits="userSpaceOnUse">
<stop stop-color="#FED200"/>
<stop offset="1" stop-color="#F59815"/>
</linearGradient>
<linearGradient id="paint13_linear_3277_4113" x1="70.4419" y1="49.7891" x2="74.5903" y2="60.0857" gradientUnits="userSpaceOnUse">
<stop stop-color="#FD9B02"/>
<stop offset="1" stop-color="#FF7302"/>
</linearGradient>
<linearGradient id="paint14_linear_3277_4113" x1="38.3879" y1="18.8614" x2="22.8847" y2="8.50002" gradientUnits="userSpaceOnUse">
<stop offset="0.19" stop-color="#FD9B02"/>
<stop offset="1" stop-color="#FF7302"/>
</linearGradient>
<linearGradient id="paint15_linear_3277_4113" x1="27.12" y1="12.1658" x2="41.8744" y2="7.63434" gradientUnits="userSpaceOnUse">
<stop stop-color="#FD9B02"/>
<stop offset="1" stop-color="#FF7302"/>
</linearGradient>
<linearGradient id="paint16_linear_3277_4113" x1="28.6951" y1="4.54934" x2="27.5456" y2="16.1312" gradientUnits="userSpaceOnUse">
<stop stop-color="#FED200"/>
<stop offset="1" stop-color="#F59815"/>
</linearGradient>
<linearGradient id="paint17_linear_3277_4113" x1="28.7243" y1="4.44309" x2="27.2909" y2="18.8839" gradientUnits="userSpaceOnUse">
<stop stop-color="#FD9B02"/>
<stop offset="1" stop-color="#FF7302"/>
</linearGradient>
<clipPath id="clip0_3277_4113">
<rect width="80" height="80" fill="white"/>
</clipPath>
<clipPath id="clip1_3277_4113">
<rect width="9.6853" height="9.6853" fill="white" transform="matrix(-0.963485 -0.267764 -0.267764 0.963485 10.9248 47.5933)"/>
</clipPath>
<clipPath id="clip2_3277_4113">
<rect width="12.9826" height="12.9826" fill="white" transform="matrix(-0.927547 0.373705 0.373705 0.927547 76.042 47)"/>
</clipPath>
<clipPath id="clip3_3277_4113">
<rect width="16.9717" height="16.9717" fill="white" transform="translate(20.6763 3) rotate(5.66836)"/>
</clipPath>
</defs>
</svg>
