<svg width="64" height="64" viewBox="0 0 64 64" fill="none" xmlns="http://www.w3.org/2000/svg">
<path d="M61.9999 35.023C61.9999 41.489 58.7365 47.1624 53.8271 50.3649C50.4118 52.5921 47.9999 55.9992 44.2658 58.0152C43.2641 58.556 39.1999 58.7992 35.5999 57.5992C33.1999 56.7992 27.5999 59.9992 27.5999 59.9992C23.5999 61.1992 20.9647 56.931 17.2494 56.4107C10.8188 55.5115 1.99988 51.8475 1.99988 38.8786C1.99988 34.2937 3.45175 30.0854 6.04782 26.8176C8.24391 24.0527 10.0631 20.9939 11.615 17.7936C15.2321 10.3241 22.6781 5.19922 31.2797 5.19922C38.2756 5.19922 44.5081 8.58893 48.5368 13.8727C50.4291 16.3546 52.5733 18.6274 55.0136 20.5259C59.2538 23.8285 61.998 29.0927 61.998 35.0209L61.9999 35.023Z" fill="#FFF5F6"/>
<g clip-path="url(#clip0_3115_386631)">
<path d="M58.8846 42.1097L55.0553 33.6858C54.7378 32.9897 54.2271 32.3995 53.5839 31.9852C52.9407 31.571 52.1921 31.3502 51.427 31.3491H14.4845C14.2202 31.3491 13.9667 31.4541 13.7798 31.641C13.5929 31.8279 13.4879 32.0814 13.4879 32.3457V43.3082H14.9828C15.1145 43.307 15.2451 43.3318 15.3672 43.3813C15.4892 43.4308 15.6002 43.504 15.6938 43.5967C15.7873 43.6894 15.8616 43.7997 15.9123 43.9212C15.963 44.0427 15.9891 44.1731 15.9891 44.3048C15.9891 44.4365 15.963 44.5669 15.9123 44.6884C15.8616 44.81 15.7873 44.9203 15.6938 45.0129C15.6002 45.1056 15.4892 45.1788 15.3672 45.2283C15.2451 45.2778 15.1145 45.3027 14.9828 45.3014H13.4879V48.2912C13.4888 49.0839 13.8041 49.8438 14.3646 50.4043C14.9251 50.9648 15.685 51.2801 16.4777 51.281H56.3415C57.1341 51.2801 57.8941 50.9648 58.4546 50.4043C59.0151 49.8438 59.3304 49.0839 59.3313 48.2912V44.1717C59.3323 43.4603 59.18 42.7569 58.8846 42.1097Z" fill="url(#paint0_linear_3115_386631)"/>
<path d="M57.3381 45.3018H59.3312V44.1721C59.3293 43.8824 59.302 43.5935 59.2498 43.3086H57.3381C57.0737 43.3086 56.8202 43.4136 56.6333 43.6005C56.4464 43.7874 56.3414 44.0409 56.3414 44.3052C56.3414 44.4361 56.3672 44.5657 56.4173 44.6866C56.4674 44.8075 56.5408 44.9174 56.6333 45.0099C56.7259 45.1024 56.8358 45.1758 56.9567 45.2259C57.0776 45.276 57.2072 45.3018 57.3381 45.3018Z" fill="url(#paint1_linear_3115_386631)"/>
<path d="M51.8871 35.3335H47.3721C47.2412 35.3335 47.1116 35.3592 46.9907 35.4093C46.8698 35.4594 46.7599 35.5328 46.6674 35.6253C46.5749 35.7179 46.5014 35.8277 46.4514 35.9486C46.4013 36.0696 46.3755 36.1992 46.3755 36.33V40.3164C46.3755 40.5808 46.4805 40.8342 46.6674 41.0212C46.8543 41.2081 47.1078 41.3131 47.3721 41.3131H54.3407C54.5075 41.3131 54.6716 41.2712 54.818 41.1914C54.9644 41.1115 55.0884 40.9962 55.1787 40.856C55.269 40.7158 55.3226 40.5552 55.3347 40.3889C55.3469 40.2225 55.317 40.0558 55.248 39.904L53.7016 36.5018C53.5432 36.1535 53.2879 35.858 52.9661 35.6508C52.6444 35.4437 52.2698 35.3335 51.8871 35.3335Z" fill="url(#paint2_linear_3115_386631)"/>
<path d="M22.4572 54.7684C24.934 54.7684 26.9419 52.7606 26.9419 50.2837C26.9419 47.8069 24.934 45.7991 22.4572 45.7991C19.9804 45.7991 17.9725 47.8069 17.9725 50.2837C17.9725 52.7606 19.9804 54.7684 22.4572 54.7684Z" fill="url(#paint3_linear_3115_386631)"/>
<path d="M22.4573 52.2761C23.5581 52.2761 24.4504 51.3837 24.4504 50.2829C24.4504 49.1822 23.5581 48.2898 22.4573 48.2898C21.3565 48.2898 20.4641 49.1822 20.4641 50.2829C20.4641 51.3837 21.3565 52.2761 22.4573 52.2761Z" fill="url(#paint4_linear_3115_386631)"/>
<path d="M48.3687 54.7684C50.8455 54.7684 52.8534 52.7606 52.8534 50.2837C52.8534 47.8069 50.8455 45.7991 48.3687 45.7991C45.8919 45.7991 43.884 47.8069 43.884 50.2837C43.884 52.7606 45.8919 54.7684 48.3687 54.7684Z" fill="url(#paint5_linear_3115_386631)"/>
<path d="M48.3688 52.2761C49.4696 52.2761 50.3619 51.3837 50.3619 50.2829C50.3619 49.1822 49.4696 48.2898 48.3688 48.2898C47.268 48.2898 46.3756 49.1822 46.3756 50.2829C46.3756 51.3837 47.268 52.2761 48.3688 52.2761Z" fill="url(#paint6_linear_3115_386631)"/>
<path d="M41.3924 25.3679H16.4776C15.6849 25.3688 14.9249 25.6841 14.3644 26.2446C13.8039 26.8051 13.4887 27.565 13.4878 28.3577V41.3134H12.4913C12.3596 41.3122 12.2289 41.337 12.1069 41.3865C11.9849 41.436 11.8739 41.5092 11.7803 41.6019C11.6867 41.6946 11.6125 41.8049 11.5618 41.9264C11.5111 42.048 11.485 42.1783 11.485 42.31C11.485 42.4417 11.5111 42.5721 11.5618 42.6936C11.6125 42.8152 11.6867 42.9255 11.7803 43.0182C11.8739 43.1108 11.9849 43.184 12.1069 43.2335C12.2289 43.283 12.3596 43.3079 12.4913 43.3066H14.9827C15.1144 43.3053 15.245 43.3302 15.367 43.3797C15.4891 43.4292 15.6001 43.5024 15.6936 43.5951C15.7872 43.6877 15.8615 43.798 15.9122 43.9196C15.9629 44.0411 15.989 44.1715 15.989 44.3032C15.989 44.4349 15.9629 44.5653 15.9122 44.6868C15.8615 44.8083 15.7872 44.9186 15.6936 45.0113C15.6001 45.104 15.4891 45.1772 15.367 45.2267C15.245 45.2762 15.1144 45.301 14.9827 45.2998H12.4913C12.2269 45.2998 11.9734 45.4048 11.7865 45.5917C11.5996 45.7786 11.4946 46.0321 11.4946 46.2964C11.4946 46.5607 11.5996 46.8142 11.7865 47.0011C11.9734 47.188 12.2269 47.293 12.4913 47.293H41.3924C42.1851 47.2921 42.9451 46.9769 43.5056 46.4164C44.0661 45.8559 44.3814 45.0959 44.3822 44.3032V28.3577C44.3814 27.565 44.0661 26.8051 43.5056 26.2446C42.9451 25.6841 42.1851 25.3688 41.3924 25.3679Z" fill="url(#paint7_linear_3115_386631)"/>
</g>
<path d="M30.6294 5.87125L24.4337 2.34715C24.3897 2.32215 24.3409 2.30664 24.2905 2.30164C24.2401 2.29664 24.1892 2.30225 24.1411 2.31811L17.3735 4.55553C17.3071 4.57751 17.2484 4.61829 17.2047 4.67293C17.1609 4.72756 17.134 4.79371 17.1271 4.86336L16.3408 12.7854C16.3338 12.855 16.3473 12.9252 16.3794 12.9874C16.4116 13.0495 16.4611 13.101 16.5219 13.1357L22.7176 16.6597C22.7616 16.6848 22.8104 16.7003 22.8608 16.7053C22.9112 16.7103 22.9621 16.7047 23.0102 16.6888L29.7778 14.4514C29.8442 14.4294 29.9029 14.3886 29.9466 14.334C29.9904 14.2793 30.0173 14.2132 30.0242 14.1436L30.8106 6.22152C30.8175 6.15187 30.804 6.08172 30.7719 6.01955C30.7397 5.95738 30.6902 5.90587 30.6294 5.87125Z" fill="url(#paint8_linear_3115_386631)"/>
<path d="M23.0102 16.6855L29.7777 14.4481C29.8442 14.4261 29.9028 14.3854 29.9466 14.3307C29.9903 14.2761 30.0173 14.2099 30.0242 14.1403L30.8105 6.21825C30.8174 6.14861 30.804 6.07845 30.7718 6.01628C30.7397 5.95412 30.6902 5.9026 30.6294 5.86799L24.4336 2.34389C24.3896 2.31887 24.3408 2.30335 24.2904 2.29834L22.8608 16.702C22.9112 16.707 22.9621 16.7014 23.0102 16.6855Z" fill="url(#paint9_linear_3115_386631)"/>
<path d="M23.6828 8.4239L30.7906 6.07406C30.7638 5.98901 30.7064 5.91697 30.6294 5.872L24.4337 2.34789C24.3896 2.32289 24.3408 2.30738 24.2904 2.30238C24.2401 2.29738 24.1892 2.30299 24.1411 2.31885L17.3735 4.55627C17.2892 4.58524 17.2187 4.64458 17.1757 4.72272L23.6828 8.4239Z" fill="url(#paint10_linear_3115_386631)"/>
<path d="M20.815 6.79398L28.0455 4.40355L27.198 3.92148L19.9675 6.31191L20.815 6.79398Z" fill="url(#paint11_linear_3115_386631)"/>
<g clip-path="url(#clip1_3115_386631)">
<path d="M47.0098 17.9515L50.4966 14.3525C50.5214 14.327 50.5513 14.3069 50.5843 14.2936C50.6173 14.2803 50.6528 14.2741 50.6884 14.2753L55.6963 14.4518C55.7454 14.4535 55.7931 14.4695 55.8333 14.4977C55.8736 14.526 55.9048 14.5653 55.9232 14.611L58.0148 19.8022C58.0331 19.8478 58.0379 19.8978 58.0285 19.9461C58.019 19.9944 57.9958 20.0389 57.9615 20.0742L54.4747 23.6732C54.45 23.6988 54.4201 23.7188 54.3871 23.7322C54.354 23.7455 54.3186 23.7517 54.283 23.7504L49.2751 23.574C49.2259 23.5722 49.1783 23.5563 49.138 23.528C49.0978 23.4998 49.0665 23.4604 49.0481 23.4148L46.9566 18.2236C46.9382 18.1779 46.9335 18.1279 46.9429 18.0797C46.9524 18.0314 46.9756 17.9869 47.0098 17.9515Z" fill="url(#paint12_linear_3115_386631)"/>
<path d="M54.283 23.7505L49.2751 23.5741C49.226 23.5723 49.1784 23.5564 49.1381 23.5281C49.0978 23.4999 49.0666 23.4605 49.0482 23.4149L46.9567 18.2237C46.9383 18.1781 46.9335 18.1281 46.943 18.0798C46.9524 18.0315 46.9756 17.987 47.0099 17.9516L50.4967 14.3527C50.5215 14.3271 50.5513 14.307 50.5844 14.2937L54.3871 23.7323C54.3541 23.7456 54.3186 23.7518 54.283 23.7505Z" fill="url(#paint13_linear_3115_386631)"/>
<path d="M52.2005 18.3049L46.9409 18.1196C46.9422 18.0569 46.9668 17.997 47.0099 17.9515L50.4967 14.3525C50.5215 14.327 50.5513 14.3069 50.5844 14.2936C50.6174 14.2803 50.6528 14.274 50.6884 14.2753L55.6963 14.4518C55.7589 14.4547 55.8182 14.4808 55.8626 14.5251L52.2005 18.3049Z" fill="url(#paint14_linear_3115_386631)"/>
<path d="M53.8143 16.6393L48.4639 16.4507L48.9409 15.9584L54.2913 16.147L53.8143 16.6393Z" fill="url(#paint15_linear_3115_386631)"/>
</g>
<g clip-path="url(#clip2_3115_386631)">
<path d="M3.91376 27.9909L7.55517 27.7009C7.58105 27.6989 7.60706 27.7023 7.63154 27.7109C7.65602 27.7195 7.67842 27.7332 7.69729 27.751L10.3527 30.2596C10.3787 30.2842 10.3971 30.3159 10.4055 30.3508C10.414 30.3856 10.4121 30.4222 10.4002 30.456L9.04439 34.3041C9.03247 34.3379 9.011 34.3675 8.98257 34.3894C8.95415 34.4113 8.91999 34.4244 8.88423 34.4273L5.24283 34.7173C5.21695 34.7193 5.19093 34.716 5.16645 34.7073C5.14197 34.6987 5.11957 34.685 5.10071 34.6672L2.44533 32.1586C2.41927 32.134 2.4009 32.1023 2.39247 32.0675C2.38403 32.0326 2.38588 31.996 2.3978 31.9622L3.7536 28.1142C3.76552 28.0804 3.787 28.0507 3.81542 28.0288C3.84385 28.007 3.87801 27.9938 3.91376 27.9909Z" fill="url(#paint16_linear_3115_386631)"/>
<path d="M5.10075 34.6675L2.44537 32.1589C2.41931 32.1343 2.40094 32.1026 2.39251 32.0677C2.38407 32.0329 2.38592 31.9963 2.39784 31.9625L3.75364 28.1145C3.76556 28.0806 3.78704 28.051 3.81546 28.0291C3.84389 28.0072 3.87805 27.9941 3.9138 27.9912L7.55521 27.7012C7.58109 27.6992 7.60711 27.7026 7.63159 27.7112L5.1665 34.7076C5.14202 34.699 5.11963 34.6853 5.10075 34.6675Z" fill="url(#paint17_linear_3115_386631)"/>
<path d="M6.58384 30.6829L3.79501 28.0483C3.82589 28.0146 3.86821 27.9936 3.91372 27.9895L7.55513 27.6995C7.581 27.6974 7.60701 27.7008 7.63149 27.7095C7.65597 27.7181 7.67837 27.7318 7.69725 27.7496L10.3526 30.2581C10.3855 30.2899 10.4053 30.3328 10.4083 30.3784L6.58384 30.6829Z" fill="url(#paint18_linear_3115_386631)"/>
<path d="M8.2692 30.5496L5.43219 27.8694L5.93032 27.8297L8.76733 30.5099L8.2692 30.5496Z" fill="url(#paint19_linear_3115_386631)"/>
</g>
<path d="M22.1137 32.3992H19.3285C19.0823 32.3992 18.8461 32.497 18.672 32.6711C18.4979 32.8452 18.4001 33.0813 18.4001 33.3275V38.898C18.3989 39.0207 18.422 39.1424 18.4681 39.2561C18.5143 39.3697 18.5825 39.4731 18.6688 39.5603C18.7551 39.6475 18.8579 39.7167 18.9711 39.7639C19.0843 39.8111 19.2058 39.8354 19.3285 39.8354C19.4511 39.8354 19.5726 39.8111 19.6858 39.7639C19.7991 39.7167 19.9018 39.6475 19.9881 39.5603C20.0745 39.4731 20.1427 39.3697 20.1888 39.2561C20.2349 39.1424 20.2581 39.0207 20.2569 38.898V37.0412H21.6495C21.7722 37.0424 21.8939 37.0193 22.0075 36.9731C22.1212 36.927 22.2246 36.8588 22.3118 36.7725C22.399 36.6862 22.4682 36.5834 22.5154 36.4702C22.5626 36.357 22.5869 36.2355 22.5869 36.1128C22.5869 35.9901 22.5626 35.8687 22.5154 35.7554C22.4682 35.6422 22.399 35.5395 22.3118 35.4531C22.2246 35.3668 22.1212 35.2986 22.0075 35.2525C21.8939 35.2064 21.7722 35.1832 21.6495 35.1844H20.2569V34.256H22.1137C22.3584 34.2536 22.5923 34.1547 22.7644 33.9809C22.9366 33.807 23.0332 33.5722 23.0332 33.3276C23.0332 33.0829 22.9366 32.8481 22.7644 32.6742C22.5923 32.5004 22.3584 32.4015 22.1137 32.3992Z" fill="url(#paint20_linear_3115_386631)"/>
<path d="M28.8642 34.7201C28.8635 34.1048 28.6187 33.5149 28.1835 33.0798C27.7484 32.6447 27.1585 32.3999 26.5432 32.3992H24.6864C24.4402 32.3992 24.204 32.497 24.0299 32.6711C23.8558 32.8452 23.758 33.0813 23.7579 33.3275V38.898C23.7579 39.1442 23.8558 39.3804 24.0299 39.5545C24.204 39.7286 24.4401 39.8264 24.6864 39.8264C24.9326 39.8264 25.1688 39.7286 25.3429 39.5545C25.517 39.3804 25.6148 39.1442 25.6148 38.898V37.7878L27.1214 39.5094C27.2012 39.6025 27.2988 39.6789 27.4083 39.7342C27.5179 39.7894 27.6374 39.8223 27.7597 39.8311C27.8821 39.8399 28.0051 39.8243 28.1214 39.7853C28.2377 39.7463 28.3452 39.6846 28.4375 39.6038C28.5298 39.5229 28.6052 39.4246 28.6593 39.3145C28.7134 39.2044 28.7452 39.0846 28.7527 38.9621C28.7602 38.8396 28.7434 38.7169 28.7031 38.601C28.6629 38.485 28.6001 38.3782 28.5183 38.2867L27.3138 36.9098C27.7668 36.7497 28.159 36.4532 28.4367 36.0611C28.7143 35.669 28.8637 35.2006 28.8642 34.7201ZM26.5432 35.1844H25.6148V34.256H26.5432C26.6047 34.2551 26.6657 34.2665 26.7228 34.2895C26.7798 34.3124 26.8318 34.3465 26.8756 34.3897C26.9193 34.4329 26.9541 34.4843 26.9778 34.5411C27.0016 34.5978 27.0138 34.6587 27.0138 34.7202C27.0138 34.7817 27.0016 34.8426 26.9778 34.8993C26.9541 34.9561 26.9193 35.0075 26.8756 35.0507C26.8318 35.0939 26.7798 35.128 26.7228 35.1509C26.6657 35.1739 26.6047 35.1853 26.5432 35.1844Z" fill="url(#paint21_linear_3115_386631)"/>
<path d="M33.4868 34.256C33.6095 34.2572 33.7312 34.2341 33.8448 34.1879C33.9585 34.1418 34.0619 34.0736 34.1491 33.9873C34.2363 33.901 34.3055 33.7982 34.3527 33.685C34.3999 33.5718 34.4242 33.4503 34.4242 33.3276C34.4242 33.2049 34.3999 33.0835 34.3527 32.9702C34.3055 32.857 34.2363 32.7543 34.1491 32.6679C34.0619 32.5816 33.9585 32.5134 33.8448 32.4673C33.7312 32.4212 33.6095 32.398 33.4868 32.3992H30.7015C30.4553 32.3992 30.2192 32.4971 30.0451 32.6711C29.871 32.8452 29.7732 33.0814 29.7732 33.3276V38.898C29.7732 39.1443 29.871 39.3804 30.0451 39.5545C30.2192 39.7286 30.4553 39.8265 30.7015 39.8265H33.4868C33.6095 39.8277 33.7312 39.8045 33.8448 39.7584C33.9585 39.7123 34.0619 39.6441 34.1491 39.5578C34.2363 39.4714 34.3055 39.3687 34.3527 39.2555C34.3999 39.1422 34.4242 39.0208 34.4242 38.8981C34.4242 38.7754 34.3999 38.6539 34.3527 38.5407C34.3055 38.4275 34.2363 38.3247 34.1491 38.2384C34.0619 38.1521 33.9585 38.0839 33.8448 38.0378C33.7312 37.9916 33.6095 37.9685 33.4868 37.9697H31.63V37.0412H33.0022C33.2469 37.0389 33.4808 36.94 33.6529 36.7662C33.8251 36.5923 33.9217 36.3575 33.9217 36.1129C33.9217 35.8682 33.8251 35.6334 33.6529 35.4595C33.4808 35.2857 33.2469 35.1868 33.0022 35.1845H31.63V34.256H33.4868Z" fill="url(#paint22_linear_3115_386631)"/>
<path d="M38.8253 37.9696H36.9684V37.0412H38.3402C38.5849 37.0388 38.8187 36.94 38.9909 36.7661C39.1631 36.5923 39.2596 36.3575 39.2596 36.1128C39.2596 35.8681 39.1631 35.6333 38.9909 35.4595C38.8187 35.2856 38.5849 35.1868 38.3402 35.1844H36.9684V34.256H38.8253C39.0699 34.2536 39.3038 34.1547 39.4759 33.9809C39.6481 33.807 39.7447 33.5722 39.7447 33.3276C39.7447 33.0829 39.6481 32.8481 39.4759 32.6742C39.3038 32.5004 39.0699 32.4015 38.8253 32.3992H36.04C35.7938 32.3992 35.5577 32.497 35.3835 32.6711C35.2094 32.8452 35.1116 33.0813 35.1116 33.3275V38.898C35.1116 39.1442 35.2094 39.3804 35.3835 39.5545C35.5576 39.7286 35.7938 39.8264 36.04 39.8264H38.8253C39.0699 39.8241 39.3038 39.7252 39.4759 39.5514C39.6481 39.3775 39.7447 39.1427 39.7447 38.898C39.7447 38.6534 39.6481 38.4186 39.4759 38.2447C39.3038 38.0709 39.0699 37.972 38.8253 37.9696Z" fill="url(#paint23_linear_3115_386631)"/>
<defs>
<linearGradient id="paint0_linear_3115_386631" x1="56.0887" y1="30.9181" x2="14.7657" y2="51.94" gradientUnits="userSpaceOnUse">
<stop stop-color="#E54C51"/>
<stop offset="1" stop-color="#C31F2E"/>
</linearGradient>
<linearGradient id="paint1_linear_3115_386631" x1="59.3779" y1="44.3052" x2="56.2245" y2="44.3052" gradientUnits="userSpaceOnUse">
<stop stop-color="#FED200"/>
<stop offset="1" stop-color="#F59815"/>
</linearGradient>
<linearGradient id="paint2_linear_3115_386631" x1="53.8009" y1="36.1889" x2="46.5935" y2="41.4144" gradientUnits="userSpaceOnUse">
<stop stop-color="white"/>
<stop offset="1" stop-color="#EDF2F0"/>
</linearGradient>
<linearGradient id="paint3_linear_3115_386631" x1="25.6283" y1="47.1126" x2="19.5455" y2="53.1954" gradientUnits="userSpaceOnUse">
<stop stop-color="#3E4154"/>
<stop offset="1" stop-color="#1B2129"/>
</linearGradient>
<linearGradient id="paint4_linear_3115_386631" x1="23.861" y1="48.8792" x2="21.3376" y2="51.4026" gradientUnits="userSpaceOnUse">
<stop stop-color="white"/>
<stop offset="1" stop-color="#EDF1F2"/>
</linearGradient>
<linearGradient id="paint5_linear_3115_386631" x1="51.7422" y1="46.9102" x2="45.4792" y2="53.1732" gradientUnits="userSpaceOnUse">
<stop stop-color="#3E4154"/>
<stop offset="1" stop-color="#1B2129"/>
</linearGradient>
<linearGradient id="paint6_linear_3115_386631" x1="49.7902" y1="48.8614" x2="46.8612" y2="51.7905" gradientUnits="userSpaceOnUse">
<stop stop-color="white"/>
<stop offset="1" stop-color="#EDF1F2"/>
</linearGradient>
<linearGradient id="paint7_linear_3115_386631" x1="44.5673" y1="25.173" x2="13.0945" y2="47.6365" gradientUnits="userSpaceOnUse">
<stop stop-color="#FC6E71"/>
<stop offset="1" stop-color="#E95256"/>
</linearGradient>
<linearGradient id="paint8_linear_3115_386631" x1="34.2421" y1="16.6323" x2="18.3757" y2="6.02813" gradientUnits="userSpaceOnUse">
<stop offset="0.19" stop-color="#FD9B02"/>
<stop offset="1" stop-color="#FF7302"/>
</linearGradient>
<linearGradient id="paint9_linear_3115_386631" x1="22.7102" y1="9.78072" x2="37.8102" y2="5.14307" gradientUnits="userSpaceOnUse">
<stop stop-color="#FD9B02"/>
<stop offset="1" stop-color="#FF7302"/>
</linearGradient>
<linearGradient id="paint10_linear_3115_386631" x1="24.322" y1="1.98404" x2="23.1455" y2="13.8372" gradientUnits="userSpaceOnUse">
<stop stop-color="#FED200"/>
<stop offset="1" stop-color="#F59815"/>
</linearGradient>
<linearGradient id="paint11_linear_3115_386631" x1="24.3518" y1="1.87861" x2="22.8849" y2="16.6578" gradientUnits="userSpaceOnUse">
<stop stop-color="#FD9B02"/>
<stop offset="1" stop-color="#FF7302"/>
</linearGradient>
<linearGradient id="paint12_linear_3115_386631" x1="46.6921" y1="25.9253" x2="55.3101" y2="15.643" gradientUnits="userSpaceOnUse">
<stop offset="0.19" stop-color="#FD9B02"/>
<stop offset="1" stop-color="#FF7302"/>
</linearGradient>
<linearGradient id="paint13_linear_3115_386631" x1="53.125" y1="19.0318" x2="42.0211" y2="18.8773" gradientUnits="userSpaceOnUse">
<stop stop-color="#FD9B02"/>
<stop offset="1" stop-color="#FF7302"/>
</linearGradient>
<linearGradient id="paint14_linear_3115_386631" x1="50.5003" y1="14.085" x2="53.6297" y2="21.8522" gradientUnits="userSpaceOnUse">
<stop stop-color="#FED200"/>
<stop offset="1" stop-color="#F59815"/>
</linearGradient>
<linearGradient id="paint15_linear_3115_386631" x1="50.4591" y1="14.019" x2="54.361" y2="23.7036" gradientUnits="userSpaceOnUse">
<stop stop-color="#FD9B02"/>
<stop offset="1" stop-color="#FF7302"/>
</linearGradient>
<linearGradient id="paint16_linear_3115_386631" x1="-0.10063" y1="32.2012" x2="9.56761" y2="30.7255" gradientUnits="userSpaceOnUse">
<stop offset="0.19" stop-color="#FD9B02"/>
<stop offset="1" stop-color="#FF7302"/>
</linearGradient>
<linearGradient id="paint17_linear_3115_386631" x1="6.73983" y1="31.5276" x2="0.738068" y2="26.0949" gradientUnits="userSpaceOnUse">
<stop stop-color="#FD9B02"/>
<stop offset="1" stop-color="#FF7302"/>
</linearGradient>
<linearGradient id="paint18_linear_3115_386631" x1="7.68598" y1="27.5548" x2="5.65739" y2="33.3124" gradientUnits="userSpaceOnUse">
<stop stop-color="#FED200"/>
<stop offset="1" stop-color="#F59815"/>
</linearGradient>
<linearGradient id="paint19_linear_3115_386631" x1="7.69519" y1="27.4997" x2="5.16583" y2="34.6785" gradientUnits="userSpaceOnUse">
<stop stop-color="#FD9B02"/>
<stop offset="1" stop-color="#FF7302"/>
</linearGradient>
<linearGradient id="paint20_linear_3115_386631" x1="38.4963" y1="28.4257" x2="17.0101" y2="37.0425" gradientUnits="userSpaceOnUse">
<stop stop-color="white"/>
<stop offset="1" stop-color="#F2EDED"/>
</linearGradient>
<linearGradient id="paint21_linear_3115_386631" x1="39.4557" y1="30.818" x2="17.9695" y2="39.4349" gradientUnits="userSpaceOnUse">
<stop stop-color="white"/>
<stop offset="1" stop-color="#F2EDED"/>
</linearGradient>
<linearGradient id="paint22_linear_3115_386631" x1="40.265" y1="32.836" x2="18.7789" y2="41.4528" gradientUnits="userSpaceOnUse">
<stop stop-color="white"/>
<stop offset="1" stop-color="#F2EDED"/>
</linearGradient>
<linearGradient id="paint23_linear_3115_386631" x1="41.0046" y1="34.6803" x2="19.5185" y2="43.2971" gradientUnits="userSpaceOnUse">
<stop stop-color="white"/>
<stop offset="1" stop-color="#F2EDED"/>
</linearGradient>
<clipPath id="clip0_3115_386631">
<rect width="49.3314" height="38.4" fill="white" transform="translate(9.99988 16.3992)"/>
</clipPath>
<clipPath id="clip1_3115_386631">
<rect width="12.211" height="12.211" fill="white" transform="matrix(-0.927547 0.373705 0.373705 0.927547 55.7263 11.3992)"/>
</clipPath>
<clipPath id="clip2_3115_386631">
<rect width="8.90159" height="8.90159" fill="white" transform="matrix(-0.943169 -0.332312 -0.332312 0.943169 11.8394 28.5999)"/>
</clipPath>
</defs>
</svg>
