<svg width="64" height="64" viewBox="0 0 64 64" fill="none" xmlns="http://www.w3.org/2000/svg">
<g clip-path="url(#clip0_3115_386666)">
<path d="M61.9999 35.0238C61.9999 41.4897 58.7365 47.1632 53.8271 50.3657C50.4118 52.5928 47.9999 56 44.2658 58.0159C43.2641 58.5567 39.1999 58.8 35.5999 57.6C33.1999 56.8 27.5999 60 27.5999 60C23.5999 61.2 20.9647 56.9317 17.2494 56.4114C10.8188 55.5123 1.99988 51.8482 1.99988 38.8794C1.99988 34.2944 3.45175 30.0862 6.04782 26.8184C8.24391 24.0535 10.0631 20.9947 11.615 17.7944C15.2321 10.3248 22.6781 5.19995 31.2797 5.19995C38.2756 5.19995 44.5081 8.58966 48.5368 13.8734C50.4291 16.3553 52.5733 18.6282 55.0136 20.5266C59.2538 23.8292 61.998 29.0934 61.998 35.0216L61.9999 35.0238Z" fill="#FFF5F6"/>
<g clip-path="url(#clip1_3115_386666)">
<path d="M1.62162 36.0104L4.7669 35.5442C4.78925 35.5409 4.81204 35.5423 4.8338 35.5484C4.85557 35.5544 4.87583 35.565 4.89327 35.5793L7.34697 37.6016C7.37106 37.6214 7.38887 37.6479 7.39825 37.6776C7.40763 37.7074 7.40818 37.7393 7.39982 37.7694L6.44891 41.191C6.44055 41.221 6.42365 41.2481 6.40025 41.2687C6.37685 41.2894 6.34796 41.3028 6.31708 41.3074L3.17181 41.7736C3.14946 41.7769 3.12666 41.7755 3.10489 41.7695C3.08312 41.7634 3.06287 41.7529 3.04544 41.7385L0.591727 39.7163C0.567639 39.6964 0.549827 39.67 0.540448 39.6402C0.531068 39.6104 0.530525 39.5786 0.538884 39.5485L1.48979 36.1269C1.49815 36.0968 1.51505 36.0698 1.53845 36.0491C1.56185 36.0285 1.59074 36.015 1.62162 36.0104Z" fill="url(#paint0_linear_3115_386666)"/>
<path d="M3.04585 41.7394L0.592141 39.7172C0.568052 39.6973 0.55024 39.6709 0.540861 39.6411C0.531482 39.6114 0.530939 39.5795 0.539297 39.5494L1.4902 36.1278C1.49856 36.0977 1.51547 36.0707 1.53887 36.0501C1.56226 36.0294 1.59115 36.016 1.62204 36.0114L4.76731 35.5452C4.78966 35.5419 4.81246 35.5433 4.83423 35.5493L3.10531 41.7704C3.08355 41.7643 3.06329 41.7538 3.04585 41.7394Z" fill="url(#paint1_linear_3115_386666)"/>
<path d="M4.09884 38.1926L1.52181 36.0687C1.54665 36.0376 1.58217 36.0169 1.62144 36.0107L4.76671 35.5444C4.78906 35.5411 4.81185 35.5426 4.83362 35.5486C4.85538 35.5547 4.87564 35.5652 4.89308 35.5796L7.34679 37.6018C7.37718 37.6274 7.39693 37.6635 7.40218 37.7029L4.09884 38.1926Z" fill="url(#paint2_linear_3115_386666)"/>
<path d="M5.55467 37.9776L2.93313 35.817L3.36339 35.7532L5.98494 37.9138L5.55467 37.9776Z" fill="url(#paint3_linear_3115_386666)"/>
</g>
<path d="M22.8626 47.1155V20.0915L21.741 19.3403C16.9714 21.2555 13.5994 25.9139 13.5994 31.3683V40.6315C13.5994 47.7931 19.4058 53.5995 26.5682 53.5995H35.8314C40.2058 53.5995 44.0602 51.4243 46.4074 48.1059V47.1155H22.8626Z" fill="url(#paint4_linear_3115_386666)"/>
<path d="M35.8303 18.3997H26.5679C24.8591 18.3997 23.2319 18.7389 21.7383 19.3389C18.6511 22.3365 16.3783 27.2253 16.3783 31.3677C16.3783 37.6045 17.2351 41.2709 19.7735 44.8381C19.9903 45.1421 20.1431 45.4941 20.1655 45.8669C20.2047 46.5277 20.4831 47.2845 19.6847 48.2861C19.2647 48.8125 19.6567 49.5901 20.3295 49.6133C21.0367 49.6381 21.6631 49.5917 23.2191 48.9061C23.7279 48.6821 24.3183 48.6917 24.8087 48.9541C27.8855 50.6005 31.4951 50.8205 34.9039 50.8205C39.2351 50.8205 43.5551 49.8573 46.4063 48.1189C47.9079 46.0029 48.7983 43.4229 48.7983 40.6309V31.3685C48.7991 24.2061 42.9927 18.3997 35.8303 18.3997Z" fill="white"/>
<path d="M42.7329 39.199C40.7113 39.199 39.0665 37.411 39.0665 35.2118C39.0665 33.0126 40.7113 31.2246 42.7329 31.2246C44.7545 31.2246 46.3993 33.0126 46.3993 35.2118C46.3993 37.411 44.7545 39.199 42.7329 39.199ZM42.7329 33.3334C41.9241 33.3334 41.2665 34.1766 41.2665 35.2118C41.2665 36.247 41.9241 37.0902 42.7329 37.0902C43.5417 37.0902 44.1993 36.247 44.1993 35.2118C44.1993 34.1766 43.5417 33.3334 42.7329 33.3334Z" fill="url(#paint5_linear_3115_386666)"/>
<path d="M37.2338 39.1988C36.6258 39.1988 36.1338 38.706 36.1338 38.0988V29.3004C36.1338 28.6932 36.6258 28.2004 37.2338 28.2004C37.8418 28.2004 38.3338 28.6932 38.3338 29.3004V38.0996C38.3338 38.706 37.8418 39.1988 37.2338 39.1988Z" fill="url(#paint6_linear_3115_386666)"/>
<path d="M34.0257 31.4086C33.6121 31.4086 33.2569 31.6398 33.0689 31.9758C32.5121 31.5054 31.8313 31.2246 31.0929 31.2246C29.2201 31.2246 27.7017 33.0094 27.7017 35.2118C27.7017 37.4134 29.2201 39.199 31.0929 39.199C31.8313 39.199 32.5121 38.919 33.0689 38.4478C33.2569 38.7854 33.6121 39.015 34.0257 39.015C34.6337 39.015 35.1257 38.5222 35.1257 37.915V32.507C35.1257 31.9014 34.6337 31.4086 34.0257 31.4086ZM31.4129 37.091C30.5777 37.091 29.9009 36.2502 29.9009 35.2126C29.9009 34.175 30.5777 33.3342 31.4129 33.3342C32.2481 33.3342 32.9249 34.175 32.9249 35.2126C32.9257 36.2502 32.2489 37.091 31.4129 37.091Z" fill="url(#paint7_linear_3115_386666)"/>
<path d="M26.6015 38.9236H21.1935C20.7415 38.9236 20.3351 38.6732 20.1295 38.2716C19.9247 37.8692 19.9623 37.3932 20.2271 37.0284L24.4583 31.1324H21.2855C20.6775 31.1324 20.1855 30.6396 20.1855 30.0324C20.1855 29.4252 20.6775 28.9324 21.2855 28.9324H26.6015C27.0135 28.9324 27.3919 29.1628 27.5799 29.53C27.7687 29.8964 27.7351 30.3388 27.4951 30.674L23.1543 36.7236H26.6023C27.2103 36.7236 27.7023 37.2164 27.7023 37.8236C27.7015 38.4308 27.2095 38.9236 26.6015 38.9236ZM22.0183 38.3076L22.0119 38.318C22.0127 38.314 22.0159 38.3108 22.0183 38.3076Z" fill="url(#paint8_linear_3115_386666)"/>
<g clip-path="url(#clip2_3115_386666)">
<path d="M52.2197 22.5746L55.1854 19.5135C55.2065 19.4918 55.2319 19.4747 55.26 19.4634C55.288 19.452 55.3182 19.4467 55.3485 19.4478L59.6079 19.5979C59.6498 19.5994 59.6903 19.613 59.7245 19.637C59.7588 19.661 59.7853 19.6945 59.801 19.7333L61.5799 24.1487C61.5956 24.1875 61.5996 24.23 61.5916 24.2711C61.5835 24.3122 61.5638 24.35 61.5347 24.3801L58.569 27.4412C58.5479 27.4629 58.5225 27.48 58.4944 27.4913C58.4663 27.5026 58.4361 27.5079 58.4059 27.5069L54.1464 27.3568C54.1046 27.3553 54.0641 27.3417 54.0298 27.3177C53.9956 27.2937 53.969 27.2602 53.9534 27.2214L52.1744 22.806C52.1588 22.7672 52.1547 22.7247 52.1628 22.6836C52.1708 22.6425 52.1906 22.6047 52.2197 22.5746Z" fill="url(#paint9_linear_3115_386666)"/>
<path d="M58.4058 27.5057L54.1463 27.3556C54.1045 27.3541 54.064 27.3405 54.0298 27.3165C53.9955 27.2925 53.9689 27.259 53.9533 27.2202L52.1743 22.8048C52.1587 22.766 52.1547 22.7235 52.1627 22.6824C52.1707 22.6413 52.1905 22.6035 52.2196 22.5734L55.1853 19.5123C55.2064 19.4906 55.2318 19.4735 55.2599 19.4622L58.4943 27.4901C58.4662 27.5014 58.4361 27.5067 58.4058 27.5057Z" fill="url(#paint10_linear_3115_386666)"/>
<path d="M56.6342 22.8753L52.1606 22.7177C52.1617 22.6644 52.1826 22.6134 52.2193 22.5747L55.185 19.5136C55.2061 19.4919 55.2315 19.4748 55.2596 19.4635C55.2876 19.4521 55.3178 19.4468 55.3481 19.4479L59.6075 19.598C59.6608 19.6005 59.7112 19.6227 59.7489 19.6604L56.6342 22.8753Z" fill="url(#paint11_linear_3115_386666)"/>
<path d="M58.0072 21.4596L53.4564 21.2992L53.8621 20.8805L58.4129 21.0409L58.0072 21.4596Z" fill="url(#paint12_linear_3115_386666)"/>
</g>
<g clip-path="url(#clip3_3115_386666)">
<path d="M24.6864 6.27719L19.8433 3.52246C19.8089 3.50291 19.7708 3.49079 19.7314 3.48688C19.692 3.48297 19.6522 3.48736 19.6146 3.49976L14.3245 5.24871C14.2726 5.2659 14.2267 5.29778 14.1925 5.34048C14.1583 5.38319 14.1373 5.4349 14.1319 5.48934L13.5172 11.6819C13.5118 11.7363 13.5223 11.7912 13.5474 11.8398C13.5726 11.8883 13.6113 11.9286 13.6588 11.9557L18.5019 14.7104C18.5363 14.73 18.5745 14.7421 18.6139 14.746C18.6533 14.7499 18.693 14.7455 18.7306 14.7331L24.0207 12.9842C24.0727 12.967 24.1185 12.9351 24.1527 12.8924C24.1869 12.8497 24.208 12.798 24.2134 12.7435L24.828 6.55099C24.8334 6.49655 24.8229 6.44171 24.7978 6.39312C24.7727 6.34452 24.734 6.30425 24.6864 6.27719Z" fill="url(#paint13_linear_3115_386666)"/>
<path d="M18.7302 14.7296L24.0203 12.9807C24.0723 12.9635 24.1181 12.9316 24.1523 12.8889C24.1865 12.8462 24.2076 12.7945 24.213 12.7401L24.8276 6.54754C24.833 6.49309 24.8225 6.43825 24.7974 6.38966C24.7723 6.34106 24.7336 6.3008 24.686 6.27374L19.8429 3.519C19.8085 3.49945 19.7704 3.48732 19.731 3.4834L18.6134 14.7426C18.6528 14.7464 18.6926 14.742 18.7302 14.7296Z" fill="url(#paint14_linear_3115_386666)"/>
<path d="M19.2561 8.27322L24.8121 6.43639C24.7912 6.36991 24.7463 6.31359 24.6861 6.27844L19.843 3.5237C19.8086 3.50415 19.7704 3.49203 19.731 3.48812C19.6917 3.48421 19.6519 3.4886 19.6143 3.501L14.3242 5.24996C14.2582 5.2726 14.2031 5.31898 14.1696 5.38006L19.2561 8.27322Z" fill="url(#paint15_linear_3115_386666)"/>
<path d="M17.0147 6.99655L22.6666 5.12798L22.0041 4.75116L16.3521 6.61972L17.0147 6.99655Z" fill="url(#paint16_linear_3115_386666)"/>
</g>
</g>
<defs>
<linearGradient id="paint0_linear_3115_386666" x1="-1.61678" y1="39.9031" x2="6.69263" y2="38.0524" gradientUnits="userSpaceOnUse">
<stop offset="0.19" stop-color="#FD9B02"/>
<stop offset="1" stop-color="#FF7302"/>
</linearGradient>
<linearGradient id="paint1_linear_3115_386666" x1="4.28445" y1="38.9161" x2="-1.24753" y2="34.5515" gradientUnits="userSpaceOnUse">
<stop stop-color="#FD9B02"/>
<stop offset="1" stop-color="#FF7302"/>
</linearGradient>
<linearGradient id="paint2_linear_3115_386666" x1="4.87184" y1="35.4111" x2="3.44906" y2="40.5306" gradientUnits="userSpaceOnUse">
<stop stop-color="#FED200"/>
<stop offset="1" stop-color="#F59815"/>
</linearGradient>
<linearGradient id="paint3_linear_3115_386666" x1="4.87664" y1="35.3627" x2="3.10265" y2="41.746" gradientUnits="userSpaceOnUse">
<stop stop-color="#FD9B02"/>
<stop offset="1" stop-color="#FF7302"/>
</linearGradient>
<linearGradient id="paint4_linear_3115_386666" x1="30.0034" y1="53.5995" x2="30.0034" y2="19.3403" gradientUnits="userSpaceOnUse">
<stop stop-color="#CB2A38"/>
<stop offset="0.287" stop-color="#D33844"/>
<stop offset="0.8" stop-color="#DF4B55"/>
<stop offset="1" stop-color="#FE7C80"/>
</linearGradient>
<linearGradient id="paint5_linear_3115_386666" x1="42.7329" y1="39.199" x2="42.7329" y2="31.2246" gradientUnits="userSpaceOnUse">
<stop stop-color="#D0313F"/>
<stop offset="0.287" stop-color="#D33743"/>
<stop offset="0.8" stop-color="#EA5D65"/>
<stop offset="1" stop-color="#F56E73"/>
</linearGradient>
<linearGradient id="paint6_linear_3115_386666" x1="37.2338" y1="39.1988" x2="37.2338" y2="28.2004" gradientUnits="userSpaceOnUse">
<stop stop-color="#CF303E"/>
<stop offset="0.287" stop-color="#D73E49"/>
<stop offset="0.8" stop-color="#E5545D"/>
<stop offset="1" stop-color="#F66E74"/>
</linearGradient>
<linearGradient id="paint7_linear_3115_386666" x1="31.4137" y1="39.1998" x2="31.4137" y2="31.2254" gradientUnits="userSpaceOnUse">
<stop stop-color="#CE2E3C"/>
<stop offset="0.287" stop-color="#D43945"/>
<stop offset="0.8" stop-color="#EE636A"/>
<stop offset="1" stop-color="#F66F74"/>
</linearGradient>
<linearGradient id="paint8_linear_3115_386666" x1="23.8503" y1="38.9236" x2="23.8503" y2="28.9332" gradientUnits="userSpaceOnUse">
<stop stop-color="#CC2B39"/>
<stop offset="0.287" stop-color="#D43945"/>
<stop offset="0.8" stop-color="#DA444F"/>
<stop offset="1" stop-color="#F66F74"/>
</linearGradient>
<linearGradient id="paint9_linear_3115_386666" x1="51.9494" y1="29.3567" x2="59.2795" y2="20.6111" gradientUnits="userSpaceOnUse">
<stop offset="0.19" stop-color="#FD9B02"/>
<stop offset="1" stop-color="#FF7302"/>
</linearGradient>
<linearGradient id="paint10_linear_3115_386666" x1="57.4209" y1="23.4921" x2="47.9764" y2="23.3607" gradientUnits="userSpaceOnUse">
<stop stop-color="#FD9B02"/>
<stop offset="1" stop-color="#FF7302"/>
</linearGradient>
<linearGradient id="paint11_linear_3115_386666" x1="55.1881" y1="19.286" x2="57.8498" y2="25.8925" gradientUnits="userSpaceOnUse">
<stop stop-color="#FED200"/>
<stop offset="1" stop-color="#F59815"/>
</linearGradient>
<linearGradient id="paint12_linear_3115_386666" x1="55.1534" y1="19.2309" x2="58.4722" y2="27.4682" gradientUnits="userSpaceOnUse">
<stop stop-color="#FD9B02"/>
<stop offset="1" stop-color="#FF7302"/>
</linearGradient>
<linearGradient id="paint13_linear_3115_386666" x1="27.5104" y1="14.6889" x2="15.1079" y2="6.39982" gradientUnits="userSpaceOnUse">
<stop offset="0.19" stop-color="#FD9B02"/>
<stop offset="1" stop-color="#FF7302"/>
</linearGradient>
<linearGradient id="paint14_linear_3115_386666" x1="18.4957" y1="9.33226" x2="30.2992" y2="5.70708" gradientUnits="userSpaceOnUse">
<stop stop-color="#FD9B02"/>
<stop offset="1" stop-color="#FF7302"/>
</linearGradient>
<linearGradient id="paint15_linear_3115_386666" x1="19.7557" y1="3.23928" x2="18.8361" y2="12.5047" gradientUnits="userSpaceOnUse">
<stop stop-color="#FED200"/>
<stop offset="1" stop-color="#F59815"/>
</linearGradient>
<linearGradient id="paint16_linear_3115_386666" x1="19.7793" y1="3.15428" x2="18.6327" y2="14.707" gradientUnits="userSpaceOnUse">
<stop stop-color="#FD9B02"/>
<stop offset="1" stop-color="#FF7302"/>
</linearGradient>
<clipPath id="clip0_3115_386666">
<rect width="64" height="64" fill="white"/>
</clipPath>
<clipPath id="clip1_3115_386666">
<rect width="7.74824" height="7.74824" fill="white" transform="matrix(-0.963485 -0.267764 -0.267764 0.963485 8.54004 36.0745)"/>
</clipPath>
<clipPath id="clip2_3115_386666">
<rect width="10.3861" height="10.3861" fill="white" transform="matrix(-0.927547 0.373705 0.373705 0.927547 59.6335 16.9998)"/>
</clipPath>
<clipPath id="clip3_3115_386666">
<rect width="13.5774" height="13.5774" fill="white" transform="translate(13.3411 1.99976) rotate(5.66836)"/>
</clipPath>
</defs>
</svg>
